<svg xmlns="http://www.w3.org/2000/svg" width="566" height="300" fill="none"><g clip-path="url(#a)"><path fill="#002E4F" d="M437.6 287.5c-4 5.2-8.7 9.3-7.8 11 0 0 2.1 1.7 8.1 1.7 10.2 0 20.3-.8 18.6-1.8-2.2-1.5-8.9-2-15.2-4.2-1.6-.5 3.4-3.6 2.1-4-2.9-1.2-5.2-2-5.8-2.7ZM542.7 298.2s1.3 2 6.4 2c9 0 18-1.2 16.7-2.1-2-1.3-17.5-4.6-17.5-4.6l-3.4-4.3-5.8 3.2 3.6 5.8Z"/><path fill="#00A4E2" d="M514.7 168.2c-6.4 0-11.2-1.3-11.5-1.3a6.4 6.4 0 0 1-4.4-7.6c1-3.2 4.4-5.2 7.6-4.4.2 0 14 3.6 22.3-3.4 5.5-4.7 7.5-13.4 6.2-26.2l-.5-4L547 114c2.9-1.6 6.8-.6 8.4 2.3 1.6 3 .6 6.8-2.3 8.4l-5.5 3.1c.8 14.9-2.7 26-10.8 32.9-6.8 6-15.2 7.4-22 7.4Z"/><path fill="#E1F3F6" d="M536.2 133.7c-.2 9-2.6 15.6-7.1 19.5-9 7.6-24.2 3.7-24.5 3.7a6.7 6.7 0 0 0-8.2 4.8 7 7 0 0 0 4.7 8.5c.4.1 5.6 2.7 12.6 2.4 26.4-1 42.2-23.7 42.6-37l-20.1-1.9Z"/><path fill="#008DC4" d="m500 102.2-7-3.4c-21.9 12.4-49.7 28.3-50.4 29l14.7 23c.7.6 35-24.2 59.8-42-5.7-2.3-11.7-4-17.2-6.6Z"/><path fill="#00AFE2" d="M500.2 101.5c5.7 2.6 11.7 4.4 17.5 6.6L542 90.7l-23.2-6.5-25 14.2c2.2 1.2 4.3 2.1 6.5 3.1Z"/><path fill="#006091" d="m460.1 72.5 13.8 37.3 26.7 9.7-33.9-62-6.6 15ZM502 128.7h-19.7l17.6 30.8 26.9 11.5-24.8-42.3Z"/><path fill="#0076AD" d="m526.8 171-15.9-27-67.6 39.6-13.3-22.7 8.4-134.8 30.4-17.8 54.8 93.2L542 90.7l15.4 26-18.5 10.9 16 27-28.1 16.4ZM465.4 66.2l-1.7 1-4.6 72 36.6-21.5-30.3-51.5Z"/><path fill="#008DC4" d="m407.6 154.8 22.5 6.1 13.3 22.7-23.8-6-12-22.8Z"/><path fill="#00AFE2" d="m407.6 154.8 22.5 6.1 8.3-134.8-20.6-5-10.2 133.7Z"/><path fill="#00D2FD" d="m417.8 21 20.6 5 30.4-17.7L448 2l-30.2 19Z"/><path fill="#002E4F" d="M463 208.5s3.2 35.6 3.2 48.1c0 0-25.9 20.2-32.3 30.8 2.7 2 8 4.8 11.6 4.7 17.3-16.5 36.3-28.4 36.3-28.4S490 240 492.5 220L463 208.5Z"/><path fill="#E1F3F6" d="M481.6 210.1c5.9 0 11.8-1 16.9-3.7-1.7-7.1 2-28.1 6.4-39.3 0 0 3.6-7.8 1.2-10.2-9.3-9-17.2-8.1-19.6-8.3a76 76 0 0 0-23.7 56.2c4.3 4.5 13.2 5.3 18.8 5.3Z"/><path fill="#00396A" d="M538.8 293.4c3.4-1 6.6-2.5 8.7-5.4a2976 2976 0 0 1-48.7-80.6c0-.2-.2-.3-.2-.3-5.3 2.9-11.8 3.9-18.1 3.7-5.5-.2-13.3-1-17.8-5v.8c.8 15.5 52.4 67.5 72.8 87.4 1.2 0 2.3-.3 3.3-.6Z"/><path fill="#00A4E2" d="M432 194a12.8 12.8 0 0 1-12.3-9.6c-.9-3.2 1-6.8 4.3-7.8 3.2-1 6.8 1 7.8 4.2.1.4.1.7.3.9.6 0 3-.2 9-3.8 5.4-3 11.7-7.7 17.9-12.3 10.3-7.6 20-14.9 28.1-17.3 3.3-1 6.8.8 7.8 4 1 3.3-.8 6.8-4 7.8-6.2 2-15.4 9-24.5 15.6-13.3 9.7-25 18.3-34.3 18.3Z"/><path fill="#00A4E2" d="M443.7 189.4c-.8-3.7-1.6-7.6-3.8-10.7-5 2.8-7.2 3-7.8 3l-.3-.9a6.3 6.3 0 0 0-7.8-4.2 6.3 6.3 0 0 0-4.2 7.8c1.8 5.8 5.3 8.1 8 9 1.4.4 2.8.6 4.3.6 3.5 0 7.6-1.3 11.8-3.4l-.2-1.2Z"/><path fill="#E1F3F6" d="M494.7 152.2c-1-3.3-4.5-5-7.7-4-8.1 2.5-17.8 9.7-28.2 17.3-6.2 4.5-12.5 9.2-17.8 12.3l-.7.5c2.3 3 6.4 18 6.5 18.4 6.7-3.4 38-27.4 44.9-34.6 2.4-2.5 4.2-6.7 3-10Z"/><path fill="#00A4E2" d="M423.3 189a3 3 0 0 1-1-.4 23.4 23.4 0 0 1-7.5-10.5c-.4-1 .1-2 1.1-2.3 1-.3 2 .2 2.3 1.2 0 0 2.2 6 6.1 8.7.8.6 1 1.8.5 2.6-.3.5-1 .6-1.5.6Z"/><path fill="#00A4E2" d="M423.3 184.6c-.6 0-1-.4-1.4-.8a46.1 46.1 0 0 1-4.4-12 2 2 0 0 1 1.3-2.3c1-.2 2 .3 2.3 1.3.5 2.3 2.2 8.4 3.9 10.7.6.8.3 2-.5 2.6-.3.3-.8.5-1.2.5Z"/><path fill="#00A4E2" d="M426 183.4c-.7 0-1.5-.5-1.7-1.1-1.6-4-2.2-12.6-2.4-13.1 0-1 .6-2 1.6-2 1-.1 2 .7 2 1.7.1 2.2.8 8.9 2 12 .4 1 0 1.9-1 2.4l-.6.1Z"/><path fill="#00A4E2" d="M428.5 182.6c-.8 0-1.6-.5-1.8-1.3-1-4.5-.1-9 0-9.2.2-1 1.3-1.6 2.3-1.3 1 .2 1.6 1.1 1.3 2.3 0 .1-.8 3.9 0 7.4.3 1-.3 2-1.3 2.3-.1-.2-.3-.2-.5-.2ZM501.9 162c-.8 0-1.7-.1-2.5-.4a5.7 5.7 0 0 1-2.7-7.8c1.4-3 4-6.1 4.4-6.5a5.9 5.9 0 0 1 8.2-.6 5.9 5.9 0 0 1 .7 8.2c-.8.8-2.1 2.8-2.8 4-1.1 2-3.2 3.2-5.3 3.2Z"/><path fill="#0086CF" d="M502.7 159.1c.6.9 1.4 1.5 2 2.2 1-.7 1.9-1.5 2.3-2.5.7-1.3 2-3 2.8-4a5.9 5.9 0 0 0-.6-8.3 5.9 5.9 0 0 0-8.3.7c-.2.1-.7.6-1.1 1.4 0 4 .3 7.8 2.9 10.5Z"/><path fill="#00A4E2" d="M521.8 152.7a11 11 0 1 1-20.4-8.4l2.9-7.2a11 11 0 1 1 20.4 8.4l-3 7.2Z"/><path fill="#00396A" d="M502.7 143.4c-1 3.8-6.3 2.6-8.4.7-2.8-2.8-4.6-10.4 1.7-10-4.5-6.8 10.7-14.1 12.3-6.4 1.2-1.9 2.5-3.8 5-4 2-.2 5.2 1.3 5 3.7 3-2.3 7-2 9.8.2 1 .6 2.6 2.2 1.8 3.5-.5.7-2.8.8-3.6 1.2 1.3-.7 6.8.6 5.7 2.9-.5 1.1-3.1.1-3.9-.2v.2c3 1.6 4 3.2 3.7 6.8-.1 1.6-1 4.8-2.9 5-1 .2-2.1-.5-2.1-1.6 2.4 2.4-1 8.9-4 5.7-1.2-1.3-.7-3.4.4-4.4-1.7-1-5.6-6.5-2.9-8.1-1.3 0-7.3-2-5.5-3.7.5 2-2 4.7-4 3.5 1.3 2.8-2.5 4.7-4.7 4.9 1.3 1.8-3 3.7-4.2 1.3l.8-1.2Z"/><path fill="#0089E0" d="M295.6 121.4s-3.6-13.6 14-16.8l-1.4 16.3-12.6.5Z"/><path fill="#CDE5E8" d="M225.2 155.7c-4 0-7.5-.8-10.7-2.2-15.9-7.6-17.7-30.1-17.8-31.1a6.3 6.3 0 0 1 5.7-6.6 6.3 6.3 0 0 1 6.6 5.6c.3 4.6 3 17.2 10.7 21 6.5 3 16.3 0 28.8-9 2.7-2 6.6-1.3 8.6 1.5 2 2.7 1.3 6.6-1.5 8.5a55 55 0 0 1-30.4 12.3Z"/><path fill="#00AFE2" d="m258.2 167.2 5.2-13.6-3.7-.4c-6-1.2-11.2-3.6-15.3-7.3a36 36 0 0 1-9.7-14.3 60.2 60.2 0 0 1-3.9-19.6c-.3-7.3.2-15 1.8-23.1a97.7 97.7 0 0 1 7-22.4c3-6.6 6.6-12.1 10.8-16.6 4.2-4.6 9-7.8 14.3-9.7a31 31 0 0 1 16.8-1.2c4.7 1 9 2.8 12.6 5.4 1.8-3.6 3.8-7 5.6-10.4l6-12.3 2.2-5.5a69 69 0 0 0-50.8-6.3c-9.4 2.7-18 7.6-25.6 14.2a83.4 83.4 0 0 0-19.3 25c-5.3 10-9 21.2-11.5 33.5-2.4 12.3-2.9 24-1.7 35.4 1.2 11.4 4 21.4 8.7 30.3a64.2 64.2 0 0 0 44.2 34.5l6.3-15.6Z"/><path fill="#006091" d="M342 74.2a84.7 84.7 0 0 0-8.7-30.3 69.9 69.9 0 0 0-25-27.2l-2.3 5.5-6 12.3-5.5 10.5 1.8 1.5a36 36 0 0 1 9.7 14.2 56.9 56.9 0 0 1 4 19.4 98 98 0 0 1-8.7 45.5c-3.1 6.7-6.7 12.3-11 16.7-4.4 4.5-9.1 7.8-14.4 9.7-4 1.5-8 2.1-12.2 1.8-2 4.9-3.7 9.9-5.7 14.9-1.7 4.9-3.8 9.7-6.1 14.4l1.5.3a63.3 63.3 0 0 0 55.8-15.3c7.6-6.7 14-15 19.3-25 5.3-10 9-21.2 11.5-33.5 2.7-12.5 3.4-24.1 2-35.4Z"/><path fill="#0076AD" d="M272.8 190a63.5 63.5 0 0 1-46.2-35c-4.5-9-7.4-19.2-8.7-30.3-1.3-11.4-.7-23 1.8-35.5 2.4-12.3 6.1-23.5 11.5-33.5a86 86 0 0 1 19.2-25 63.3 63.3 0 0 1 55.9-15.4 63.5 63.5 0 0 1 46.3 35 89.1 89.1 0 0 1 8.7 30.3c1.3 11.4.7 23-1.7 35.5a120.4 120.4 0 0 1-11.5 33.5 86.1 86.1 0 0 1-19.3 25 68.8 68.8 0 0 1-25.6 14.2c-9.7 2.7-19.7 3-30.4 1.1Zm5.6-30.4c5.9 1.2 11.4.7 16.7-1.3 5.2-2 10-5.1 14.4-9.7 4.4-4.5 8-10 11-16.7a98.9 98.9 0 0 0 8.8-45.4 59.1 59.1 0 0 0-4-19.5 39.7 39.7 0 0 0-9.8-14.2 31.3 31.3 0 0 0-15-7.3 31 31 0 0 0-16.9 1.1c-5.2 2-10 5.2-14.2 9.7-4.2 4.6-7.8 10-10.9 16.7-3 6.7-5.3 14.1-7 22.4a96.1 96.1 0 0 0-1.7 23.1 61 61 0 0 0 3.9 19.6 37.2 37.2 0 0 0 9.7 14.2c4 3.8 9 6.2 15 7.3Z"/><path fill="#00396A" d="m382 99 .5 22.7s-6.4 5.9-12.3 0l2.1-25.5 9.8 2.7Z"/><path fill="#002E4F" d="M355.2 280.6c-.3-.4-3-1.5-3.3-1.8a23.3 23.3 0 0 1-3.8 4.8c4 3.6 2.9 7.8 2.9 7.8s-3 2.4-4 3c-3.5 1.7-10 4.1-10 4.1l16.6 1.3 12.1-12.4a70 70 0 0 1-10.5-6.8ZM290.8 281.5c-2.6-.4-6 1.7-8.1 0-.5 4.6-.4 7.2-.4 7.2l-24.3 10h31.1c.4-3.2-.3-6.5.2-9.5 0-1.8 1.1-6.2 1.4-7.7Z"/><path fill="#CDE5E8" d="m319 171-27.4 52.3s11.1 9.3 22.1 12.6l20.6-61.7-15.2-3.2Z"/><path fill="#002E4F" d="M349.2 285c1.6-1.7 3-3.8 4.4-5.9-7.2-6.1-10.6-12.5-20.3-23.1-4-4.6 6.7-30.2 9.3-34.5 4.7-7.8 5.3-13.3 8.9-26.6l-27 10c-6.4 23-13.8 45.9-6.2 56.9 8 11.5 21.8 20.9 28.6 25.6.2.1 2.1-2.6 2.3-2.5Z"/><path fill="#00A4E2" d="M303.9 118.8a3 3 0 0 1-1.2-.3 2 2 0 0 1-.5-2.6c2.2-3 2.6-5.5 2.6-5.5.2-1 1.2-1.6 2.1-1.4 1 .1 1.7 1 1.5 2 0 .2-.7 3.3-3.2 7-.2.5-.7.8-1.3.8Z"/><path fill="#F6EE9E" d="M349.5 200.6c8-22 15-56.5 17.3-70.3-1.4-.6-2.7-1-3.8-1.3-2.5-.6-5.2-1.4-7.7-.6-1.2.3-2.2 1-3.4 1.6-1 3-1.4 5.5-1.4 5.5s-17.2 32.9-28.3 55.2c9.3 2.3 18.7 5.4 27.3 9.9Z"/><path fill="#00396A" d="m321.8 191.5-2.7 5.7-6.8 11c-22.2 33.4-30.5 60-32 72.5 2.2 1.7 10.1 2.6 12.9 3.1 4-20.9 14.7-34.2 33.7-49.9 6.3-5.3 11.1-12 15.3-17.4 2.5-3.3 5-8.6 7.3-15.1-8.9-4.7-18.3-7.8-27.7-9.9Z"/><path fill="#00A4E2" d="M300.3 200.8a6 6 0 0 1-5.8-4.3 6.3 6.3 0 0 1 3.9-7.9c7.4-2.6 19-13 26.8-24a390.4 390.4 0 0 1 27.4-35.2 6.2 6.2 0 0 1 8.7-.5 6.2 6.2 0 0 1 .5 8.7c-.1.2-11.1 12.5-26.4 34.2-7.6 10.8-21.2 24.4-32.8 28.5-1 .3-1.7.5-2.3.5Z"/><path fill="#00A4E2" d="M362.5 132.4h-.5c-3.3-.1-5.7-3-5.4-6.3.4-3.4 1.7-7.1 1.7-7.6 1-3 4.3-4.7 7.4-3.6 3 1 4.7 4.4 3.6 7.5-.4 1.1-1 3.2-1.2 4.7 0 3-2.6 5.3-5.6 5.3Z"/><path fill="#0086CF" d="M364.3 126.3c1 1.1 2 2.2 3.4 3.2.4-.8.6-1.6.8-2.4a20 20 0 0 1 1.1-4.7 6 6 0 0 0-3.6-7.5 6 6 0 0 0-6.6 2.2c.3 3.4 3 7 4.9 9.2Z"/><path fill="#00A4E2" d="M379.3 113.7a11.2 11.2 0 0 1-11.3 10.8 11.2 11.2 0 0 1-10.9-11.3l.2-7.6c.2-6.2 5.2-10.9 11.3-10.9 6.2.2 10.9 5.2 10.9 11.3l-.2 7.7ZM291.6 199c-2.6 0-5.5-.7-8.8-2.1-1-.4-1.3-1.5-1-2.5.4-1 1.5-1.3 2.5-1 4.8 2 8.6 2.3 11 .9.8-.5 2-.3 2.4.6.5.8.3 2-.6 2.5a8.9 8.9 0 0 1-5.5 1.6Z"/><path fill="#00A4E2" d="M293.8 201.6c-2.9 0-5.2-.5-8-1.2l-.7-.1c-1-.2-1.6-1.3-1.3-2.3.1-1 1.3-1.6 2.3-1.3l.8.2a23 23 0 0 0 13.7.1c1-.3 2 .4 2.3 1.3.3 1-.3 2-1.3 2.3-3.2.6-5.7 1-7.8 1ZM291.4 195.4a16 16 0 0 1-9.9-3.7c-.8-.7-.8-1.8-.1-2.6.6-.8 1.7-.8 2.6-.2.1.2 4.3 4 10 2.5 1-.4 2 .3 2.3 1.3.3 1-.4 1.9-1.3 2.2-1.2.4-2.5.5-3.6.5Z"/><path fill="#00A4E2" d="M295.3 193.5h-.2c-6.1-.7-8.7-5.2-8.9-5.4-.5-.8-.1-2 .7-2.4.8-.5 2-.2 2.4.6.2.2 1.8 3.1 6 3.6 1 .2 1.8 1 1.6 2 0 .8-.6 1.6-1.6 1.6ZM317 121.4h-.3a189 189 0 0 0-13.2-1.8c-1 0-1.7-.8-1.7-1.7 0-1 .8-1.8 1.7-1.8 2.6 0 12.7 1.6 13.8 1.8 1 .1 1.6 1.1 1.5 2 0 .9-.9 1.5-1.8 1.5Z"/><path fill="#00A4E2" d="M315.8 125.3h-.4c-.2 0-8.8-2.4-12.8-2.6-1 0-1.8-1-1.8-2 0-.9 1-1.7 2-1.7 4.3.3 13 2.6 13.5 2.7 1 .4 1.6 1.3 1.3 2.3-.1.7-1 1.3-1.8 1.3Z"/><path fill="#00A4E2" d="M315 129.2c-.1 0-.3 0-.5-.2-8.2-2.6-10.1-2.7-11.3-2.9l-1.4-.1c-1-.4-1.7-1.3-1.3-2.3.3-1 1.3-1.6 2.2-1.3l.8.2c1.3.1 3.6.3 12.2 3 1 .4 1.4 1.3 1.1 2.3-.3.8-1 1.3-1.8 1.3Z"/><path fill="#00A4E2" d="M311.3 132.1c-8.4-.6-8.7-5-8.7-5.5l3.7-.2v-.1s.3 1.8 5.2 2c1 0 1.8 1 1.6 2 0 1.2-.8 1.8-1.8 1.8Z"/><path fill="#00A4E2" d="M304.5 130s-1.6-.8-4-.8c-2.1 0-4.9-3.6-4.9-7.1 0 0-1-10.7 10.4-5.9l-1.5 13.8Z"/><path fill="#CDE5E8" d="m340.3 161.9-15.9 78.4s24.6 6 39.9-2.8l3.8-109c-.1.2-17.1-5.8-27.8 33.4Z"/><path fill="#E1F3F6" d="m344 205.1 15.2-.8s.4 23.3-8.7 22.4c0 0-12.5 2.7-6.5-21.6ZM363.1 126.8a9.3 9.3 0 0 0-13 .8c-.4.5-11.6 13-27.5 35.6-1 1.5-2.2 3-3.4 4.5l-1.6 2 1.8 1.8 5.8 5.8 3.1 3 2.3 2.3 2-2.4c1.9-2.1 3.6-4.4 5.1-6.5 15.2-21.5 26-33.8 26.2-33.8 3.3-3.9 3-9.7-.8-13.1Z"/><path fill="#F8FDFF" d="m321.3 162.4-6.1 7 16 14.3 6.2-6.9-16-14.4Z"/><path fill="#00396A" d="m346.1 118 14.1 5.5s6-29 1.6-33.3c0 0-15.7-1.5-15.7 27.8Z"/><path fill="#00396A" d="M362.6 95.2c.5.8 11.4 8 20 6 0 0-1.5-12.8-21.4-11l1.4 5Z"/><path stroke="#DDDD67" stroke-miterlimit="10" stroke-width=".9" d="M371 109a6.1 6.1 0 1 1-12.2 0 6.1 6.1 0 0 1 12.3 0Z"/><path stroke="#DDDD67" stroke-miterlimit="10" stroke-width=".8" d="M384.8 110c0 3-2.4 5.4-5.3 5.4-3 0-5.4-2.4-5.4-5.3 0-3 2.5-5.4 5.4-5.4 2.9 0 5.3 2.5 5.3 5.4Z"/><path stroke="#DDDD67" stroke-miterlimit="10" stroke-width=".9" d="M371 109s2-.9 3.3.4"/><path fill="#0086CF" d="M193.8 119.6h-.5c-3.3-.1-5.7-3-5.4-6.3.4-3.4 1.7-7 1.7-7.6 1-3 4.3-4.7 7.4-3.5 3 1 4.7 4.3 3.6 7.4-.4 1.1-1 3.2-1.2 4.7-.1 3-2.7 5.3-5.6 5.3Z"/><path fill="#002E4F" d="M190.2 281.4c9.7 4.5 17.7 4.4 18.3 4.5 6.3-11.2 25.3-41.6 8-66.4l-24.5-13c.2-.2 24.4 25.3-1.8 74.9Z"/><path fill="#002E4F" d="m202.8 291.4 4-7.6c-1.2-.2-7.2-.3-9.6-1.3-2.3 4.7-7.3 11.5-10.7 16.2h32.9l-16.6-7.3Z"/><path fill="#00396A" d="M243.5 220.8c-4-7.9-33.7-31.7-36.5-45.5l-.6-3.7c-4.7 2.6-11 3.3-15.9 3.4-5.5.3-8.9.7-14.2-2 .5 8.7-1 16.7 4 25.3 10 17.2 42.6 31.8 46.2 37.4 7.1 11.2 9.7 35.3 12.1 50 3.9 0 13-.1 16.7-1.4-1.1-7.5 1-38.5-11.8-63.5Z"/><path fill="#002E4F" d="M253.7 290s-1.2-4.4-1.5-6.4c-3.7 1.3-6 0-9.9 0 .7 3.8.2 10.6.5 14.6H274l-20.2-8.2Z"/><path fill="#CDE5E8" d="M190.9 179.7c4.7-.2 14.7-1.4 18.6-5.5-.8-6.5-3.7-17-2.8-25.4 3.4-28.5-10.5-37-10.5-37s-6.5-4.6-11.7.7c-7.7 8.1-15.5 31-14.7 64.6 5.7 3 15.4 2.8 21 2.6Z"/><path fill="#00A4E2" d="m262.3 188.6-1.5-.1a90 90 0 0 1-55-39c-10.2-15.1-13.6-28.7-13.8-29.2a6.1 6.1 0 0 1 4.5-7.5 6.1 6.1 0 0 1 7.5 4.6c0 .3 3.2 12.4 12.3 25.9a76.7 76.7 0 0 0 47.3 33.3c3.4.8 5.3 4 4.6 7.5-.4 2.6-3 4.5-6 4.5Z"/><path fill="#E1F3F6" d="M248.7 170a78.4 78.4 0 0 1-31.3-27.7 92 92 0 0 1-12.1-25.6 7.3 7.3 0 0 0-7.2-5.5c-.6 0-1 0-1.7.2a7.3 7.3 0 0 0-5.4 8.9v.2c1 4.2 4.9 18.7 14 32.5a92.9 92.9 0 0 0 42.7 35.3h.5c.1 0 .5 0 .6-.2.3-.1.5-.5.5-1v-16.3c0-.2-.3-.6-.6-.8Z"/><path fill="#00A4E2" d="M267 189.1c-2 0-4.1-.2-6.4-.6-1-.2-1.6-1.2-1.4-2.2.1-1 1.1-1.6 2-1.4 5.6 1.1 10 .6 13.5-1.1.8-.5 2-.2 2.4.8.5.8.2 2-.8 2.4a21.1 21.1 0 0 1-9.3 2.1Z"/><path fill="#00A4E2" d="m267.1 185-2.6-.1c-1-.2-1.6-1.1-1.6-2.1.2-1 1.1-1.6 2.1-1.6 5.8.8 11.2-2.1 11.3-2.3.8-.5 2-.2 2.5.6.5.9.1 2-.7 2.5-.1.3-5 3-11 3Z"/><path fill="#00A4E2" d="M265.5 181.5h-.8c-1 0-1.8-1-1.8-2s1-1.7 2-1.7a8 8 0 0 0 6.6-2.5c.6-.8 1.8-1 2.6-.3s1 1.8.3 2.6c-.2.2-3 3.9-9 3.9ZM259.3 178.4c-1 0-1.7-.8-1.7-1.8s.8-1.7 1.7-1.7a8 8 0 0 0 5.9-3.1 2 2 0 0 1 2.6-.5c.8.6 1 1.8.4 2.6a12.5 12.5 0 0 1-8.9 4.5ZM253.4 137.3c-.7 0-1.2-.3-1.5-.8-2.8-3.7-3.2-7-3.2-7-.2-1 .4-2 1.4-2 1-.2 2 .4 2.1 1.4 0 0 .5 2.4 2.6 5.5.7.8.3 2-.5 2.6-.3.1-.6.3-1 .3Z"/><path fill="#00A4E2" d="M253.7 138.1h-.3c-4.1-.8-11.9-.8-12-.8-1 0-1.8-.8-1.8-1.8s.8-1.8 1.8-1.8c.3 0 8.2 0 12.6.8 1 .2 1.6 1.2 1.5 2.1-.2.9-1 1.5-1.8 1.5Z"/><path fill="#00A4E2" d="M240.4 141.8c-1 0-1.6-.6-1.8-1.6-.1-1 .7-2 1.6-2.1a77 77 0 0 1 14.8-.8c1 .2 1.6 1.1 1.4 2.1-.1 1-1.1 1.6-2 1.5-2.2-.4-9.5.3-13.7.8l-.3.1Z"/><path fill="#00A4E2" d="M242.7 145.9c-.8 0-1.7-.7-1.8-1.5-.2-1 .5-2 1.4-2 4.4-.9 5.7-1.4 7.8-2l4-1.3c1-.4 2 .3 2.3 1.3.4 1-.3 2-1.3 2.2l-4 1.3c-2.3.7-3.6 1.2-8.1 2.1l-.3-.1Z"/><path fill="#00A4E2" d="M246.7 148.8c-.8 0-1.6-.7-1.8-1.5-.1-1 .5-2 1.5-2 5.8-1 7.1-3.3 7.1-3.3.3-1 1.3-1.5 2.3-1.1 1 .3 1.4 1.2 1.1 2.2-.1.7-1.8 4.4-9.9 5.7h-.3Z"/><path fill="#00A4E2" d="m253.7 146.7-1.5-15s6.5.6 6.5 7.4c.2 2.2-.5 4.8-5 7.6ZM212.7 98.3a11.7 11.7 0 0 1-8.2 14.2 11.7 11.7 0 0 1-14.3-8.2l-2-7.8a11.7 11.7 0 0 1 8.2-14.3 11.7 11.7 0 0 1 14.2 8.3l2.1 7.8Z"/><path fill="#00396A" d="M211.6 94c-.8 2.5-2.1 5-4 6.7-4.8 4-11.9 5.2-17.7 2.8l.1.8c1.7 6.1 8.1 9.8 14.3 8.2 6.1-1.6 9.9-8 8.3-14.2l-1-4.2Z"/><path fill="#00396A" d="M190 103.8c-4.3-2.8-9-13.5-2.2-15.9 4.2-1.4 2.6 11.7 2.6 15.4l-.4.5Z"/><path fill="#00396A" d="M186.6 88.9C181.3 85 188 74 201.1 74c8 0 8 6.2 2.4 9.6-4.7 2.8-11.8 1.1-15.4 5.8l-1.5-.6Z"/><path fill="#00396A" d="M211.6 96.5c-1.8-2.8-5.5-8.4-7-11.7-1-2-2-5.5 2-3 3.4 2 5.1 9.3 5 13v1.7Z"/><path fill="#006091" d="M119.3 122.4c-2 1.8-4.2 3.6-6 5.7l-26.2 54.8 19.6-25.2 20.7-43c-2.8 2.7-5.3 5.3-8.1 7.7ZM103.6 113.3c2-2.6 3.7-5.6 6-8.4l-46-22.3-43.7 4.3 76.6 35.3c2.4-2.9 5-5.8 7-8.9Z"/><path fill="#00AFE2" d="M110.2 105.4c-2.4 3-4.3 6.6-6.8 9.5l-6.3 7.7 34.8 16 12.7-16.5-34.4-16.7Z"/><path fill="#0076AD" d="m57.8 169.2 13.6-28.3L.6 107 12 83.4l116.4-68.7L160 30l-46.6 97.6 19.2 9.2-13 27.4-19.3-9.3-13.5 28.2-29.1-14Zm52.4-109.5-1.7-.8L46 95.4l38.2 18.3 26-54Z"/><path fill="#006091" d="m132.7 136.8 11.9-14.7-9.3 20.4-16 22.5 13.4-28.2ZM128.2 114l46-100.7-14 16.7-46.7 97.6 14.7-13.6Z"/><path fill="#009EE7" d="m12 83.4 20.7-18.2L146.5 0l-18.1 14.7L12 83.4Z"/><path fill="#00D2FD" d="M128.4 14.7 160.3 30l13.9-16.7L146.5 0l-18.1 14.7Z"/><path fill="#00A4E2" d="M89.3 88.2c-3.8-2.7-6.6-1.6-8.4-1.3-2 .4-3.5-.8-3.5-.8a2 2 0 0 0-2.6.5 2 2 0 0 0 .5 2.6c.1 0 1.6 1.1 4.5 1.8l-6.3 6.3c-.7.8-.7 2 .1 2.6.4.3.9.5 1.3.5.5 0 1-.2 1.3-.7l4.6-4.7a63 63 0 0 0-4.7 6.3c-.7.9-.4 2 .5 2.6.3.2.6.4 1 .4a2 2 0 0 0 1.5-.8l4.6-6c-.7 1.1-1.3 2.6-3 5a2 2 0 0 0 .7 2.6l1 .3c.6 0 1.1-.3 1.6-.8l1.6-2.6a2 2 0 0 0 .7 2.3c.3.1.6.3 1 .3.6 0 1-.3 1.4-.8 1.8-2.6 2.6-4.7 3-6.5.9-5.2-.4-7.6-2.4-9Zm-3.5 13 1.4-2.6-1.4 2.6Z"/><path fill="#00396A" d="M33.7 109c-5.9-.4-14.1 11-5.6 14-7.7-.1-9.7 10.9-2.5 13.8-12.5-2.4-11 13.8-5.2 19.6-4-.7-8.1 3.2-7.5 7.3.7 4.2 2.3 10 12.7 13 10.3 3.2 16.6-2.7 21.8-8.2 3.3 6.8 19.6-2.4 17.8-10.3 6.2 2 11.7-4.9 11.8-10.4.2-5.5-3.7-9.5-7.2-13.1 2.5-2.3 3-6.6 2.4-10-1.1-5.5-8-6-8-10.4 0-1.5.4-6.3-1-8.4-2-3.4-5.6-6.7-10.1-5-19.4-9.1-19.4 8-19.4 8Z"/><path fill="#002E4F" d="M44.8 286c-5.2-1-6.1-.7-11.3-2l-12 14.7h46.6L41 291.4l4-5.5ZM131.6 290.1l-2.7-3.5c-2.5 1.6-5 2.9-8 3.8l7.3 8.3h27.4l-24-8.6Z"/><path fill="#002E4F" d="M28.5 286c5.2 1.2 10.5 2.5 15.7 3.5L82.7 242l-6.6-18.7-26.9-31.1 7.8 44L28.5 286Z"/><path fill="#00396A" d="M81 179c-10.6-2.7-25 .9-35.2 4.8 0 0 6.3 25 10.5 32.5 12 21.9 64.3 76.3 64.3 76.3 3-1 8.4-5 10.8-6.7L81 179.1Z"/><path fill="#CDE5E8" d="M44.3 193.5c10.2-4 30.6-10.4 41.2-7.6 0 0-14-32.7-20.3-39.9-4.2-4.8-27.5-18.6-27.5-.6 0 24.4 6.6 48 6.6 48Z"/><path fill="#00A4E2" d="m53.4 143.8-.5.1c-3 .8-6.3-1-7.1-4-.8-3.3-1-7.3-1-7.8 0-3.2 2.6-5.8 5.9-5.8 3.2 0 5.8 2.6 5.8 5.8 0 1.1.1 3.4.5 4.9 1 2.7-.7 5.8-3.6 6.8Z"/><path fill="#0086CF" d="M57.3 138c0-.5 0-.9-.2-1.4a26 26 0 0 1-.5-4.8c0-3.3-2.5-5.8-5.8-5.8a5.8 5.8 0 0 0-5.8 5.8v.5c2.7 3.5 7.6 5 12.3 5.6Z"/><path fill="#00A4E2" d="M63 120.6a11 11 0 0 1-7.2 14 11 11 0 0 1-13.9-7.2l-2.4-7.3a11 11 0 0 1 7.1-13.9 11 11 0 0 1 14 7.1l2.4 7.3Z"/><path fill="#00A4E2" d="M127.9 114.6c-.2-.1-.5-.3-.8-.3l.8-1c.6-.8.6-2-.2-2.6l-.3-.1c.5-.8.5-1.8-.3-2.5-.5-.4-1.3-.6-2-.3.8-.8 1.3-1.4 1.5-1.4.6-.8.6-2-.2-2.6-.8-.7-2-.7-2.6.1 0 0-4 4.6-8 6.8-1.8-2.7-4.3-3.5-4.3-3.7-1-.3-2 .2-2.2 1a2 2 0 0 0 1 2.4s1.4.7 2.5 2.3l-.5 1.6a55.2 55.2 0 0 1-63.6 23 6 6 0 0 0-8 3.6 6.2 6.2 0 0 0 3.6 8 69.3 69.3 0 0 0 29.5 3 75 75 0 0 0 49-29.7c.4-.1.7-.3 1.2-.8.3-.1.6-.5 1-.6 1-.8 2-2 3.4-3.4.5-1 .3-2.1-.5-2.8Z"/><path fill="#E1F3F6" d="m78.5 137.3-1.5.3c-3.7.8-7.4 1.1-11.3 1.1-9.4 0-15.9-2.4-16.7-2.5-.8-.4-1.7-.5-2.6-.5-3 0-5.6 1.8-6.8 4.7-.6 1.7-.8 3.9.2 5.5 3.6 6.3 13.3 8.9 26 8.9 2.7 0 5.3-.2 8-.5l5-.8 1.2-.3s-1.5-4.6-1.8-9.3c-.2-1.6.3-6.6.3-6.6Z"/><path fill="#00396A" d="M39.5 126c3.9-2.5 5.2-7 4.7-11.5 3.4 2.2 6 .8 8-3.1 6.4 8.9 16.1-4.4 3-9-10.5-4-20.9 6.6-18.3 17l2.6 6.6Z"/></g><defs><clipPath id="a"><path fill="#fff" d="M.6 0h565.2v300H.6z"/></clipPath></defs></svg>