<svg xmlns="http://www.w3.org/2000/svg">
    <symbol id="watch">
        <path
            d="M18.5 31.2c7.26 0 13.2-5.94 13.2-13.2 0-7.26-5.94-13.2-13.2-13.2-7.26 0-13.2 5.94-13.2 13.2 0 7.26 5.94 13.2 13.2 13.2Zm0-29.7C27.57 1.5 35 8.93 35 18s-7.43 16.5-16.5 16.5S2 27.07 2 18 9.43 1.5 18.5 1.5Zm8.25 19.64-1.16 2.14-8.74-4.79V9.76h2.47v7.26l7.43 4.13Z" />
    </symbol>

    <symbol id="expand">
        <path
            d="m23.93 13.97 8.59-8.56-.03 4.85c0 .4.31.76.72.75h.51c.4-.01.74-.25.75-.66l.02-7.23s-.03 0-.03-.02l.04-.36c0-.2-.04-.39-.17-.52a.69.69 0 0 0-.52-.2h-.36l-.02.01L26.27 2c-.4 0-.74.34-.75.75v.51c.06.48.43.76.84.75l4.72.01-8.56 8.53a1 1 0 1 0 1.41 1.42ZM13.1 22.03l-8.59 8.53.03-4.82c0-.4-.31-.76-.72-.75h-.54c-.4.01-.74.25-.75.66l-.02 7.23s.03 0 .03.02l-.04.36c0 .2.04.39.17.52s.32.2.52.2h.36l.02-.01 7.2.03c.4-.01.73-.34.74-.75v-.51a.82.82 0 0 0-.84-.75l-4.72-.01 8.56-8.53a1 1 0 0 0 0-1.42 1 1 0 0 0-1.4 0ZM34.5 32.88l-.02-7.23c-.01-.4-.35-.65-.75-.66h-.51c-.4 0-.73.34-.72.75l.03 4.85-8.6-8.56a1 1 0 0 0-1.4 0 1 1 0 0 0 0 1.42l8.56 8.53h-4.72c-.4 0-.78.28-.84.76v.51c0 .4.34.74.75.75l7.16-.03h.02l.36.01c.2 0 .39-.07.52-.2s.17-.32.17-.52l-.04-.37.03-.01ZM5.95 4.02l4.73-.01c.4 0 .77-.27.83-.75v-.51a.77.77 0 0 0-.74-.75l-7.2.03h-.02l-.36-.01c-.2 0-.39.07-.52.2s-.17.32-.17.52l.04.36-.03.02.02 7.23c.01.4.35.65.75.66h.54c.4 0 .73-.34.72-.75L4.5 5.43l8.6 8.54a1 1 0 0 0 1.4 0 1 1 0 0 0 0-1.42L5.96 4.02Z" />
    </symbol>

    <symbol id="desktop">
        <path fill="none" stroke-width="3"
            d="M5.54 34.5h25.92M18.5 25.07v9.43M2 3.86V22.7a2.36 2.36 0 0 0 2.36 2.36h28.28A2.36 2.36 0 0 0 35 22.71V3.86a2.36 2.36 0 0 0-2.36-2.36H4.36A2.36 2.36 0 0 0 2 3.86Z" />
    </symbol>

    <symbol id="group">
        <path fill="none" stroke-linecap="round" stroke-linejoin="round" stroke-width="3"
            d="M13.2 16.2a7.1 7.1 0 1 0 0-14.2 7.1 7.1 0 0 0 0 14.2ZM2.5 34v-3.6a7.1 7.1 0 0 1 7.1-7h7.1a7.1 7.1 0 0 1 7.1 7V34M25.6 2.2a7.1 7.1 0 0 1 0 13.8M34.5 34v-3.6a7.1 7.1 0 0 0-5.3-6.8" />
    </symbol>
</svg>