<svg xmlns="http://www.w3.org/2000/svg">
    <symbol id="vk" viewBox="0 0 24 24">
        <path
            d="M12.08 5.72c-1.18-.01-2.18 0-2.74.28-.38.18-.67.6-.5.62.23.03.72.13.98.5.34.45.33 1.5.33 1.5s.2 2.85-.45 3.2c-.45.25-1.06-.25-2.38-2.52-.67-1.17-1.18-2.45-1.18-2.45s-.1-.25-.27-.38c-.21-.15-.51-.2-.51-.2l-3.14.01s-.48 0-.65.21c-.15.18-.01.55-.01.55s2.46 5.74 5.25 8.64c2.56 2.67 5.46 2.42 5.46 2.42h1.31s.4.03.6-.2c.19-.2.18-.5.18-.5s-.02-1.78.8-2.04c.8-.25 1.84 1.71 2.94 2.47.83.57 1.46.44 1.46.44l2.94-.03s1.53-.1.8-1.32c-.05-.1-.42-.9-2.18-2.53-1.84-1.71-1.6-1.43.63-4.4 1.35-1.8 1.89-2.9 1.72-3.37-.16-.45-1.16-.33-1.16-.33l-3.3.02s-.25-.04-.43.07c-.18.1-.3.36-.3.36s-.52 1.4-1.22 2.58c-1.47 2.5-2.06 2.64-2.3 2.48-.56-.36-.42-1.45-.42-2.23 0-2.43.37-3.44-.72-3.7a5.64 5.64 0 0 0-1.54-.15Z" />
    </symbol>

    <symbol id="telegram" viewBox="0 0 24 24">
        <path
            d="M22.48 2.89a4.05 4.05 0 0 0-1.73.31c-1.2.44-16.7 7.02-17.6 7.4-.85.36-1.65.75-1.65 1.32 0 .4.24.63.9.86.67.24 2.4.76 3.4 1.04.98.27 2.1.04 2.71-.35.66-.4 8.28-5.5 8.83-5.95.55-.45.98.12.54.57-.45.45-5.68 5.52-6.37 6.23-.84.85-.24 1.73.32 2.09.64.4 5.25 3.5 5.95 4 .7.5 1.4.71 2.04.71.65 0 .99-.85 1.31-1.83.38-1.16 2.14-12.67 2.36-14.94.06-.68-.15-1.14-.58-1.35-.13-.06-.27-.1-.43-.11Z" />
    </symbol>

</svg>