<svg xmlns="http://www.w3.org/2000/svg" width="508" height="400" fill="none"><g clip-path="url(#a)"><path fill="#0F2534" d="M82.02 124.09c-.31 0-.52-.22-.52-.53V50.19c0-.32.2-.53.52-.53h60.68c.31 0 .53.2.53.53 0 .31-.22.52-.53.52H82.55v72.85c0 .31-.2.53-.53.53Z"/><path fill="#fff" d="M189.31 57.07h-100v86.71h100V57.07Z"/><path fill="url(#b)" d="M189.31 57.07h-100v8.04h100v-8.04Z"/><path fill="#0F2534" d="M189.31 65.64h-100c-.3 0-.52-.2-.52-.53v-8.04c0-.32.21-.53.53-.53h100c.3 0 .52.21.52.53v8.04c0 .32-.21.53-.53.53Zm-99.46-1.06h98.93V57.6H89.85v6.98ZM465.82 124.09c-.31 0-.52-.22-.52-.53V50.7h-60.04c-.32 0-.53-.2-.53-.52s.21-.53.53-.53h60.56c.32 0 .53.2.53.53v73.37c0 .31-.2.53-.53.53Z"/><path fill="#fff" d="M458.53 57.07h-100v86.71h100V57.07Z"/><path fill="url(#c)" d="M458.53 57.07h-100v8.04h100v-8.04Z"/><path fill="#0F2534" d="M458.53 65.64h-100c-.3 0-.52-.2-.52-.53v-8.04c0-.32.21-.53.53-.53h100c.3 0 .52.21.52.53v8.04c0 .32-.21.53-.53.53Zm-99.46-1.06H458V57.6h-98.93v6.98Z"/><path fill="url(#d)" d="M93.02 42.03V8.58a33.43 33.43 0 0 0-33.4 33.45 33.43 33.43 0 0 0 33.4 33.46c18.5 0 33.4-15.03 33.4-33.46h-33.4Z"/><path fill="#0F2534" d="M93.02 76.02a34 34 0 0 1 0-67.97c.31 0 .53.2.53.53V41.5h32.87c.32 0 .53.22.53.53a34 34 0 0 1-33.93 33.99ZM92.49 9.1c-17.86.2-32.35 14.92-32.35 32.92a32.94 32.94 0 0 0 32.88 32.93 32.96 32.96 0 0 0 32.87-32.4H93.02c-.32 0-.53-.21-.53-.53V9.11Z"/><path fill="url(#e)" d="M119.97 33.03c0-9.95-8.03-18-17.97-18v18h17.97Z"/><path fill="#0F2534" d="M119.97 33.56H102c-.31 0-.53-.2-.53-.53v-18c0-.31.22-.52.53-.52 10.15 0 18.5 8.25 18.5 18.52 0 .22-.32.53-.53.53Zm-17.44-1.06h16.91a17.55 17.55 0 0 0-16.91-16.94V32.5Z"/><path fill="url(#f)" d="M290.26 26.05h15.64c0-8.69-6.98-15.67-15.64-15.67a15.62 15.62 0 0 0-15.65 15.67c0 8.68 6.98 15.67 15.65 15.67V26.05Z"/><path fill="#0F2534" d="M290.26 42.24c-8.88 0-16.18-7.3-16.18-16.2 0-8.89 7.3-16.2 16.18-16.2 8.87 0 16.17 7.31 16.17 16.2 0 .32-.21.53-.53.53h-15.12v15.15c0 .31-.2.52-.52.52Zm0-31.33a15.12 15.12 0 0 0-15.12 15.14c0 8.15 6.45 14.82 14.59 15.14V26.05c0-.32.2-.53.53-.53h15.11a15.23 15.23 0 0 0-15.11-14.61Z"/><path fill="url(#g)" d="M294.48 38.75a8.38 8.38 0 0 0 8.35-8.36h-8.35v8.36Z"/><path fill="#0F2534" d="M294.48 39.28c-.31 0-.53-.21-.53-.53V30.4c0-.32.22-.53.53-.53h8.35c.32 0 .53.2.53.53 0 4.87-3.9 8.89-8.88 8.89Zm.53-8.47v7.3a7.76 7.76 0 0 0 7.3-7.3H295Z"/><path fill="url(#h)" d="M203.05 80.36c0-9.1 6.55-16.62 15.12-18.1l-.74-4.24a22.6 22.6 0 0 0-18.5 26.15l4.33-.74c-.1-1.06-.2-2.12-.2-3.07Z"/><path fill="#0F2534" d="M199.03 84.6c-.2 0-.52-.22-.52-.43a23.3 23.3 0 0 1 18.92-26.79c.1 0 .31 0 .42.11.1.1.21.21.21.32l.74 4.23c0 .32-.1.53-.42.64a17.73 17.73 0 0 0-14.7 17.57c0 .96.11 1.91.32 2.97 0 .32-.1.53-.42.63l-4.55.75Zm18.08-26.05a22.16 22.16 0 0 0-17.65 24.88l3.28-.53c-.11-.95-.22-1.8-.22-2.65 0-9 6.34-16.72 15.12-18.52l-.53-3.18Z"/><path fill="url(#i)" d="M243.85 81.1c0-1.48 0-3.07-.31-4.55.31 1.48.42 3.07.31 4.55Z"/><path fill="#0F2534" d="M243.85 81.63c-.31 0-.53-.21-.53-.53v-.74c0-1.27-.1-2.54-.31-3.7v-.11c0-.21.2-.53.42-.53.32 0 .53.1.63.42.22 1.27.32 2.65.32 3.92v.74c0 .32-.21.53-.53.53Z"/><path fill="url(#j)" d="M243.64 76.55a22.56 22.56 0 0 0-26.1-18.53l.73 4.24c1.06-.22 2.12-.32 3.28-.32a18.44 18.44 0 0 1 2.96 36.63l.74 4.13a22.94 22.94 0 0 0 18.92-21.6c-.21-1.48-.32-3.07-.53-4.55Z"/><path fill="#0F2534" d="M225.04 103.23c-.1 0-.21 0-.32-.1-.1-.11-.21-.22-.21-.32l-.74-4.13c0-.1 0-.32.1-.43.11-.1.22-.2.32-.2a17.78 17.78 0 0 0 15.01-17.69c0-9.85-8.03-17.9-17.86-17.9-.95 0-2.01.11-3.17.32-.1 0-.32 0-.43-.1-.1-.1-.2-.21-.2-.32l-.75-4.23c0-.32.1-.53.43-.64a23.27 23.27 0 0 1 26.74 18.95c.21 1.6.31 3.18.31 4.66s-.2 3.07-.63 4.55c-2 9.1-9.3 16-18.6 17.58.1 0 .1 0 0 0Zm-.1-4.34.52 3.07a22.16 22.16 0 0 0 17.33-16.62c.32-1.38.53-2.86.53-4.34 0-1.49 0-2.97-.31-4.45a21.88 21.88 0 0 0-8.99-14.3 21.98 21.98 0 0 0-15.96-3.8l.53 3.17c.95-.1 1.9-.21 2.75-.21a18.92 18.92 0 0 1 18.92 18.95c.1 9.1-6.34 16.83-15.33 18.53Z"/><path fill="url(#k)" d="M446.8 46.7c1.06-9 8.35-15.78 17.12-16.31l-.2-4.24a22.54 22.54 0 0 0-21.36 23.82l4.44-.2c-.1-1.07-.1-2.13 0-3.08Z"/><path fill="#0F2534" d="M442.36 50.5c-.1 0-.21 0-.32-.1-.1-.1-.2-.21-.2-.32a23.2 23.2 0 0 1 21.87-24.46c.32 0 .53.21.53.53l.21 4.24c0 .31-.21.53-.53.53a17.77 17.77 0 0 0-16.6 15.77c-.1.95-.1 1.9-.1 2.97 0 .31-.21.53-.53.53l-4.33.31Zm20.82-23.82a22.21 22.21 0 0 0-20.4 22.76l3.39-.2c0-.96 0-1.8.1-2.65 1.06-9 8.14-15.89 17.12-16.73l-.2-3.18Z"/><path fill="url(#l)" d="M487.28 52.1c.21-1.5.32-3.08.21-4.56.11 1.48.11 3.07-.2 4.55Z"/><path fill="#0F2534" d="M487.28 52.62c-.31 0-.53-.32-.53-.53V52c0-.22 0-.32.11-.53.1-.96.21-2.02.21-3.07v-.96c0-.32.21-.53.53-.53.32 0 .53.21.53.53v1.27c0 .74 0 1.6-.1 2.33 0 .43-.11.74-.11 1.06-.1.32-.32.53-.64.53Z"/><path fill="url(#m)" d="M487.5 47.54a22.53 22.53 0 0 0-23.79-21.39l.21 4.24c1.06-.1 2.12-.1 3.28.1a18.45 18.45 0 0 1-1.27 36.74l.21 4.24a22.65 22.65 0 0 0 20.09-14.93 20.1 20.1 0 0 0 1.05-4.34c.32-1.6.32-3.18.21-4.66Z"/><path fill="#0F2534" d="M466.14 71.89c-.1 0-.2 0-.31-.1-.11-.11-.22-.22-.22-.32l-.2-4.24c0-.1 0-.32.1-.42.1-.1.2-.21.31-.21a17.8 17.8 0 0 0 16.92-15.78 17.8 17.8 0 0 0-15.75-19.8c-.95-.1-2.01-.1-3.17-.1-.1 0-.32 0-.43-.11-.1-.1-.2-.21-.2-.32l-.22-4.23c0-.1 0-.32.1-.43.11-.1.22-.2.32-.2a23.06 23.06 0 0 1 16.7 5.92 22.77 22.77 0 0 1 7.62 15.99c.1 1.59 0 3.17-.22 4.66a23.01 23.01 0 0 1-1.16 4.44c-2.75 8.69-10.78 14.72-20.19 15.25Zm.32-4.24.21 3.18a21.93 21.93 0 0 0 19.03-14.61c.53-1.38.84-2.75 1.05-4.23.21-1.49.32-2.97.21-4.45a22.04 22.04 0 0 0-22.72-20.86l.21 3.18c.95 0 1.9 0 2.75.1a19 19 0 0 1 16.7 20.97 18.86 18.86 0 0 1-17.44 16.72ZM169.44 44.36a.8.8 0 0 1-.42-.21l-19.35-19.9a.51.51 0 0 1 0-.75.51.51 0 0 1 .74 0l18.92 19.6 20.93-19.7c.21-.21.53-.21.64 0l24.94 19.37c.21.22.32.53.1.75-.2.2-.52.31-.73.1l-24.53-19.06-20.92 19.7c-.11 0-.22.1-.32.1Z"/><path fill="url(#n)" d="M155.38 23.82c0 2.97-2.32 5.3-5.28 5.3a5.24 5.24 0 0 1-5.29-5.3c0-2.96 2.33-5.3 5.29-5.3a5.24 5.24 0 0 1 5.28 5.3Z"/><path fill="#0F2534" d="M150.1 29.65a5.87 5.87 0 0 1-5.82-5.83A5.87 5.87 0 0 1 150.1 18a5.87 5.87 0 0 1 5.8 5.82 5.87 5.87 0 0 1-5.8 5.83Zm0-10.6a4.74 4.74 0 0 0-4.76 4.77 4.74 4.74 0 0 0 4.76 4.77 4.74 4.74 0 0 0 4.75-4.77 4.74 4.74 0 0 0-4.75-4.76Z"/><path fill="url(#o)" d="M195.97 23.82c0 2.97-2.32 5.3-5.28 5.3a5.24 5.24 0 0 1-5.29-5.3c0-2.96 2.32-5.3 5.28-5.3a5.24 5.24 0 0 1 5.29 5.3Z"/><path fill="#0F2534" d="M190.58 29.65a5.87 5.87 0 0 1-5.81-5.83 5.87 5.87 0 0 1 5.8-5.82 5.87 5.87 0 0 1 5.82 5.82 5.74 5.74 0 0 1-5.81 5.83Zm0-10.6a4.74 4.74 0 0 0-4.76 4.77 4.74 4.74 0 0 0 4.76 4.77 4.74 4.74 0 0 0 4.76-4.77 4.74 4.74 0 0 0-4.76-4.76Z"/><path fill="url(#p)" d="M174.72 43.2c0 2.96-2.32 5.3-5.28 5.3a5.24 5.24 0 0 1-5.29-5.3c0-2.97 2.33-5.3 5.29-5.3a5.3 5.3 0 0 1 5.28 5.3Z"/><path fill="#0F2534" d="M169.44 49.02a5.87 5.87 0 0 1-5.81-5.82 5.87 5.87 0 0 1 5.8-5.83 5.87 5.87 0 0 1 5.82 5.83 5.87 5.87 0 0 1-5.81 5.82Zm0-10.59a4.74 4.74 0 0 0-4.76 4.77 4.74 4.74 0 0 0 4.76 4.76 4.74 4.74 0 0 0 4.75-4.76 4.8 4.8 0 0 0-4.75-4.77Z"/><path fill="url(#q)" d="M220.81 43.2c0 2.96-2.33 5.3-5.28 5.3a5.24 5.24 0 0 1-5.29-5.3c0-2.97 2.32-5.3 5.28-5.3a5.24 5.24 0 0 1 5.29 5.3Z"/><path fill="#0F2534" d="M215.53 49.02a5.87 5.87 0 0 1-5.82-5.82 5.87 5.87 0 0 1 5.81-5.83 5.87 5.87 0 0 1 5.82 5.83 5.87 5.87 0 0 1-5.81 5.82Zm0-10.59a4.74 4.74 0 0 0-4.76 4.77 4.74 4.74 0 0 0 4.75 4.76 4.74 4.74 0 0 0 4.76-4.76 4.74 4.74 0 0 0-4.75-4.77ZM259.07 94.12a5.56 5.56 0 0 0 1.8-1.69c.1-.1.21-.32.21-.32l.21-.32.74-1.37 1.48-2.86 2.96-5.72 5.82-11.43 2.96-5.72 1.48-2.86.2-.42 1.28 1.8 3.59 5.3 7.3 10.47 7.29 10.49 3.59 5.29.21.32v.2l.1.22.32.32a4.6 4.6 0 0 0 5.5.74 6.05 6.05 0 0 0 1.48-1.38.8.8 0 0 0 .21-.42l.1-.21.22-.32.74-1.38c4.12-7.4 8.24-14.93 12.26-22.44l6.13-11.23 4.76-8.78 1.9 10.48a2.49 2.49 0 0 0 2.43 2.01h.42a2.5 2.5 0 0 0 2.01-2.86l-3.7-20.22-17.44 6.56a2.56 2.56 0 0 0-1.48 3.18 2.56 2.56 0 0 0 3.17 1.48l8.25-3.07-4.97 8.79-6.24 11.22c-4.12 7.41-8.35 14.93-12.47 22.34l-.32.64-3.06-4.45-7.3-10.48-7.29-10.48-3.6-5.3-1.79-2.64-.21-.32-.1-.21-.11-.1-.1-.22a4.67 4.67 0 0 0-1.6-1.27 4.59 4.59 0 0 0-3.9.1c-.64.32-1.17.75-1.59 1.38-.1.1-.21.32-.32.42l-.1.22v.1l-.21.32-.74 1.38-1.48 2.86-2.86 5.71-5.81 11.44-2.85 5.71"/><path fill="#0F2534" d="M303.9 97.72c-.54 0-1.17-.1-1.7-.31a4.42 4.42 0 0 1-1.9-1.17c-.1-.1-.21-.32-.43-.42l-.52-.64-22.52-32.71-15.32 29.85s-.11.22-.22.32c-.1.1-.2.32-.31.43a4.98 4.98 0 0 1-1.59 1.37c-.21.1-.53 0-.74-.21-.1-.21 0-.53.21-.74.53-.32.95-.64 1.27-1.06.1-.1.21-.21.21-.32.1-.1.1-.21.21-.32l15.75-30.7c.1-.21.21-.32.43-.32.2 0 .31.1.42.21l23.57 34 .32.3c.42.43.95.75 1.48.96 1.16.42 2.32.32 3.38-.32a4.5 4.5 0 0 0 1.27-1.16c.1-.1.2-.21.2-.42l1.07-1.91c2.85-5.19 5.7-10.38 8.56-15.67l14.58-26.79c.11-.2.32-.31.53-.31.21 0 .43.2.43.42l1.9 10.48c.21.95.95 1.59 1.9 1.59h.42c1.06-.21 1.8-1.17 1.59-2.22l-3.6-19.6-16.8 6.36c-.53.21-.85.53-1.06 1.06-.2.42-.2.95 0 1.48.43 1.06 1.48 1.48 2.54 1.17l8.24-3.07c.21-.1.43 0 .64.1.1.21.2.43.1.64l-15 26.78c-2.86 5.2-5.82 10.38-8.67 15.57l-.32.63c-.1.22-.21.22-.42.32-.21 0-.32-.1-.43-.21l-23.67-34.2a4.37 4.37 0 0 0-1.38-1.06 4.03 4.03 0 0 0-4.86 1.27c-.1.1-.1.21-.21.32l-.32.64-13.63 27.1c-.1.21-.43.32-.74.21-.21-.1-.32-.42-.21-.74l13.84-27.53s0-.1.1-.1l.11-.21c.1-.22.21-.32.32-.53a4.52 4.52 0 0 1 1.7-1.49 5.03 5.03 0 0 1 6.23 1.27l.31 1.06L303.8 89.9c2.85-5.19 5.7-10.27 8.56-15.46l14.27-25.62-6.87 2.65c-1.59.63-3.28-.22-3.92-1.8a3.11 3.11 0 0 1 1.8-3.92l17.44-6.57c.1-.1.32 0 .43 0 .1.11.2.22.2.32l3.7 20.22a2.99 2.99 0 0 1-2.42 3.5h-.53a3.06 3.06 0 0 1-2.96-2.44l-1.59-9-13.95 25.52c-2.85 5.19-5.7 10.48-8.56 15.67l-1.06 1.9c-.1.11-.21.32-.32.43a4.24 4.24 0 0 1-1.58 1.48c-.74.64-1.7.95-2.54.95Z"/><path fill="url(#r)" d="M259.18 92.43a5.56 5.56 0 0 0 1.8-1.7c.1-.1.2-.31.2-.31l.22-.32.74-1.38 1.48-2.85 2.96-5.72 5.81-11.44 2.96-5.71 1.48-2.86.21-.43 1.27 1.8 3.6 5.3 7.29 10.48 7.3 10.48 3.59 5.3.2.31.11.1.1.22.33.32a4.6 4.6 0 0 0 5.5.74 6.03 6.03 0 0 0 1.47-1.38.8.8 0 0 0 .21-.42l.1-.21.22-.32.74-1.38c4.12-7.4 8.25-14.93 12.26-22.44l6.13-11.23 4.76-8.78 1.9 10.48a2.49 2.49 0 0 0 2.43 2.01h.43a2.5 2.5 0 0 0 2-2.86l-3.7-20.11-17.44 6.56a2.56 2.56 0 0 0-1.48 3.18 2.56 2.56 0 0 0 3.18 1.48l8.24-3.07-4.97 8.79-6.24 11.22c-4.12 7.41-8.34 14.93-12.47 22.34l-.31.63-3.07-4.44-7.3-10.48-7.29-10.49-3.59-5.3-1.8-2.64-.2-.31-.11-.22-.11-.1-.21-.21a4.67 4.67 0 0 0-1.59-1.27 4.59 4.59 0 0 0-3.9.1c-.64.32-1.17.74-1.6 1.38-.1.1-.2.31-.31.42l-.1.21v.1l-.22.33-.74 1.37-1.48 2.86-2.85 5.72-5.81 11.43-2.86 5.72"/><path fill="#0F2534" d="M303.9 96.03c-.54 0-1.17-.1-1.7-.32a4.42 4.42 0 0 1-1.9-1.16c-.1-.1-.21-.32-.43-.43l-.52-.63-22.62-32.61-15.33 29.86s-.1.2-.21.31c-.1.1-.21.32-.32.43a4.99 4.99 0 0 1-1.58 1.37c-.22.1-.53 0-.75-.2-.1-.22 0-.54.22-.75a4.24 4.24 0 0 0 1.48-1.38c.1-.1.1-.2.2-.31l15.76-30.7c.1-.22.2-.33.42-.33.21 0 .32.11.42.22l23.57 33.98.32.32c.42.42.95.74 1.48.95 1.16.43 2.33.32 3.38-.31.53-.32.95-.75 1.27-1.17.1-.1.21-.21.21-.42l1.06-1.9 8.56-15.57 14.7-26.9c.1-.2.31-.31.52-.31.21 0 .43.2.43.42l1.9 10.48c.21.96.95 1.6 1.9 1.6h.42c.53-.11.95-.43 1.27-.86.32-.42.43-.95.32-1.48l-3.6-19.59-16.8 6.36c-.53.2-.85.53-1.06 1.06-.2.42-.2.95 0 1.48.43 1.06 1.48 1.48 2.54 1.16l8.24-3.07c.21-.1.43 0 .64.1.1.22.2.43.1.64l-14.9 26.68c-2.96 5.2-5.81 10.49-8.77 15.67l-.32.64c-.1.21-.21.21-.42.32-.21 0-.32-.1-.43-.21l-23.67-34.2c-.43-.43-.85-.85-1.38-1.06a4.03 4.03 0 0 0-4.86 1.27c-.1.1-.1.21-.21.32l-.32.63-13.63 27.1c-.1.22-.43.32-.74.22-.21-.1-.32-.43-.21-.74l13.84-27.53s0-.1.1-.1l.11-.22c.1-.21.21-.32.32-.53a4.52 4.52 0 0 1 1.7-1.48 5.03 5.03 0 0 1 6.23 1.27l.63.85 22.62 32.71c2.86-5.18 5.82-10.37 8.67-15.56L327.04 47l-6.87 2.65c-1.59.63-3.28-.22-3.91-1.8a3.11 3.11 0 0 1 1.8-3.92l17.44-6.57c.1-.1.31 0 .42 0 .1.11.21.22.21.32l3.7 20.22c.1.75 0 1.6-.53 2.23a3.4 3.4 0 0 1-1.9 1.27h-.53a3.06 3.06 0 0 1-2.96-2.44l-1.59-9-13.95 25.63-8.56 15.56-1.06 1.9c-.1.11-.2.32-.31.43a4.24 4.24 0 0 1-1.59 1.48 4.81 4.81 0 0 1-2.96 1.06Z"/><path fill="url(#s)" d="M376.08 14.61h-13v31.66h13V14.6Z"/><path fill="#0F2534" d="M376.08 46.7h-13c-.31 0-.52-.22-.52-.54V14.61c0-.32.2-.53.52-.53h13c.32 0 .53.21.53.53v31.66c0 .21-.2.42-.53.42Zm-12.47-1.07h11.95V15.14H363.6v30.5Z"/><path fill="url(#t)" d="M397.01.53h-13v45.63h13V.53Z"/><path fill="#0F2534" d="M396.9 46.7h-13c-.31 0-.52-.22-.52-.54V.53c0-.32.21-.53.53-.53h13c.31 0 .53.21.53.53v45.63c0 .32-.21.53-.53.53Zm-12.36-1.07h11.84V1.06h-11.94v44.57h.1Z"/><path fill="url(#u)" d="M415.72 19.9h-13v26.26h13V19.9Z"/><path fill="#0F2534" d="M415.72 46.7h-13c-.32 0-.53-.22-.53-.54V19.9c0-.31.21-.52.53-.52h13c.32 0 .53.2.53.52v26.26c0 .32-.21.53-.53.53Zm-12.47-1.07h11.94v-25.2h-11.94v25.2ZM231.9 312.55c0 6.98-5.38 32.82-13.73 35.89l108.87-.74c-7.19-2.65-11.73-27.53-11.73-33.46v-4.55h-83.4v2.86ZM423.97 77.92H121.13a10.5 10.5 0 0 0-10.35 10.6v189.4h323.55V88.53a10.5 10.5 0 0 0-10.36-10.6Z"/><path fill="#fff" d="M110.78 280.57V299.31c0 5.72 4.65 10.38 10.35 10.38H423.97c5.7 0 10.36-4.66 10.36-10.38V277.93H110.77v2.64Z"/><path fill="#0F2534" d="M423.97 310.22H121.13a10.88 10.88 0 0 1-10.88-10.9v-21.29c0-.32.2-.53.53-.53h323.55c.31 0 .53.21.53.53v21.28c0 5.93-4.87 10.9-10.9 10.9ZM111.3 278.56v20.75c0 5.4 4.44 9.85 9.83 9.85h302.73c5.4 0 9.83-4.45 9.83-9.85v-20.75H111.3Z"/><path fill="#fff" d="M406.31 266.17H138.8c-5.08 0-9.2-3.92-9.2-8.68V100.26c0-4.76 4.12-8.68 9.2-8.68H406.3c5.08 0 9.2 3.92 9.2 8.69v157.22c0 4.76-4.12 8.68-9.2 8.68Z"/><path fill="#0F2534" d="M406.31 266.7H138.8c-5.4 0-9.73-4.13-9.73-9.2V100.25c0-5.08 4.34-9.2 9.73-9.2H406.3c5.4 0 9.73 4.12 9.73 9.2V257.5c0 5.08-4.33 9.21-9.73 9.21ZM138.8 92.11c-4.76 0-8.67 3.7-8.67 8.16v157.22c0 4.55 3.9 8.15 8.67 8.15H406.3c4.76 0 8.67-3.7 8.67-8.15V100.26c0-4.55-3.9-8.15-8.67-8.15H138.8Z"/><path fill="#fff" d="M217.96 356.06H366.04l-7.71-4.34a42.67 42.67 0 0 0-20.62-5.3h-130c-7.2 0-14.38 1.8-20.62 5.3l-7.72 4.34h38.59Z"/><path fill="#0F2534" d="M365.94 356.6H179.16c-.2 0-.42-.22-.53-.43-.1-.21 0-.53.22-.64l7.71-4.34a43.68 43.68 0 0 1 20.93-5.4H337.5a44 44 0 0 1 20.93 5.4l7.72 4.34c.21.1.32.32.21.64.1.31-.1.42-.42.42Zm-184.77-1.07h182.76l-5.92-3.28a41.87 41.87 0 0 0-20.4-5.3H207.6c-7.09 0-14.17 1.8-20.4 5.3l-6.03 3.28Z"/><path fill="url(#v)" d="M346.91 157.01a100.76 100.76 0 0 1 28.54 70.41H278l-.74-.74 69.66-69.67Z"/><path fill="#0F2534" d="M375.45 227.95H278c-.1 0-.31-.1-.42-.1l-.74-.75c-.1-.1-.1-.2-.1-.42 0-.21.1-.32.1-.42l69.55-69.67c.1-.1.21-.1.43-.1.1 0 .31.1.42.2a100.95 100.95 0 0 1 28.64 70.73c.1.32-.2.53-.42.53Zm-97.24-1.06h96.6a99.92 99.92 0 0 0-28-69.13l-68.82 68.92.22.21Z"/><path fill="url(#w)" d="M318.16 186.13a59.04 59.04 0 0 1 16.7 41.3h-57.08l-.42-.43 40.8-40.87Z"/><path fill="#0F2534" d="M334.86 227.95h-57.08c-.1 0-.31-.1-.42-.1l-.42-.43c-.1-.1-.1-.21-.1-.42 0-.1.1-.32.1-.43l40.8-40.86c.1-.1.2-.1.42-.1.1 0 .32.1.42.2a59.57 59.57 0 0 1 16.92 41.61c-.11.32-.32.53-.64.53Zm-56.65-1.06h56.12a58.75 58.75 0 0 0-16.17-40.02l-39.95 40.02Z"/><path fill="url(#x)" d="M205.06 154.37a100.7 100.7 0 0 1 67.65-27.85v95.6l-67.65-67.75Z"/><path fill="#0F2534" d="M272.7 222.55c-.1 0-.3-.1-.41-.1l-67.65-67.76c-.1-.11-.1-.22-.1-.43 0-.1.1-.32.2-.42a100.7 100.7 0 0 1 67.97-27.95c.21 0 .32 0 .42.1.1.1.1.21.1.43v95.6c0 .21-.1.43-.3.53h-.22Zm-66.9-68.18 66.38 66.49v-93.8a99.58 99.58 0 0 0-66.38 27.3Z"/><path fill="url(#y)" d="M233.92 183.27a58.01 58.01 0 0 1 38.79-15.99v54.85l-38.8-38.86Z"/><path fill="#0F2534" d="M272.7 222.55c-.1 0-.3-.1-.41-.1l-38.69-38.86c-.1-.1-.1-.21-.1-.42 0-.11.1-.32.2-.43a57.56 57.56 0 0 1 39.12-16.1c.2 0 .31 0 .42.12.1.1.1.2.1.42v54.84c0 .21-.1.43-.31.53h-.32Zm-38.04-39.28 37.52 37.59v-52.94a56.53 56.53 0 0 0-37.52 15.35Z"/><path fill="url(#z)" d="M276.51 126.42c26.22.52 50 11 67.65 27.84l-67.65 67.76v-95.6Z"/><path fill="#0F2534" d="M276.51 222.55h-.2a.58.58 0 0 1-.32-.53v-95.6c0-.11.1-.32.1-.43.1-.1.21-.1.43-.1a100.49 100.49 0 0 1 67.96 27.95c.1.1.21.21.21.42 0 .1-.1.32-.1.43l-67.65 67.76c-.1.1-.32.1-.43.1Zm.53-95.5v93.8l66.38-66.48a99.57 99.57 0 0 0-66.38-27.32Z"/><path fill="url(#A)" d="M276.51 168.03a57.2 57.2 0 0 1 38.27 15.77l-38.26 38.33v-54.1Z"/><path fill="#0F2534" d="M276.51 222.55h-.2a.58.58 0 0 1-.32-.53v-54.1c0-.1.1-.32.1-.42.1-.11.21-.11.43-.11a57.54 57.54 0 0 1 38.58 15.88c.1.1.2.21.2.42 0 .11-.1.32-.1.43l-38.26 38.33c-.1.1-.32.1-.43.1Zm.53-54v52.2l37-37.06a56.56 56.56 0 0 0-37-15.13Z"/><path fill="url(#B)" d="M271.23 227.42h-97.35c0-27.42 10.89-52.2 28.54-70.4l69.55 69.66-.74.74Z"/><path fill="#0F2534" d="M271.23 227.95h-97.35c-.32 0-.53-.21-.53-.53 0-26.57 10.15-51.67 28.65-70.72.1-.1.2-.21.42-.21.1 0 .32.1.42.1l69.55 69.67c.1.1.1.2.1.42 0 .21-.1.32-.1.42l-.74.75c-.2 0-.31.1-.42.1Zm-96.93-1.06h96.61l.21-.2-68.8-68.94a100.88 100.88 0 0 0-28.02 69.14Z"/><path fill="url(#C)" d="M271.44 227.42h-57.08c0-16.1 6.34-30.6 16.7-41.29l40.8 40.87-.42.42Z"/><path fill="#0F2534" d="M271.44 227.95h-57.08c-.32 0-.53-.21-.53-.53a59.38 59.38 0 0 1 16.92-41.6c.1-.11.2-.22.42-.22.1 0 .32.1.42.1l40.8 40.88c.21.2.21.52 0 .74l-.42.42c-.21.1-.32.21-.53.21Zm-56.55-1.06h56.13l-39.96-40.02a58.75 58.75 0 0 0-16.17 40.02Z"/><path fill="#0F2534" d="m249.98 167.39 13.43 56.75h22.09l-34.25-57.28c-.42-.63-1.37-.21-1.27.53Z"/><path fill="#0F2534" d="M285.5 224.78h-22.1c-.2 0-.41-.22-.52-.43l-13.42-56.85c-.11-.64.1-1.17.73-1.38.53-.21 1.17 0 1.49.53l34.24 57.28c.1.21.1.32 0 .53-.1.2-.31.31-.42.31Zm-21.67-1.06h20.72l-33.72-56.54s-.1-.1-.21-.1c-.1 0-.1.1-.1.2l13.31 56.44Z"/><path fill="#fff" d="M292.26 227c0 .1-35.2.1-35.2 0a17.7 17.7 0 0 1 17.66-17.68c9.62.1 17.54 7.94 17.54 17.68Z"/><path fill="#0F2534" d="M274.93 227.74h-12.37c-6.13 0-6.13 0-6.13-.64a18.2 18.2 0 0 1 18.18-18.2 18.2 18.2 0 0 1 18.18 18.2c0 .53 0 .53-5.92.64-3.27-.1-7.6 0-11.94 0Zm-17.34-1.17c3.92.11 30.23.11 34.15 0a17.07 17.07 0 0 0-34.15 0Z"/><path fill="#fff" d="M282.96 225.2c0 .1-16.8.1-16.8 0 0-4.66 3.8-8.37 8.35-8.37 4.75 0 8.45 3.71 8.45 8.37Z"/><path fill="#0F2534" d="M274.72 225.83h-5.82c-3.17 0-3.17 0-3.17-.53a8.87 8.87 0 1 1 17.76 0c0 .53 0 .53-8.77.53Zm-7.93-1.16h15.75a7.87 7.87 0 0 0-7.82-7.41c-4.23.1-7.72 3.39-7.93 7.4Z"/><path fill="#fff" d="M382 223.82H163v9.74h219v-9.74Z"/><path fill="#0F2534" d="M382.11 234.1H162.99c-.32 0-.53-.22-.53-.54v-9.74c0-.32.21-.53.53-.53H382c.32 0 .53.21.53.53v9.74c.1.32-.2.53-.42.53Zm-218.59-1.07h218.06v-8.68H163.52v8.68ZM382 237.06H163v4.87h219v-4.87Z"/><path fill="#0F2534" d="M382.11 242.46H162.99c-.32 0-.53-.22-.53-.53v-4.87c0-.32.21-.53.53-.53H382c.32 0 .53.2.53.53v4.87c.1.2-.2.53-.42.53Zm-218.59-1.06h218.06v-3.81H163.52v3.8ZM274.61 118.16c-.63 0-1.06-.43-1.06-1.06v-8.26c0-.64.43-1.06 1.06-1.06.64 0 1.06.42 1.06 1.06v8.26c0 .63-.42 1.06-1.06 1.06ZM196.08 150.77a.96.96 0 0 1-.74-.32l-5.82-5.82a1.03 1.03 0 0 1 0-1.48 1.02 1.02 0 0 1 1.48 0l5.82 5.82c.42.42.42 1.06 0 1.48-.22.21-.53.32-.74.32Z"/><path fill="#0F2534" d="M196.08 150.77a.96.96 0 0 1-.74-.32l-5.82-5.82a1.03 1.03 0 0 1 0-1.48 1.02 1.02 0 0 1 1.48 0l5.82 5.82c.42.42.42 1.06 0 1.48-.22.21-.53.32-.74.32ZM170.07 191.85c-.1 0-.2 0-.31-.1l-7.72-2.76c-.53-.21-.85-.85-.63-1.38.2-.53.84-.85 1.37-.63l7.72 2.75c.53.21.84.85.63 1.38-.21.42-.63.74-1.06.74ZM375.13 182.1c-.42 0-.74-.2-.95-.63-.2-.53 0-1.16.53-1.38l7.4-3.49c.53-.21 1.16 0 1.37.53.21.53 0 1.16-.52 1.38l-7.4 3.5c-.1 0-.32.1-.43.1ZM353.15 150.77a.96.96 0 0 1-.74-.32 1.02 1.02 0 0 1 0-1.48l5.81-5.82a1.02 1.02 0 0 1 1.48 0c.42.42.42 1.05 0 1.48l-5.81 5.82a.96.96 0 0 1-.74.32ZM317.53 126.84c-.1 0-.32 0-.43-.1-.53-.22-.84-.85-.53-1.38l3.18-7.63c.2-.53.84-.74 1.37-.53.53.22.85.85.53 1.38l-3.17 7.62c-.21.32-.53.64-.95.64ZM232.44 126.52c-.43 0-.85-.21-.95-.63l-3.07-7.63c-.21-.53 0-1.16.53-1.37.53-.22 1.16 0 1.37.53l3.07 7.62c.21.53 0 1.16-.53 1.38-.1.1-.32.1-.42.1Z"/><path fill="url(#D)" d="M371.22 137.11a30.26 30.26 0 0 0 30.23-30.28 30.26 30.26 0 0 0-30.23-30.28A30.26 30.26 0 0 0 341 106.83a30.26 30.26 0 0 0 30.23 30.28Z"/><path fill="#0F2534" d="M371.22 137.64a30.13 30.13 0 0 1-15.64-4.34 30.5 30.5 0 0 1-14.06-18.85c-2-7.94-.84-16.3 3.38-23.3a30.89 30.89 0 0 1 42.18-10.79c14.59 8.68 19.34 27.63 10.78 42.25a31.33 31.33 0 0 1-26.64 15.03Zm-25.58-45.95a30.07 30.07 0 0 0-3.27 22.55c2 7.73 6.76 14.19 13.63 18.21a29.73 29.73 0 0 0 40.7-10.37 29.83 29.83 0 0 0-10.36-40.77 29.75 29.75 0 0 0-40.7 10.38Z"/><path fill="#fff" d="M387.21 122.85a22.66 22.66 0 0 0 0-32.03 22.61 22.61 0 0 0-32 0 22.66 22.66 0 0 0 0 32.03 22.6 22.6 0 0 0 32 0Z"/><path fill="#0F2534" d="M371.22 130.02a23.16 23.16 0 0 1-23.15-23.2 23.16 23.16 0 1 1 46.3 0 23.16 23.16 0 0 1-23.15 23.2Zm0-45.32a22.17 22.17 0 0 0-22.09 22.13 22.17 22.17 0 0 0 22.1 22.13c12.15 0 22.08-9.96 22.08-22.13a22.17 22.17 0 0 0-22.09-22.13Z"/><path fill="url(#E)" d="M357.59 98.78a15.99 15.99 0 0 0 5.5 21.81 15.93 15.93 0 0 0 21.77-5.5c4.44-7.52 2-17.37-5.5-21.81a15.72 15.72 0 0 0-21.77 5.5Z"/><path fill="#0F2534" d="M371.22 123.35c-2.96 0-5.81-.74-8.35-2.33a16.05 16.05 0 0 1-7.5-10.06 16.7 16.7 0 0 1 1.8-12.5 16.37 16.37 0 0 1 22.5-5.71 16.43 16.43 0 0 1 5.72 22.55 16.03 16.03 0 0 1-10.04 7.52c-1.38.31-2.75.53-4.13.53Zm0-31.87a15.19 15.19 0 0 0-13.21 7.51 15.43 15.43 0 0 0-1.7 11.65 15.2 15.2 0 0 0 7.1 9.42 15.37 15.37 0 0 0 11.62 1.7c4.01-1.06 7.3-3.5 9.4-7.1a15.39 15.39 0 0 0-5.39-21.07 16.07 16.07 0 0 0-7.82-2.11Z"/><path fill="#fff" d="M361.71 106.83c0-5.3 4.23-9.53 9.51-9.53a9.48 9.48 0 0 1 9.52 9.53c0 5.3-4.23 9.53-9.52 9.53a9.48 9.48 0 0 1-9.51-9.53Zm5.18 0c0 2.43 1.9 4.34 4.33 4.34s4.34-1.9 4.34-4.34-1.9-4.34-4.34-4.34a4.36 4.36 0 0 0-4.33 4.34Z"/><path fill="#0F2534" d="M371.22 116.89c-5.5 0-10.04-4.56-10.04-10.06 0-5.5 4.55-10.06 10.04-10.06 5.5 0 10.04 4.55 10.04 10.06 0 5.61-4.54 10.06-10.04 10.06Zm0-19.06a8.98 8.98 0 0 0-8.98 9 8.98 8.98 0 1 0 17.97 0c0-4.98-4.02-9-8.99-9Zm0 13.87a4.92 4.92 0 0 1-4.86-4.87 4.92 4.92 0 0 1 4.86-4.87 4.92 4.92 0 0 1 4.86 4.87 4.85 4.85 0 0 1-4.86 4.87Zm0-8.68a3.8 3.8 0 0 0-3.8 3.8 3.8 3.8 0 0 0 3.8 3.82 3.8 3.8 0 0 0 3.8-3.81 3.8 3.8 0 0 0-3.8-3.81ZM473.86 123.45a8.35 8.35 0 0 0-1.38-3.5c-1.69-2.32-5.18-2.75-7.82-3.06-.42 0-3.17.1-3.28-.1-.2-.22-.31-.43-.52-.64a7.55 7.55 0 0 0-5.71-2.12c-5.5.21-7.08 3.5-9.73 6.56-.31 0-.53.1-.84.22a6.52 6.52 0 0 0-4.55 7.83 5.95 5.95 0 0 0 2.12 3.28c0 .1.1.1.2.21l.11 1.06a14.5 14.5 0 0 0 5.6 10.7 15.72 15.72 0 0 0 11.31 4.87c8.04 0 14.7-6.14 15.54-13.98l2.01-5.08a6.3 6.3 0 0 0-3.06-6.25Z"/><path fill="#0F2534" d="M459.38 149.4c-4.44 0-8.57-1.8-11.63-4.99a14.94 14.94 0 0 1-5.71-11v-.96s0-.1-.1-.1a7.06 7.06 0 0 1-2.33-3.5c-.53-1.8-.21-3.6.63-5.3a6.75 6.75 0 0 1 4.23-3.17c.21-.1.53-.1.74-.1.32-.43.64-.75.95-1.17 2.12-2.75 4.13-5.3 8.99-5.5 2.32-.11 4.54.74 6.02 2.32.21.22.32.43.53.64H464.77c3.27.32 6.44.95 8.13 3.28a8.9 8.9 0 0 1 1.49 3.5 7.01 7.01 0 0 1 3.17 6.77v.1l-2.01 4.98a16.41 16.41 0 0 1-16.18 14.2Zm-3.92-34.84h-.31c-4.44.21-6.24 2.43-8.25 5.08-.31.42-.74.85-1.05 1.38-.11.1-.22.2-.32.2-.21 0-.53.11-.74.11a6.2 6.2 0 0 0-3.6 2.76 5.94 5.94 0 0 0 1.49 7.51l.1.11.1.1c.11.11.11.22.11.32l.1 1.06a14.4 14.4 0 0 0 5.4 10.38 15.03 15.03 0 0 0 11 4.76c7.7 0 14.15-5.82 15-13.44v-.11l2-4.98a5.64 5.64 0 0 0-2.85-5.71c-.1-.1-.2-.22-.2-.32a9.66 9.66 0 0 0-1.27-3.28c-1.49-2.02-4.44-2.54-7.4-2.86h-.95c-2.22.1-2.54 0-2.75-.32-.21-.21-.32-.42-.53-.64a7.11 7.11 0 0 0-5.08-2.11Z"/><path fill="#fff" d="M445.32 127.8c2.11-3.6 2.43-3.82.2.1a9.91 9.91 0 0 0 8.15.1 9.9 9.9 0 0 0 4.86-4.87 7.77 7.77 0 0 0 .42 4.34 7.01 7.01 0 0 0 6.45 4.24l.1 1.48c0 .53.11.96.22 1.38a5.03 5.03 0 0 1 3.9-1.59c.22 0 .43 0 .64.1h.21c.11 0 .21.11.32.11.1 0 .21.1.32.1.42.11.74.33 1.06.54a5.83 5.83 0 0 1 2.85 5.3 5.92 5.92 0 0 1-6.13 5.7l.31 21.18-17.01-.42.42-11.96a13.11 13.11 0 0 1-8.67-11.76l-.31-6.56a12.6 12.6 0 0 1 1.69-7.52Z"/><path fill="#0F2534" d="M469.2 166.44 452.2 166a.8.8 0 0 1-.43-.2c-.1-.11-.1-.22-.1-.43l.42-11.65a13.6 13.6 0 0 1-8.67-12.17l-.31-6.57c-.1-2.65.53-5.3 1.9-7.62 1.9-3.18 1.9-3.28 2.43-2.97.53.32.53.43-1.06 3.07a9.4 9.4 0 0 0 7.2-.1c2-.95 3.7-2.54 4.64-4.55.1-.21.43-.32.64-.32.2.1.42.32.31.63a6.6 6.6 0 0 0 6.34 7.94c.32 0 .53.22.53.53l.11 1.49v.42a5.63 5.63 0 0 1 3.6-1.16c.2 0 .42 0 .63.1l.21.1c.1 0 .21.11.32.11.1 0 .2.1.31.1.43.12.74.33 1.06.54h.1a6.38 6.38 0 0 1 3.07 5.71 7.04 7.04 0 0 1-2.11 4.56 6.23 6.23 0 0 1-4.13 1.7l.32 20.53c0 .1-.1.32-.1.42 0 .11-.1.22-.22.22Zm-16.48-1.48 15.96.42-.32-20.54c0-.1.1-.32.21-.43.1-.1.21-.2.42-.1 1.48.1 2.86-.42 3.91-1.48a5.13 5.13 0 0 0 1.7-3.82 5.4 5.4 0 0 0-2.44-4.76s-.1 0-.1-.1c-.32-.22-.63-.32-.95-.53-.1 0-.21-.11-.32-.11-.1 0-.21-.1-.32-.1h-.2c-.22 0-.32 0-.54-.11-1.26 0-2.43.42-3.48 1.48-.11.1-.32.21-.53.1-.21 0-.32-.2-.43-.31-.1-.53-.2-1.06-.2-1.48v-1.06a7.6 7.6 0 0 1-6.35-4.56 9.18 9.18 0 0 1-.63-2.43 11 11 0 0 1-4.02 3.28 10.42 10.42 0 0 1-8.35 0 13.15 13.15 0 0 0-1.48 6.67l.32 6.57a12.6 12.6 0 0 0 8.35 11.32c.2.11.42.32.42.53l-.63 11.55Z"/><path fill="#0F2534" d="M457.05 153.73c2.11-.1 4.02-.74 5.7-1.7-2.63 5.72-10.46 6.57-10.46 6.57l.21-5.5c1.48.42 2.96.74 4.55.63ZM452.93 135.94c.1.53.63.85 1.16.85.53-.1.85-.63.85-1.16-.11-.53-.64-.85-1.17-.85-.63.1-.95.64-.84 1.16ZM444.26 135.63c0 .53.42.84.85.84.52 0 .84-.42.84-.84a.83.83 0 0 0-.84-.85c-.43-.1-.85.32-.85.85ZM454.4 131.6c.32.22.64.22.96.22.32 0 .74.1 1.06.1.31 0 .63.1 1.05.21.32.1.74.1 1.06.1.32-.1.42-.41.21-.84-.21-.42-.95-.95-2-1.16-1.06-.1-1.91.2-2.23.53-.42.31-.31.74-.1.84ZM448.38 131.29c-.2.1-.53.1-.95.1h-.95c-.32 0-.63.1-.95.1-.32 0-.63.11-.95 0-.21-.1-.43-.42-.1-.73.2-.43.94-.85 1.9-.85.95-.1 1.69.21 1.9.63.42.32.42.64.1.75ZM453.56 145.05c-.31 0-.53-.21-.53-.42 0-.32.22-.53.43-.64 2.74-.32 2.74-1.9 2.74-1.9 0-.32.22-.53.53-.53.32 0 .53.2.53.53 0-.11.1 2.54-3.7 2.96ZM450.29 141.66a3.3 3.3 0 0 1-3.28-3.28c0-.74.63-1.38 1.37-1.38.64 0 1.17-.53 1.17-1.27l-.11-2.54c0-.31.21-.53.53-.53.31 0 .53.22.53.53l.1 2.54c0 1.27-.95 2.33-2.22 2.33-.2 0-.31.1-.31.32a2.26 2.26 0 0 0 2.32 2.22h1.06c.31 0 .53.22.53.53 0 .32-.22.53-.53.53h-1.16c.1 0 .1 0 0 0ZM470.26 140.81c-.1 0-.2 0-.31-.1l-1.48-1.27c-.11-.1-.22-.21-.22-.43 0-.1.11-.31.22-.42l1.9-1.7a.51.51 0 0 1 .74 0c.2.22.2.54 0 .75l-1.48 1.27.95.85c.21.2.21.53.1.74-.1.2-.2.31-.42.31Z"/><path fill="#0987EE" d="m433.27 192.48-5.6 40.77a4.04 4.04 0 0 0 4.12 4.65l42.91-.74v.53l20.3-.42c1.16 0 2-1.06 1.69-2.23l-2.01-8.78s4.55-27.1 4.86-29.75c1.27-10.17 5.08-22.87-4.23-30.39a24.65 24.65 0 0 0-14.16-5.4l-31.71-1.7c-10.89-.63-17.97 7.42-19.24 18.96"/><path fill="#0F2534" d="M431.79 238.54a4.36 4.36 0 0 1-3.5-1.59 4.76 4.76 0 0 1-1.15-3.7l5.6-40.77c0-.31.32-.53.63-.42.32 0 .53.32.43.63l-5.6 40.77c-.11 1.06.2 2.11.84 2.86.74.74 1.69 1.16 2.75 1.16l42.91-.74c.1 0 .32 0 .43.1.1.11.1.22.1.32l19.77-.42c.42 0 .74-.21.95-.53.21-.32.31-.74.2-1.06l-2-8.79v-.2c.1-.54 4.44-26.8 4.86-29.76.22-1.59.43-3.07.74-4.76 1.38-8.9 2.96-18.96-4.75-25.2a24.32 24.32 0 0 0-13.85-5.3l-31.71-1.7c-10.04-.63-17.44 6.68-18.71 18.43 0 .32-.32.53-.53.42-.31 0-.53-.31-.42-.63 1.37-12.39 9.09-20.01 19.77-19.38l31.7 1.7a26.5 26.5 0 0 1 14.49 5.5c8.14 6.57 6.55 17.05 5.18 26.16-.22 1.69-.53 3.17-.74 4.76-.22 1.59-1.7 10.7-2.54 15.88-1.48 9.32-2 12.6-2.33 13.66l2.01 8.79c.21.63 0 1.37-.42 1.9-.42.53-1.06.85-1.8.85l-20.3.42c-.1 0-.3 0-.42-.1-.1-.1-.1-.21-.1-.32l-42.5 1.06Z"/><path fill="#0F2534" d="M431.79 238.54a4.36 4.36 0 0 1-3.5-1.59 4.76 4.76 0 0 1-1.15-3.7l5.6-40.77c0-.31.32-.53.63-.42.32 0 .53.32.43.63l-5.6 40.77c-.11 1.06.2 2.11.84 2.86.74.74 1.69 1.16 2.75 1.16l42.91-.74c.1 0 .32 0 .43.1.1.11.1.22.1.32l19.77-.42c.42 0 .74-.21.95-.53.21-.32.31-.74.2-1.06l-2-8.79v-.2c.1-.54 4.44-26.8 4.86-29.76.22-1.59.43-3.07.74-4.76 1.38-8.9 2.96-18.96-4.75-25.2a24.32 24.32 0 0 0-13.85-5.3l-31.71-1.7c-10.04-.63-17.44 6.68-18.71 18.43 0 .32-.32.53-.53.42-.31 0-.53-.31-.42-.63 1.37-12.39 9.09-20.01 19.77-19.38l31.7 1.7a26.5 26.5 0 0 1 14.49 5.5c8.14 6.57 6.55 17.05 5.18 26.16-.22 1.69-.53 3.17-.74 4.76-.22 1.59-1.7 10.7-2.54 15.88-1.48 9.32-2 12.6-2.33 13.66l2.01 8.79c.21.63 0 1.37-.42 1.9-.42.53-1.06.85-1.8.85l-20.3.42c-.1 0-.3 0-.42-.1-.1-.1-.1-.21-.1-.32l-42.5 1.06Z" opacity=".25"/><path fill="#fff" d="M442.46 237.59c-.2 0-.42-.32-.42-.64l8.46-78.88c5.18 4.66 11.83 5.4 17.97 1.9l-2.54 77.4c0 .32-23.47.22-23.47.22Z"/><path fill="#0F2534" d="M452.5 238.12H442.37a1.1 1.1 0 0 1-.85-1.28l8.46-78.87c0-.22.1-.32.31-.43.22-.1.43 0 .53.11 4.97 4.55 11.42 5.19 17.34 1.8.21-.1.42-.1.53 0 .2.1.2.32.2.42l-2.53 77.4c0 .63 0 .84-13.85.84Zm-9.82-1.06c8.24 0 20.5 0 22.72-.22l2.43-76.01a14.86 14.86 0 0 1-16.91-1.8l-8.25 78.03Z"/><path fill="#fff" d="M469 157.54a19.79 19.79 0 0 1-17.76-.53c-.32-.2-.74 0-.74.43l-.1 1.8c0 .2.1.31.2.42a19.72 19.72 0 0 0 18.18.74l.21-2.86Z"/><path fill="#0F2534" d="M460.54 162.84a19.8 19.8 0 0 1-10.04-2.65 1.11 1.11 0 0 1-.53-.95l.1-1.8c0-.32.22-.64.53-.85a.8.8 0 0 1 .95 0 19.34 19.34 0 0 0 17.23.53c.21-.1.32-.1.53 0 .1.1.21.32.21.42l-.1 2.86c0 .21-.1.43-.32.43a18.83 18.83 0 0 1-8.56 2Zm-9.52-5.4v1.8a19.58 19.58 0 0 0 17.34.84l.1-1.69a20.2 20.2 0 0 1-17.44-.95Z"/><path fill="#fff" d="M411.5 146.74s-4.45-13.87-14.28-17.15c-1.27-.42-10.99-8.68-10.99-8.68-2.33-1.7-3.91-1.9-5.07-1.27-1.59.95-1.59 3.5 0 5.08l4.96 5.08c-2.1 2.76-2.74 6.89-2.74 6.89a9.35 9.35 0 0 0 2.96 12.07l4.33 3.07 8.46 16.62 17.86-10.59-5.5-11.12Z"/><path fill="#0F2534" d="M399.13 169.08h-.11c-.1 0-.21-.1-.32-.31l-8.45-16.52-4.23-2.97a10.09 10.09 0 0 1-3.17-12.7c.1-.64.74-4.13 2.64-6.67l-4.65-4.76a4.6 4.6 0 0 1-1.27-3.71c.1-.95.63-1.8 1.38-2.22 1.37-.85 3.27-.32 5.6 1.37 4.75 4.03 10.14 8.37 10.88 8.69 9.83 3.28 14.27 16.51 14.6 17.46l5.38 11.12c.1.21 0 .53-.2.64l-17.87 10.58h-.21Zm-16.7-49.23c-.43 0-.75.1-.96.21-.63.32-.84.96-.95 1.38-.1.95.21 2.12 1.06 2.86l4.97 5.08c.2.21.2.53 0 .74-2.01 2.65-2.65 6.67-2.65 6.67 0 .1 0 .1-.1.21-2 3.92-.85 8.9 2.75 11.44l4.33 3.07c.1 0 .1.1.21.21l8.25 16.1 16.9-10.06-5.17-10.7v-.1c0-.11-4.44-13.66-13.95-16.84-1.27-.42-9.52-7.41-11.2-8.79-1.38-1.05-2.54-1.48-3.5-1.48Z"/><path fill="#fff" d="M382.95 140.07c.32.11.64.11.85.32l5.39 2.12a2.25 2.25 0 0 1 1.06 3.39c-.64.84-1.7 1.16-3.5.84l-4.96-1.58a3.31 3.31 0 0 1-2.43-3.4c.1-1.16.84-2.22 3.6-1.69Z"/><path fill="#0F2534" d="M387.92 147.38c-.42 0-.84 0-1.27-.1l-4.96-1.6a3.97 3.97 0 0 1-2.75-3.91c0-.85.31-1.48.84-1.9.74-.54 1.8-.64 3.28-.43.32.1.63.1.95.32l5.4 2.11a2.77 2.77 0 0 1 1.68 1.91c.21.85.1 1.59-.42 2.33-.53.85-1.48 1.27-2.75 1.27Zm-6.24-6.88c-.52 0-.95.1-1.26.31-.32.22-.43.53-.53 1.06a2.83 2.83 0 0 0 2 2.86l4.97 1.6c1.48.2 2.44 0 2.96-.64.32-.43.32-.85.22-1.38-.11-.53-.53-.95-1.06-1.16l-5.4-2.12c-.3-.1-.52-.22-.73-.22-.43-.31-.85-.31-1.17-.31Z"/><path fill="#fff" d="M384.54 135.63c.32.1.63.1.84.31l5.4 2.12a2.25 2.25 0 0 1 1.05 3.4c-.63.84-1.69 1.16-3.49.84l-4.96-1.6a3.31 3.31 0 0 1-2.44-3.38c.11-1.16.85-2.22 3.6-1.7Z"/><path fill="#0F2534" d="M389.5 142.93c-.42 0-.84 0-1.26-.1l-4.97-1.6a3.97 3.97 0 0 1-2.75-3.9c0-.86.32-1.5.85-1.91.74-.53 1.8-.64 3.27-.43.32.1.64.1.96.32l5.39 2.12a2.78 2.78 0 0 1 1.69 1.9c.2.85.1 1.6-.43 2.33-.52.85-1.48 1.27-2.74 1.27Zm-6.23-6.99c-.53 0-.95.11-1.27.32-.31.21-.42.53-.53 1.06a2.83 2.83 0 0 0 2.01 2.86l4.97 1.59c1.48.21 2.43 0 2.96-.64.32-.42.32-.84.21-1.37-.1-.53-.53-.96-1.06-1.17l-5.39-2.12c-.31-.1-.53-.2-.74-.2a2.75 2.75 0 0 0-1.16-.33Z"/><path fill="#fff" d="M385.28 129.91c.32.1.63.1.84.32l5.4 2.12a2.25 2.25 0 0 1 1.05 3.38c-.63.85-1.69 1.17-3.49.85l-4.96-1.59a3.31 3.31 0 0 1-2.44-3.39c.11-1.16.85-2.22 3.6-1.69Z"/><path fill="#0F2534" d="M390.25 137.22c-.43 0-.85 0-1.27-.11l-4.97-1.59a3.97 3.97 0 0 1-2.75-3.92c0-.84.32-1.48.85-1.9.74-.53 1.8-.64 3.27-.42.32.1.64.1.96.31l5.39 2.12a2.78 2.78 0 0 1 1.69 1.9c.2.85.1 1.6-.43 2.33-.52.85-1.48 1.28-2.74 1.28Zm-6.24-6.89c-.53 0-.95.1-1.27.32-.31.21-.42.53-.53 1.06a2.83 2.83 0 0 0 2.01 2.86l4.97 1.59c1.48.2 2.43 0 2.96-.64.32-.42.32-.85.21-1.38-.1-.52-.53-.95-1.06-1.16l-5.39-2.12c-.31-.1-.53-.2-.74-.2-.42-.33-.84-.33-1.16-.33Z"/><path fill="#fff" d="M399.02 147.9s-5.28-5.5 1.37-9.41c1.06-.64-8.13 4.76-10.04 2-1.9-2.85 2.86-6.13 8.35-8.25"/><path fill="#0F2534" d="M399.02 148.44a.8.8 0 0 1-.42-.21c-.1-.1-2.54-2.65-2.12-5.61.1-.75.32-1.49.74-2.12-2.75 1.16-6.13 2-7.4.2a3.03 3.03 0 0 1-.42-2.53c.95-3.07 6.56-5.61 8.88-6.57.32-.1.53 0 .63.32.11.32 0 .53-.31.64-4.55 1.8-7.72 4.02-8.35 5.82-.21.53-.1 1.06.2 1.59.96 1.48 5.5-.1 9.31-2.22.21-.11.63-.11.74.2.1.22 0 .64-.21.75-1.9 1.06-2.96 2.43-3.17 3.8-.32 2.44 1.8 4.67 1.8 4.77.2.22.2.53 0 .74.31.43.2.43.1.43Z"/><path fill="#0987EE" d="M437.28 203.18c-5.7 11.22-21.88 10.58-26.63-1.06l-21.57-46.27c-.1-.21 0-.42.22-.42a38.3 38.3 0 0 0 25.36-9.1L432 178.71"/><path fill="#0F2534" d="M424.28 211.75h-.63a14.81 14.81 0 0 1-13.43-9.42l-21.56-46.27a.65.65 0 0 1 .1-.74c.11-.21.43-.32.64-.32 9.1.1 18.08-3.07 25.05-9 .1-.1.32-.1.43-.1.1 0 .31.1.31.31l17.34 32.4c.1.21 0 .53-.21.74-.22.11-.53 0-.74-.2l-17.02-31.77a38.82 38.82 0 0 1-24.74 8.79h-.1l21.46 45.95a14.05 14.05 0 0 0 12.57 8.78 14.1 14.1 0 0 0 13.22-7.72c.1-.22.42-.32.74-.22.2.11.31.43.2.75a15.52 15.52 0 0 1-13.63 8.04Z"/><path fill="#0F2534" d="M424.28 211.75h-.63a14.81 14.81 0 0 1-13.43-9.42l-21.56-46.27a.65.65 0 0 1 .1-.74c.11-.21.43-.32.64-.32 9.1.1 18.08-3.07 25.05-9 .1-.1.32-.1.43-.1.1 0 .31.1.31.31l17.34 32.4c.1.21 0 .53-.21.74-.22.11-.53 0-.74-.2l-17.02-31.77a38.82 38.82 0 0 1-24.74 8.79h-.1l21.46 45.95a14.05 14.05 0 0 0 12.57 8.78 14.1 14.1 0 0 0 13.22-7.72c.1-.22.42-.32.74-.22.2.11.31.43.2.75a15.52 15.52 0 0 1-13.63 8.04Z" opacity=".25"/><path fill="#0F2534" d="M406.2 160.3c-.1 0-.1 0 0 0-.3 0-.52-.22-.52-.53 0-.32.21-.53.53-.53.1 0 4.86-.1 12.37-5.4.2-.21.52-.1.74.1.2.22.1.53-.11.75-7.72 5.4-12.58 5.6-13 5.6Z"/><path fill="url(#F)" d="m403.99 224.67 33.08-.32c.85 0 1.59-.74 1.48-1.59l-.42-45.42c0-.84-.74-1.59-1.59-1.48l-33.08.32c-.85 0-1.59.74-1.48 1.59l.42 45.42c.1.84.74 1.48 1.59 1.48Z"/><path fill="#0F2534" d="M403.99 225.2c-1.17 0-2.12-.95-2.12-2.01l-.42-45.42c0-.53.21-1.06.63-1.49.43-.42.96-.63 1.49-.63l33.08-.32c.53 0 1.06.21 1.48.64.42.42.63.95.63 1.48l.43 45.42c0 1.16-.95 2.12-2.01 2.12l-33.2.2Zm32.76-48.81-33.08.32c-.32 0-.53.1-.74.31a.96.96 0 0 0-.32.75l.43 45.42c0 .53.42 1.06 1.05 1.06l33.09-.32c.53 0 1.06-.43 1.06-1.06l-.43-45.42c0-.32-.1-.53-.31-.74a1.14 1.14 0 0 0-.75-.32Z"/><path fill="#fff" d="M427.45 171.41h-5.18V171a3.03 3.03 0 0 0-2.95-2.97 3.03 3.03 0 0 0-2.96 2.97v.42h-4.97a3.03 3.03 0 0 0-2.96 2.97v2.96l21.88-.2v-2.97c.1-1.38-1.27-2.76-2.86-2.76Z"/><path fill="#0F2534" d="M408.53 178.08c-.31 0-.52-.2-.52-.53v-2.96c0-1.9 1.47-3.5 3.48-3.5h4.44c0-.84.32-1.69.95-2.43a3.43 3.43 0 0 1 2.44-1.06 3.5 3.5 0 0 1 3.48 3.39h4.55a3.45 3.45 0 0 1 3.49 3.39v2.96c0 .32-.21.53-.53.53l-21.78.21Zm10.89-9.42c-.1 0-.1 0 0 0-.63 0-1.27.32-1.7.74a2.5 2.5 0 0 0-.73 1.7v.31c0 .1 0 .32-.1.43-.11.1-.22.2-.43.2h-4.97a2.4 2.4 0 0 0-2.43 2.44v2.44l20.82-.21v-2.44c0-.63-.2-1.27-.74-1.7a3.1 3.1 0 0 0-1.69-.73h-5.18a.8.8 0 0 1-.42-.22c-.1-.1-.1-.31-.1-.42v-.32c0-1.16-1.06-2.22-2.33-2.22Z"/><path fill="#fff" d="M418.26 171.1c0 .63.53 1.16 1.16 1.16.63 0 1.16-.53 1.16-1.16 0-.64-.52-1.17-1.16-1.17-.63 0-1.16.53-1.16 1.17ZM428.09 190.9l10.89 1.9v-4.66c-.11-1.06.2-2.01 1.16-2.54 1.69-.95 3.9-.1 4.44 1.8l4.65 16.3c1.48 5.09 1.37 14.4-3.8 15.04l-.22.1a9.18 9.18 0 0 1-10.57-2.64 3.52 3.52 0 0 0-1.16-.85c-1.06-.1-2.22-.74-3.17-1.06a21.77 21.77 0 0 1-3.6-1.58 6.75 6.75 0 0 1-1.37-1.06c-1.16-1.49.1-3.6 1.9-3.18l2.75.63c-1.9-.63-3.7-1.26-4.86-1.69a2.35 2.35 0 0 1-1.48-1.8 2.03 2.03 0 0 1 2.32-2.33l6.13 1.06a42 42 0 0 1-7.71-2.43 2.28 2.28 0 0 1-1.27-2.54v-.22c.21-1.27 1.48-2.43 2.75-2.22l.74.1a3.16 3.16 0 0 1-2.33-3.6c.43-1.8 2.12-2.96 3.8-2.53Z"/><path fill="#0F2534" d="M441.83 220.01a9.67 9.67 0 0 1-7.5-3.6c-.43-.53-.75-.63-.85-.63-.85-.11-1.7-.43-2.54-.75-.31-.1-.53-.2-.84-.31a20.29 20.29 0 0 1-3.7-1.7c-.53-.31-1.06-.63-1.48-1.16a2.54 2.54 0 0 1-.1-2.97c.2-.31.52-.63.84-.84-.22-.1-.53-.22-.74-.22-.96-.42-1.7-1.27-1.8-2.22-.1-.85.21-1.7.74-2.22.32-.32.74-.53 1.16-.64-.31-.1-.63-.2-.84-.31a2.67 2.67 0 0 1-1.59-3.18v-.21c.1-.74.53-1.49 1.16-1.9.32-.22.64-.43.95-.54a3.65 3.65 0 0 1 .64-5.6c.85-.54 1.8-.75 2.75-.54l10.25 1.7v-4.03c-.1-1.38.42-2.43 1.48-2.96a3.88 3.88 0 0 1 3.07-.21 3.65 3.65 0 0 1 2.11 2.22l4.76 16.3c1.16 4.13 1.26 10.27-.85 13.45a4.87 4.87 0 0 1-3.38 2.22h-.1a7.46 7.46 0 0 1-3.6.85Zm-15.01-11.22c-.42 0-.85.2-1.16.63-.32.43-.43 1.17.1 1.8.32.43.74.64 1.17.96.95.63 2.1 1.06 3.48 1.58.32.11.53.22.85.32.74.32 1.58.64 2.22.64.53 0 1.06.31 1.58.95 2.54 2.96 6.56 4.02 9.94 2.54l.21-.1h.1c1.06-.11 2.01-.75 2.75-1.8 1.9-2.86 1.8-8.69.75-12.6l-4.66-16.3a2.45 2.45 0 0 0-1.47-1.6 2.71 2.71 0 0 0-2.23.1c-.63.33-.95 1.07-.84 2.02l.1 4.66c0 .1-.1.32-.2.42-.11.1-.32.1-.43.1l-10.89-1.9c-.63-.1-1.37 0-1.9.32-.53.42-.95.95-1.16 1.7-.32 1.37.53 2.64 1.9 3.06.32.11.42.32.42.64s-.31.42-.63.42l-.74-.1c-.53-.1-1.06.2-1.27.42-.42.32-.74.85-.85 1.38v.2c-.2.86.22 1.7 1.06 2.02 1.38.64 3.8 1.48 7.61 2.44.32.1.43.31.43.63-.11.32-.32.42-.64.42l-6.13-1.05c-.42-.11-.95.1-1.27.42-.31.32-.53.85-.42 1.38.1.63.53 1.16 1.16 1.37 1.17.43 2.86 1.06 4.87 1.7.31.1.42.31.31.63-.1.32-.31.42-.63.42l-2.75-.63c-.53-.1-.63-.21-.74-.21Z"/><path fill="#0F2534" d="M435.8 199.58h-.1l-9.83-2.33c-.32-.1-.43-.32-.43-.64.11-.32.32-.42.64-.42l9.83 2.33c.32.1.42.31.42.63s-.31.43-.53.43ZM434.43 205.4h-.1l-7.4-1.8c-.32-.1-.43-.32-.43-.63.1-.32.32-.43.64-.43l7.4 1.8c.31.1.42.32.42.64-.1.31-.32.42-.53.42ZM432.84 210.27h-.1l-5.7-1.59c-.33-.1-.43-.42-.33-.63.1-.32.43-.43.64-.32l5.7 1.59c.32.1.43.42.32.63a.58.58 0 0 1-.53.32ZM441.51 193.86h-.1l-4.34-.95c-.31-.11-.42-.32-.42-.64.1-.32.32-.42.63-.42l4.34.95c.31.1.42.32.42.64-.1.31-.32.42-.53.42Z"/><path fill="#0987EE" d="m500.39 190.68-1.59 11.86A23.99 23.99 0 0 1 473.75 225c-.95 0-1.9-.1-2.85-.1l-31.6-.86c-.22 0-.32-.2-.22-.42 4.76-8.47 10.15-17.9 8.25-27.53l.74-.2 37.63.52-15.86-.1 5.92-22.66"/><path fill="#0F2534" d="M475.02 225.52h-1.27c-.95 0-1.9-.11-2.85-.11l-31.6-.85c-.32 0-.54-.2-.64-.42-.1-.21-.1-.53 0-.85 4.65-8.36 10.04-17.78 8.24-27.1-.1-.32.1-.53.43-.64l.74-.2h.1l21.35.3 5.71-22.22c.1-.32.32-.43.63-.43.32.1.43.32.43.64l-5.71 21.91 15.12.21c.31 0 .52.22.52.53 0 .32-.2.53-.53.53l-15.85-.1c-.1 0-.21 0-.32-.1l-21.35-.33h-.21c1.59 9.43-3.6 18.74-8.25 27l31.19.85c.95.1 1.9.1 2.85.1a23.4 23.4 0 0 0 24.42-21.91l1.58-11.97c0-.31.32-.52.64-.42.31 0 .53.32.42.64l-1.58 11.85a24.27 24.27 0 0 1-24.21 23.09Z"/><path fill="#0F2534" d="M475.02 225.52h-1.27c-.95 0-1.9-.11-2.85-.11l-31.6-.85c-.32 0-.54-.2-.64-.42-.1-.21-.1-.53 0-.85 4.65-8.36 10.04-17.78 8.24-27.1-.1-.32.1-.53.43-.64l.74-.2h.1l21.35.3 5.71-22.22c.1-.32.32-.43.63-.43.32.1.43.32.43.64l-5.71 21.91 15.12.21c.31 0 .52.22.52.53 0 .32-.2.53-.53.53l-15.85-.1c-.1 0-.21 0-.32-.1l-21.35-.33h-.21c1.59 9.43-3.6 18.74-8.25 27l31.19.85c.95.1 1.9.1 2.85.1a23.4 23.4 0 0 0 24.42-21.91l1.58-11.97c0-.31.32-.52.64-.42.31 0 .53.32.42.64l-1.58 11.85a24.27 24.27 0 0 1-24.21 23.09Z" opacity=".25"/><path fill="#0F2534" d="M450.92 224.67c-.1 0-.21 0-.32-.1-.2-.22-.31-.54-.1-.75 5.18-7.73 5.07-12.5 5.07-12.5 0-.3.21-.52.53-.52.32 0 .53.21.53.53 0 .21.2 5.08-5.18 13.13-.21.2-.32.2-.53.2Z"/><path fill="#fff" d="M453.77 372.15h-25.9v-4.76l26.12-.32-.22 5.08Z"/><path fill="#0F2534" d="M453.77 372.68h-25.9c-.1 0-.31-.1-.42-.1-.1-.1-.1-.21-.1-.43v-4.76c0-.32.21-.53.53-.53l26.1-.32c.11 0 .32.1.43.21.1.11.1.22.1.43l-.2 5.19c0 .1-.32.31-.54.31Zm-25.37-1.06h24.85l.2-4.02-25.05.32v3.7Z"/><path fill="#F9F9F9" d="M426.19 371.63v3.6l-24.53 10.05c-4.54 1.9-7.4 5.72-7.4 9.85l61.42-.1-1.06-23.4h-28.44Z"/><path fill="#0F2534" d="M394.16 395.66c-.1 0-.32-.1-.43-.1-.1-.11-.1-.22-.1-.43 0-4.45 2.96-8.37 7.72-10.27l24.2-9.95v-3.29c0-.1.1-.31.1-.42.11-.1.22-.1.43-.1l28.43.1c.32 0 .53.21.53.53l1.06 23.4c0 .1 0 .32-.1.42-.11.1-.22.21-.43.21l-61.41-.1Zm32.55-23.5v3.06c0 .22-.1.43-.31.53l-24.53 10.06c-4.22 1.7-6.87 5.08-7.08 8.79l60.36-.1-1.06-22.35h-27.38Z"/><path fill="#0F2534" d="m455.67 395.1-61.51.07v4.34l61.52-.08v-4.34Z"/><path fill="#0F2534" d="M394.16 400c-.1 0-.32-.1-.43-.1-.1-.11-.1-.22-.1-.43v-4.34c0-.32.21-.53.53-.53l61.52-.1c.1 0 .31.1.42.1.1.1.1.21.1.42v4.35c0 .31-.2.52-.52.52l-61.52.11Zm.53-4.34v3.28l60.46-.1v-3.29l-60.46.1Z"/><path fill="#F9F9F9" d="M502.4 373.21h-26.85v15.14h26.85v-15.14Z"/><path fill="#0F2534" d="M502.4 388.88h-26.85c-.32 0-.53-.2-.53-.53v-15.14c0-.31.21-.53.53-.53h26.85c.31 0 .53.22.53.53v15.14c0 .32-.22.53-.53.53Zm-26.32-1.06h25.79v-14.08h-25.8v14.08Z"/><path fill="#E37D65" d="M475.34 388.35v-15.14c0-.1.1-.2.2-.2h26.86c.1 0 .2.1.2.2v15.14c0 .1-.1.21-.2.21h-26.85c-.1 0-.21-.1-.21-.2Zm26.85-14.93h-26.43v14.72h26.43v-14.71Z"/><path fill="#0F2534" d="M502.4 389.1h-26.85a.72.72 0 0 1-.74-.75v-15.14c0-.42.31-.74.74-.74h26.85c.42 0 .74.32.74.74v15.14c.1.43-.32.75-.74.75Zm-26.11-1.49h25.37v-13.66h-25.37v13.66Z"/><path fill="#fff" d="M501.02 373.21h-24.3v-4.55l24.2.32.1 4.23Z"/><path fill="#0F2534" d="m501.02 373.74-24.3-.1c-.12 0-.33-.1-.43-.1-.1-.12-.1-.22-.1-.43v-4.45c0-.1.1-.32.1-.42.1-.1.2-.1.42-.1l24.1.2c.32 0 .53.22.53.53l.1 4.24c0 .1 0 .31-.1.42-.1.1-.21.21-.32.21Zm-23.78-1.06h23.25l-.1-3.17-23.15-.21v3.38Z"/><path fill="#0F2534" d="m501.02 373.43-24.3-.11c-.12 0-.12 0-.22-.1 0 0-.1-.11-.1-.22v-4.44c0-.11 0-.11.1-.22 0 0 .1-.1.21-.1l24.1.2c.1 0 .21.12.21.22l.1 4.24c0 .1 0 .1-.1.2.1.32 0 .32 0 .32Zm-24.1-4.45v3.92h23.78l-.1-3.82-23.68-.1Z"/><path fill="#F9F9F9" d="M501.66 395.24h-24.74a2.62 2.62 0 0 1-2.64-2.65c0-5.72 4.65-10.38 10.36-10.38h9.4c5.71 0 10.36 4.66 10.36 10.38a2.71 2.71 0 0 1-2.74 2.65Z"/><path fill="#0F2534" d="M501.66 395.76h-24.74a3.18 3.18 0 0 1-3.17-3.17c0-6.04 4.86-10.9 10.89-10.9h9.4c6.03 0 10.9 4.86 10.9 10.9 0 1.7-1.49 3.18-3.28 3.18Zm-17.02-13.12a9.89 9.89 0 0 0-9.83 9.84c0 1.17.95 2.12 2.11 2.12h24.74c1.16 0 2.11-.95 2.11-2.12 0-5.4-4.44-9.84-9.83-9.84h-9.3Z"/><path fill="#0F2534" d="M504.72 399.15h-30.86v-5.71h30.86v5.71ZM508 369.08l-13.32-132.66-63.95.95-7.72 131.19 35.2.63 5.18-75.8 7.72 75.48 36.89.21Z"/><path fill="#fff" d="M464.13 300.8c-.31 0-.53-.22-.53-.43l-3.49-31.97c0-.32.22-.53.43-.64.31 0 .53.21.63.42l3.5 31.98c0 .32-.22.63-.54.63Z"/><path fill="#0F2534" d="m111.83 247.43 23.47 121.13c0 .2-.1.42-.32.42l-37.1-.32c-.21 0-.32-.1-.32-.32l-9.83-53.25c0-.32-.42-.43-.63-.21-4.65 4.55-41.44 40.76-45.03 43.72-.1.1-.32.1-.53 0l-25.8-25.62c-.1-.1-.1-.32 0-.53 0 0 39.01-43.62 39.01-43.73-.1-4.34 3.6-43.2 3.6-43.2 0-.2 53.48 1.7 53.48 1.91Z"/><path fill="#0F2534" d="m134.88 369.5-37.1-.31c-.43 0-.75-.32-.85-.74L87.1 315.5c-5.18 5.08-41.33 40.55-44.82 43.52a.83.83 0 0 1-1.16 0l-25.8-25.63a.97.97 0 0 1 0-1.27c12.9-14.4 37-41.4 38.9-43.51 0-5.19 3.5-41.5 3.6-43.1 0-.2.21-.42.53-.52 1.05-.1 22.93.63 27.27.84 6.55.22 13.1.43 17.97.64 8.56.32 8.56.32 8.66.85l23.47 121.12c0 .32 0 .53-.21.74-.1.21-.32.32-.63.32Zm-36.9-1.37 36.68.32-23.36-120.6c-4.54-.31-47.77-1.8-52.53-1.8-.42 4.66-3.6 38.65-3.49 42.67 0 .32 0 .32-39.1 44.05l25.57 25.4c4.23-3.7 40.7-39.48 44.92-43.61.22-.21.53-.32.85-.21.32.1.53.31.63.74l9.83 53.04Z"/><path fill="#0F2534" d="m77.48 325.57 6.66-6.46a29.26 29.26 0 0 0 8.77-21.6l-.42-17.47"/><path fill="#fff" d="M77.48 326.1a.8.8 0 0 1-.42-.21.51.51 0 0 1 0-.74l6.66-6.46a28.7 28.7 0 0 0 8.66-21.28l-.42-17.47c0-.32.21-.53.53-.53.32 0 .53.2.53.53l.42 17.47a29.66 29.66 0 0 1-8.98 22.02l-6.66 6.46c-.1.1-.22.2-.32.2Z"/><path fill="#EFF4EE" d="m104.86 373.85 24.2-.1v-4.45l-24.73.1.53 4.45Z"/><path fill="#0F2534" d="M104.86 374.38c-.32 0-.53-.21-.53-.43l-.53-4.44c0-.1 0-.32.1-.43.11-.1.21-.2.43-.2h24.84c.31 0 .53.2.53.52v4.45c0 .1-.11.32-.11.42-.1.1-.21.1-.42.1h-24.31Zm0-4.45.42 3.39h23.25v-3.39h-23.67Z"/><path fill="#F9F9F9" d="M130.65 373.21v3.4l23.04 9.41c4.23 1.7 6.98 5.3 6.98 9.22h-41.33l-5.71-6.78-.1 6.99-10.47-.21.95-21.92 26.64-.1Z"/><path fill="#0F2534" d="M113.63 395.98c-.1 0-.1 0 0 0l-10.47-.22a.8.8 0 0 1-.42-.2c-.1-.11-.1-.22-.1-.43l.95-21.92c0-.31.2-.53.53-.53l26.63-.1c.1 0 .32.1.43.1.1.11.1.22.1.43v3.07l22.73 9.2c4.54 1.8 7.29 5.51 7.29 9.75 0 .32-.21.53-.53.53h-41.33a.8.8 0 0 1-.42-.21l-4.76-5.61-.1 5.5c0 .1-.1.32-.21.43-.11.2-.22.2-.32.2Zm-10.04-1.27 9.4.2.11-6.45c0-.21.1-.42.32-.53.2-.1.42 0 .63.1l5.6 6.57h40.49c-.21-3.5-2.75-6.56-6.66-8.15l-23.04-9.43a.58.58 0 0 1-.32-.52v-2.76l-25.58.1-.95 20.87Z"/><path fill="#0F2534" d="M123.35 399.26h37.32v-4.02h-41.23l3.91 4.02Z"/><path fill="#0F2534" d="M160.67 399.79h-37.32a.8.8 0 0 1-.42-.21l-3.91-4.03c-.1-.1-.21-.42-.1-.53.1-.2.31-.31.52-.31h41.23c.31 0 .52.2.52.53v4.02c0 .32-.2.53-.52.53Zm-37.1-1.06h36.57v-2.97H120.7l2.86 2.97ZM103.07 399.3h10.57v-4.03h-10.57v4.03Z"/><path fill="#0F2534" d="M113.63 399.79h-10.57c-.32 0-.53-.21-.53-.53v-4.02c0-.32.21-.53.53-.53h10.57c.32 0 .53.2.53.53v4.02c0 .32-.21.53-.53.53Zm-10.04-1.06h9.51v-2.97h-9.51v2.97Z"/><path fill="#EFF4EE" d="m17.02 340.92 17.23 17.15 3.06-3.17-17.54-17.58-2.75 3.6Z"/><path fill="#0F2534" d="M34.25 358.6c-.1 0-.32-.1-.43-.1L16.6 341.35a.51.51 0 0 1 0-.75l2.74-3.49c.1-.1.21-.21.43-.21.1 0 .31 0 .42.1l17.55 17.47c.2.21.2.53 0 .74l-3.18 3.18c-.1.1-.2.21-.31.21Zm-16.5-17.68 16.5 16.41 2.43-2.43-16.8-16.73-2.12 2.75Z"/><path fill="#F9F9F9" d="m35.73 358.81-2.43 2.44 9.61 22.97c1.8 4.24 1.17 8.69-1.58 11.44l-29.17-29.33.74-8.79-4.97 4.87-7.3-7.62 16.18-14.82 18.92 18.84Z"/><path fill="#0F2534" d="M41.33 396.19c-.1 0-.32-.1-.42-.1l-29.18-29.23c-.1-.1-.2-.21-.1-.42l.63-7.41-3.9 3.91c-.12.1-.22.1-.43.1a.8.8 0 0 1-.42-.2L.2 355.2c-.1-.1-.1-.2-.1-.42 0-.1.1-.32.2-.42l16.18-14.82a.51.51 0 0 1 .74 0l18.92 18.74c.1.1.1.2.1.42 0 .1-.1.32-.1.42l-2.11 2.12 9.5 22.66c1.91 4.44 1.28 9.1-1.68 12.07-.21.1-.32.2-.53.2Zm-28.65-30.07 28.65 28.7c2.32-2.65 2.75-6.57 1.06-10.49l-9.62-22.87c-.1-.21 0-.42.1-.53l2.01-2.01-18.18-18.1-15.33 13.97 6.56 6.88 4.54-4.44c.1-.11.43-.22.64-.11.2.1.31.32.31.53l-.74 8.47Z"/><path fill="#0F2534" d="m12.16 372.05 26.32 26.36 2.85-2.75-29.07-29.22-.1 5.6Z"/><path fill="#0F2534" d="M38.48 398.94c-.11 0-.32-.1-.43-.1l-26.32-26.37c-.1-.1-.1-.21-.1-.42l.1-5.61c0-.21.1-.43.32-.53.21-.1.42 0 .53.1l29.17 29.23c.1.1.1.2.1.42 0 .1-.1.32-.1.42l-2.85 2.86h-.42Zm-25.8-27.1 25.8 25.83 2.1-2.12-27.9-27.84v4.13ZM.57 355.14l7 7.5 2.86-2.68-7-7.5-2.86 2.68Z"/><path fill="#0F2534" d="M7.5 363.15a.8.8 0 0 1-.42-.2l-6.97-7.52a.51.51 0 0 1 0-.75l2.85-2.64c.1-.1.21-.1.42-.1.1 0 .32.1.32.2l6.98 7.52c.1.1.1.21.1.42 0 .11-.1.32-.21.32l-2.85 2.65c.1.1 0 .1-.22.1Zm-6.23-7.94L7.6 362l2.11-1.9-6.34-6.78-2.11 1.9Z"/><path fill="#0987EE" d="M117.22 212.18h5.6s-9.61-27.32-10.99-29.33a16.32 16.32 0 0 0-14.27-7.1h-27.8a28.53 28.53 0 0 0-23.15 11.76 4.74 4.74 0 0 0-.1 4.87l3.17 5.5 12.79 10.59-6.13 37.7 56.97 3.7-.95-15.46 4.86-22.23Z"/><path fill="#0F2534" d="m113.31 250.5-56.97-3.7a.8.8 0 0 1-.42-.21c-.11-.11-.11-.32-.11-.43l6.03-37.37-12.58-10.48-.1-.11-3.18-5.5a5.21 5.21 0 0 1 .1-5.4 29.18 29.18 0 0 1 23.58-12.08h27.8a16.87 16.87 0 0 1 14.69 7.31c1.37 2.01 10.67 28.27 11.1 29.43.1.22 0 .32-.1.53-.11.1-.22.22-.43.22h-5.18l-4.76 21.91.95 15.35c0 .1 0 .32-.1.43-.1.1-.21.1-.32.1Zm-56.34-4.66 55.81 3.6-.95-14.82v-.1l4.86-22.34c0-.22.32-.43.53-.43h4.86c-2.85-8.04-9.61-26.89-10.67-28.48a16.03 16.03 0 0 0-13.85-6.88h-27.8a27.98 27.98 0 0 0-22.72 11.54 4.26 4.26 0 0 0-.1 4.34l3.06 5.4 12.79 10.59c.1.1.2.32.2.53l-6.02 37.05Z"/><path fill="#0F2534" d="m113.31 250.5-56.97-3.7a.8.8 0 0 1-.42-.21c-.11-.11-.11-.32-.11-.43l6.03-37.48-12.58-10.48-.1-.1-2.33-3.92c-.96-1.6-1.9-3.18-1.38-5.3.42-1.59 1.48-2.86 2.54-4.02l.1-.1a29.51 29.51 0 0 1 21.67-9.64h27.8a16.86 16.86 0 0 1 14.7 7.3c1.37 2.02 10.67 28.27 11.1 29.44.1.21 0 .32-.11.53-.1.1-.21.2-.42.2h-5.18l-4.76 21.93.95 15.35c0 .1 0 .31-.1.42-.22.21-.32.21-.43.21Zm-56.34-4.66 55.81 3.6-.95-14.82v-.1l4.86-22.34c0-.22.32-.43.53-.43h4.86c-2.85-8.04-9.61-26.89-10.67-28.48a16.03 16.03 0 0 0-13.85-6.88h-27.8c-7.92 0-15.75 3.5-20.93 9.32l-.1.1c-.95 1.06-1.9 2.23-2.22 3.5-.42 1.59.42 2.96 1.27 4.44l2.22 3.92 12.79 10.59c.1.1.2.32.2.53l-6.02 37.05Z" opacity=".25"/><path fill="#0F2534" d="M112.36 236.42c-.32 0-.53-.21-.53-.53l-2.75-44.15c0-.32.22-.53.53-.53.32 0 .53.21.53.53l2.75 44.15c0 .21-.21.53-.53.53ZM62.26 212.7c-.32 0-.53-.31-.53-.52l.74-13.98c0-.32.32-.53.53-.53.31 0 .53.32.53.53l-.74 13.98c-.1.31-.32.53-.53.53ZM90.27 134.04c-2.01 0-3.91.42-5.6 1.06-.43-3.18-3.5-5.72-6.87-6.88-2.86-.96-6.03-1.06-8.35.1-4.34 2.33-5.6 7.94-8.25 11.65-.95 1.38-2 2.65-3.28 3.5-1.37.84-3.17 1.26-4.65.63a10.18 10.18 0 0 0 5.6 6.03c2.65 1.06 5.82.74 7.93-1.06 1.27-1.06 2.12-2.54 3.7-3.17 1.17-.53 2.54-.32 3.91-.32.32 0 .64 0 .95-.1a14.17 14.17 0 0 0-.63 4.23c0 8.57 6.98 15.56 15.54 15.56 8.56 0 15.54-6.99 15.54-15.56a15.6 15.6 0 0 0-15.54-15.67Z"/><path fill="#0F2534" d="M90.27 165.7A16.07 16.07 0 0 1 74.63 146h-1.27c-.95 0-1.9 0-2.65.32-.84.32-1.58 1.06-2.32 1.8l-1.27 1.27c-2.22 1.9-5.6 2.33-8.46 1.17a10.78 10.78 0 0 1-5.91-6.25c-.11-.21 0-.42.1-.53.1-.1.42-.21.53-.1 1.16.52 2.75.31 4.12-.53 1.16-.75 2.12-1.91 3.17-3.4a20.86 20.86 0 0 0 2.22-4.02c1.48-3.07 3.07-6.14 6.13-7.73 2.22-1.16 5.5-1.27 8.78-.1 3.7 1.27 6.44 3.81 7.08 6.67 1.69-.64 3.49-.85 5.18-.85 8.88 0 16.06 7.2 16.06 16.1.21 8.68-6.97 15.88-15.85 15.88Zm-14.9-20.86c.1 0 .31.1.42.21.1.1.1.32.1.53a15.08 15.08 0 0 0 14.48 19.06c8.25 0 15.01-6.78 15.01-15.04 0-8.25-6.76-15.03-15-15.03-1.8 0-3.7.32-5.4 1.06-.1.1-.31 0-.42 0-.1-.1-.21-.21-.21-.43-.42-3.28-3.7-5.5-6.55-6.45-2.96-1.06-5.92-.96-7.93.1-2.75 1.48-4.23 4.45-5.7 7.3-.75 1.49-1.49 2.97-2.33 4.24a12.9 12.9 0 0 1-3.5 3.7 5.7 5.7 0 0 1-4.01.96c1.06 2.12 2.85 3.92 4.86 4.66 2.54.95 5.5.63 7.4-1.06.42-.32.74-.74 1.16-1.16a8.64 8.64 0 0 1 2.65-2.12c.95-.43 2-.43 3.06-.43h.95c.32 0 .53 0 .95-.1-.1 0-.1 0 0 0Z"/><path fill="#fff" d="m106.55 153.94-.85-6.24a12.73 12.73 0 0 0-7.08-9.64 13.76 13.76 0 0 1-2.85 4.13c-1.9 2.12-4.23 4.03-6.98 4.87-.64.21-1.38.43-2.11.43h1.16l.53 3.91c.2 1.17-.43 2.33-1.48 3.18a5.9 5.9 0 0 0-6.66-4.66 5.94 5.94 0 0 0-5.08 6.67 5.96 5.96 0 0 0 6.13 5.08l-.52 16.41 15.96.53.31-10.9c6.24-1.27 10.36-7.3 9.52-13.77Z"/><path fill="#0F2534" d="m96.82 179.35-16.06-.42c-.11 0-.32-.1-.32-.21-.1-.1-.1-.21-.1-.43l.52-15.88a6.44 6.44 0 0 1-6.13-5.5c-.53-3.5 2-6.78 5.5-7.3a6.53 6.53 0 0 1 6.97 4.12c.53-.63.74-1.37.64-2.11l-.42-3.5h-.74c-.32 0-.53-.21-.53-.53 0-.32.2-.53.42-.53.63-.1 1.37-.21 2-.42 2.33-.74 4.45-2.33 6.77-4.77a14.37 14.37 0 0 0 2.75-4.02l.32-.32h.42a13.08 13.08 0 0 1 7.4 9.96l.84 6.24a13.07 13.07 0 0 1-9.4 14.5l-.32 10.49c0 .42-.21.63-.53.63Zm-15.43-1.48 14.9.42.32-10.37c0-.21.21-.42.42-.53a12.06 12.06 0 0 0 8.99-13.45l-.85-6.24a12.1 12.1 0 0 0-6.23-9 17.2 17.2 0 0 1-2.75 3.8c-2.43 2.55-4.76 4.24-7.19 4.99-.21.1-.32.1-.53.1l.42 3.7c.22 1.38-.42 2.65-1.69 3.71-.1.1-.31.1-.52.1-.22-.1-.32-.2-.32-.41a5.45 5.45 0 0 0-6.03-4.24 5.4 5.4 0 0 0-4.54 6.14 5.42 5.42 0 0 0 5.6 4.66c.1 0 .32 0 .42.1.1.11.21.22.1.43l-.52 16.1Z"/><path fill="#0F2534" d="M88.16 166.44c2.64 4.55 8.77 5.6 8.77 5.6l.1-4.44c-.42.1-.84.21-1.26.21-2.65.32-5.4-.2-7.61-1.37ZM96.82 152.14c0 .53-.42.85-.95.85s-.84-.42-.84-.95.42-.85.95-.85.95.43.84.95ZM105.17 152.25c0 .42-.42.74-.84.74s-.74-.42-.74-.85c0-.42.42-.74.84-.74.53 0 .85.43.74.85ZM96.93 146.85c-.21.21-.64.21-.95.21-.32 0-.74.1-1.06.1-.32.11-.63.11-1.06.22-.31.1-.74.21-1.05.1-.32-.1-.43-.31-.22-.84.22-.42.96-1.06 2.01-1.17 1.06-.2 1.9.11 2.22.43.43.42.43.84.1.95ZM105.28 147.06c-.21-.21-.53-.21-.85-.21-.31 0-.63-.1-.95-.21-.31-.1-.63-.1-.95-.21-.32-.1-.63-.22-.84-.1-.22 0-.43.3-.22.73.22.43.85.95 1.7 1.17.95.2 1.69 0 2-.32.32-.32.32-.64.1-.85Z"/><path fill="#fff" d="m99.78 149.92.21 2.33c.1.85.85 1.48 1.7 1.48.42 0 .84.32.84.74a2.58 2.58 0 0 1-2.33 2.76l-.95.1"/><path fill="#0F2534" d="M99.15 157.75c-.32 0-.53-.2-.53-.52s.21-.53.53-.53l.95-.1a2.08 2.08 0 0 0 1.9-2.13c0-.1-.1-.2-.31-.2-1.17.1-2.12-.86-2.22-1.91l-.22-2.33c0-.32.22-.53.53-.53.32 0 .53.2.53.53l.21 2.33c0 .52.53 1.05 1.17.95.31 0 .73.1.95.32.31.2.42.53.42.95a3.08 3.08 0 0 1-2.86 3.28l-1.05-.1c.1 0 .1 0 0 0ZM98.72 160.3c-3.27-.22-3.27-2.44-3.27-2.44 0-.32.21-.53.53-.53.31 0 .53.21.53.53 0 .1.1 1.27 2.21 1.38.32 0 .53.31.53.53 0 .31-.2.53-.53.53ZM80.02 158.5c-.11 0-.32 0-.43-.1a.51.51 0 0 1 0-.75l.95-.95-1.58-1.17c-.21-.21-.32-.53-.1-.74.2-.21.52-.32.73-.1l2.12 1.48c.1.1.2.2.2.42 0 .1 0 .32-.1.42l-1.37 1.38c-.1.1-.21.1-.42.1Z"/><path fill="#F9F8F6" d="m75.79 246.9 22.93 2.23.32-74.96a21.96 21.96 0 0 1-20.5-.32l-2.75 73.05Z"/><path fill="#0F2534" d="m98.72 249.66-22.93-2.23c-.32 0-.53-.31-.53-.53L78 173.85c0-.21.1-.32.31-.42.22-.11.32-.11.53 0a21.41 21.41 0 0 0 20.09.31c.2-.1.31-.1.52 0 .11.1.22.32.22.43l-.32 74.96c0 .1-.1.31-.21.42-.1.1-.32.1-.43.1Zm-22.3-3.18 21.88 2.12.32-73.48a22.61 22.61 0 0 1-19.56-.32l-2.64 71.68Z"/><path fill="#F9F8F6" d="M78.54 173.96a21.96 21.96 0 0 0 20.5.31l-.1 3.28a21.96 21.96 0 0 1-20.51-.31l.1-3.28Z"/><path fill="#0F2534" d="M89.1 180.41c-3.7 0-7.5-.95-10.88-2.75-.21-.1-.32-.32-.32-.42l.1-3.28c0-.22.11-.32.22-.43.21-.1.32-.1.53 0a21.41 21.41 0 0 0 20.08.32c.21-.1.32-.1.53 0 .1.1.21.32.21.42l-.1 3.28c0 .22-.11.43-.32.43a21.97 21.97 0 0 1-10.04 2.43Zm-10.04-3.6a21.04 21.04 0 0 0 19.45.32v-2.01a22.37 22.37 0 0 1-19.45-.32v2.01Z"/><path fill="url(#G)" d="M63.63 271.68a10.5 10.5 0 0 1 0-14.72l54.01-53.89a10.45 10.45 0 0 1 14.7 0 10.5 10.5 0 0 1 0 14.72l-54.02 53.89a10.26 10.26 0 0 1-14.69 0Z"/><path fill="#0F2534" d="M71.03 275.28c-2.96 0-5.7-1.17-7.71-3.18-2.01-2.12-3.18-4.87-3.18-7.73a10.9 10.9 0 0 1 3.18-7.73l54-53.89a11.04 11.04 0 0 1 7.73-3.17c2.95 0 5.7 1.16 7.71 3.17 2 2.12 3.17 4.87 3.17 7.73a10.9 10.9 0 0 1-3.17 7.73l-54.01 53.9a11.24 11.24 0 0 1-7.72 3.17Zm54.02-74.64a10.1 10.1 0 0 0-6.98 2.85l-54.01 53.79a10.24 10.24 0 0 0-2.96 6.99c0 2.64 1.05 5.08 2.85 6.99 1.9 1.9 4.33 2.85 6.98 2.96a10.1 10.1 0 0 0 6.97-2.86l54.01-53.89c1.9-1.9 2.86-4.34 2.97-6.99 0-2.64-1.06-5.08-2.86-6.99a9.91 9.91 0 0 0-6.98-2.86Z"/><path fill="#fff" d="m131.81 214.19-11.1-11.33c-2-2.01-2-5.3.1-7.3l4.02-3.92a5.07 5.07 0 0 1 7.3.1l11.1 11.33c2 2.01 2 5.3-.11 7.3l-4.02 3.92a5.07 5.07 0 0 1-7.29-.1Z"/><path fill="#0F2534" d="M135.5 216.3a5.75 5.75 0 0 1-4.11-1.69l-11-11.33a5.27 5.27 0 0 1-1.58-4.02c0-1.48.63-2.97 1.69-4.02l4.02-3.92a5.67 5.67 0 0 1 8.03.1l11.1 11.33a5.27 5.27 0 0 1 1.58 4.03c0 1.48-.63 2.96-1.69 4.02l-4.01 3.92a5.85 5.85 0 0 1-4.02 1.59Zm-3.27-2.43a4.65 4.65 0 0 0 6.56.1l4.01-3.91a4.65 4.65 0 0 0 1.38-3.28c0-1.27-.43-2.44-1.38-3.29l-11.1-11.33c-.84-.84-2-1.37-3.27-1.37s-2.43.42-3.28 1.38l-4.02 3.91a4.65 4.65 0 0 0-1.37 3.28c0 1.27.42 2.44 1.37 3.29l11.1 11.22Z"/><path fill="url(#H)" d="M216.26 120.91c-22.09-22.66-58.34-22.97-80.96-.85-22.62 22.13-22.94 58.45-.85 81.1 22.1 22.66 58.35 22.98 80.97.85 22.62-22.23 23.04-58.55.84-81.1Zm-9.3 72.31a45.47 45.47 0 0 1-64.26-.63 45.65 45.65 0 0 1 .63-64.37 45.47 45.47 0 0 1 64.27.63 45.65 45.65 0 0 1-.64 64.37Z"/><path fill="#0F2534" d="M175.46 218.85h-.63a57.7 57.7 0 0 1-40.7-17.37 57.3 57.3 0 0 1-16.48-41.08 57.89 57.89 0 0 1 17.33-40.76A57.55 57.55 0 0 1 176 103.12a57.7 57.7 0 0 1 40.7 17.37 57.3 57.3 0 0 1 16.49 41.08 57.89 57.89 0 0 1-17.34 40.76 57.33 57.33 0 0 1-40.38 16.52Zm-.1-114.67a56.2 56.2 0 0 0-39.64 16.2 56.3 56.3 0 0 0-17.02 40.02 56.34 56.34 0 0 0 16.17 40.34 56.12 56.12 0 0 0 39.96 17.05 56.6 56.6 0 0 0 40.27-16.2 56.3 56.3 0 0 0 17.02-40.02 56.35 56.35 0 0 0-16.17-40.34 56.13 56.13 0 0 0-39.96-17.05h-.63Zm-.21 102.6h-.53a45.52 45.52 0 0 1-32.35-13.87 46.07 46.07 0 0 1 33.4-78.25 45.52 45.52 0 0 1 32.35 13.87 46.05 46.05 0 0 1 13.1 32.72 45.67 45.67 0 0 1-13.84 32.4 45.74 45.74 0 0 1-32.13 13.13Zm0-90.95a44.61 44.61 0 0 0-31.4 12.81 45 45 0 0 0 30.97 77.08h.53a44.61 44.61 0 0 0 31.4-12.81 44.96 44.96 0 0 0 13.53-31.66 45.1 45.1 0 0 0-12.8-31.97 44.81 44.81 0 0 0-31.6-13.56c-.32.1-.53.1-.63.1Z"/><g opacity=".9"><path fill="#fff" d="M206.96 193.22a45.47 45.47 0 0 1-64.26-.63 45.65 45.65 0 0 1 .63-64.37 45.47 45.47 0 0 1 64.27.63 45.65 45.65 0 0 1-.64 64.37Z"/><path fill="#0F2534" d="M175.15 206.78h-.53a45.52 45.52 0 0 1-32.35-13.87 46.07 46.07 0 0 1 33.4-78.25 45.52 45.52 0 0 1 32.35 13.87 46.05 46.05 0 0 1 13.1 32.72 45.67 45.67 0 0 1-13.84 32.4 45.74 45.74 0 0 1-32.13 13.13Zm0-90.95a44.61 44.61 0 0 0-31.4 12.81 44.96 44.96 0 0 0-13.53 31.66 45.28 45.28 0 0 0 12.8 31.97 44.82 44.82 0 0 0 31.6 13.55h.53a44.61 44.61 0 0 0 31.39-12.8 44.96 44.96 0 0 0 13.53-31.67 45.1 45.1 0 0 0-12.79-31.97 44.81 44.81 0 0 0-31.6-13.55h-.53Z"/></g><path fill="#fff" d="M150.2 219.9a27.6 27.6 0 0 1-4.33 3.92 12.4 12.4 0 0 1-17.02-2.22s3.8-5.72 2.85-7.3c-.52-.85-.74-2.23-1.05-3.18a16.48 16.48 0 0 1-.85-3.81 3.1 3.1 0 0 1 .1-1.7c.54-1.7 2.97-2.12 3.7-.32l1.17 2.55c-.64-1.91-1.16-3.6-1.59-4.88-.2-.74-.1-1.69.53-2.22a1.94 1.94 0 0 1 3.17.53l2.75 5.5c-1.58-3.49-2.22-6.03-2.64-7.51a2.28 2.28 0 0 1 1.27-2.54l.2-.1c1.17-.54 2.86-.33 3.4.84l.41.63a3.15 3.15 0 0 1 1.48-4.02 3.05 3.05 0 0 1 4.13 1.48l4.96 9.74"/><path fill="#0F2534" d="M138.57 226.79c-3.8 0-7.5-1.7-10.04-4.87a.67.67 0 0 1 0-.64c1.8-2.65 3.38-5.93 2.86-6.67-.43-.74-.64-1.59-.95-2.43-.11-.32-.11-.64-.22-.85a18.66 18.66 0 0 1-.84-3.92c-.1-.53-.1-1.27.1-1.9a2.6 2.6 0 0 1 2.33-1.91c.42 0 .84 0 1.16.21-.1-.21-.1-.53-.2-.74-.33-1.06 0-2.12.63-2.75a2.51 2.51 0 0 1 2.22-.74c.42.1.84.31 1.16.53-.1-.32-.1-.64-.21-.85a2.73 2.73 0 0 1 1.58-3.18l.21-.1a3.18 3.18 0 0 1 2.22-.22c.42.11.74.22.95.43a3.54 3.54 0 0 1 4.76-2.75c.95.31 1.59.95 2 1.9l4.98 9.74c.1.21 0 .53-.22.74-.2.1-.52 0-.74-.2l-4.96-9.75a3.12 3.12 0 0 0-1.48-1.38 2.37 2.37 0 0 0-1.9.11c-1.27.64-1.8 2.01-1.27 3.28.1.21 0 .53-.21.64-.22.1-.53 0-.75-.21l-.42-.64c-.2-.53-.84-.74-1.06-.74-.52-.1-1.16-.1-1.58.1l-.21.11a1.72 1.72 0 0 0-.95 2.01 43.5 43.5 0 0 0 2.53 7.41c.11.22 0 .53-.2.75-.22.1-.54 0-.75-.22l-2.75-5.5c-.2-.43-.63-.74-1.05-.74-.43-.1-.95.1-1.27.42-.42.42-.53 1.06-.42 1.7.31 1.16.84 2.85 1.58 4.87.1.31 0 .52-.31.63-.22.1-.53 0-.64-.32l-1.16-2.54c-.21-.53-.74-.85-1.38-.85-.52 0-1.16.32-1.37 1.06-.1.43-.1.96 0 1.49.1 1.16.42 2.32.84 3.7.11.32.22.53.22.85.2.74.42 1.59.74 2.12 1.05 1.58-1.48 5.82-2.65 7.51 4.02 4.77 11 5.61 16.07 1.9 2-1.47 3.38-2.74 4.23-3.8.21-.22.53-.32.74-.1.21.2.32.52.1.73-.84 1.17-2.32 2.44-4.44 4.03a12.89 12.89 0 0 1-7.6 2.54Z"/><path fill="#0F2534" d="M145.97 207.1a.58.58 0 0 1-.53-.32l-3.9-9.1c-.11-.33 0-.54.31-.75.32-.1.53 0 .74.32l3.91 9.1c.1.32 0 .53-.31.74h-.22ZM140.48 209.42a.58.58 0 0 1-.53-.31l-2.96-7c-.1-.31 0-.52.32-.73.31-.1.52 0 .74.31l2.95 7c.11.3 0 .52-.31.73h-.21ZM135.72 211.12a.58.58 0 0 1-.53-.32l-2.11-5.5c-.1-.32 0-.54.31-.64.32-.1.53 0 .64.32l2.11 5.5c.1.32 0 .53-.31.64 0-.1-.11 0-.11 0Z"/><path fill="#fff" d="M152.84 205.3s2.22 7.72-2.53 14.4l2.53-14.4Z"/><path fill="#0F2534" d="M150.3 220.22c-.1 0-.2 0-.31-.1-.21-.22-.32-.53-.1-.75 4.54-6.35 2.43-13.86 2.43-13.97-.11-.32.1-.53.31-.64.32-.1.53.11.64.32.1.32 2.22 8.05-2.54 14.82-.1.22-.21.32-.42.32ZM83.82 219.9c-2-.31-4.23 4.13-4.97 9.75-.84 5.71.1 10.48 2.12 10.8 2 .31 4.23-4.13 4.97-9.75.73-5.71-.22-10.48-2.12-10.8Z"/><path fill="#0F2534" d="M81.07 240.97h-.31c-1.17-.2-2.12-1.48-2.54-3.8a22.95 22.95 0 0 1 0-7.63c.74-5.19 2.96-10.59 5.6-10.16 1.16.2 2.12 1.48 2.54 3.8.42 2.12.42 4.77 0 7.63-.64 4.98-2.75 10.16-5.29 10.16Zm2.54-20.54c-1.48 0-3.49 3.92-4.33 9.32-.43 2.65-.43 5.3 0 7.2.31 1.7.95 2.86 1.58 2.97 1.38.2 3.6-3.71 4.44-9.32.42-2.65.42-5.3 0-7.2-.32-1.7-.95-2.86-1.58-2.97h-.11Z"/><path fill="#fff" d="m107.29 231.76-6.66-8.36 3.9-2.12c.96-.42 1.6-1.16 1.6-2.12 0-1.9-1.8-3.28-3.6-2.96l-15.96 3.7c-4.97 1.17-12.79 5.62-10.89 10.28l.85 8.15s6.66-1.17 7.6.42c.54.85 1.6 1.59 2.33 2.22.96.85 2.01 1.7 3.07 2.33.42.32.95.53 1.48.64 1.8.32 3.06-1.8 1.8-3.18l-1.8-2a69.42 69.42 0 0 0 3.8 3.38c.74.63 1.9.63 2.75 0 .85-.74.85-1.9.21-2.75l-3.8-4.66a45.3 45.3 0 0 0 5.7 5.4c.85.63 2.02.63 2.75-.1l.22-.12c.95-.74 1.37-2.43.63-3.38l-.42-.64a2.97 2.97 0 0 0 4.12.21 3.15 3.15 0 0 0 .32-4.34Z"/><path fill="#0F2534" d="M91.33 244.36h-.43c-.63-.1-1.16-.42-1.69-.63-1.06-.64-2-1.38-3.17-2.33-.21-.21-.42-.32-.63-.53a9.61 9.61 0 0 1-1.8-1.8c-.53-.74-4.12-.64-7.08-.1-.1 0-.32 0-.43-.11-.1-.1-.2-.22-.2-.32l-.85-8.05a4.33 4.33 0 0 1 .31-3.92c1.7-3.28 6.98-6.14 11-6.98l15.96-3.7c1.06-.22 2.11.1 2.96.73.84.64 1.27 1.7 1.27 2.75 0 1.17-.64 2.12-1.9 2.65l-3.28 1.8 6.23 7.84c.64.74.96 1.59.85 2.54-.1.95-.53 1.8-1.27 2.43a3.54 3.54 0 0 1-3.17.74 3.56 3.56 0 0 1-1.16 2.97l-.21.1c-.95.85-2.44.96-3.5.11a2.8 2.8 0 0 1-.63-.53c.21.85 0 1.9-.74 2.54-.95.85-2.43.85-3.38 0a2.8 2.8 0 0 1-.63-.53c0 .43-.1.74-.32 1.17-.32.74-1.16 1.16-2.11 1.16Zm-10.47-6.99c1.59 0 3.17.22 3.7 1.06.32.53 1.06 1.06 1.59 1.6.2.2.42.41.63.52 1.06.95 2.11 1.7 3.07 2.22.42.22.84.43 1.26.53a1.4 1.4 0 0 0 1.48-.74c.32-.53.22-1.06-.2-1.48l-1.8-2.01a.51.51 0 0 1 0-.74.51.51 0 0 1 .74 0 42.15 42.15 0 0 0 3.8 3.38c.64.53 1.48.53 2 0 .64-.52.64-1.37.22-2l-3.8-4.67c-.22-.2-.11-.52.1-.74a.51.51 0 0 1 .74 0 42.68 42.68 0 0 0 5.6 5.3c.64.53 1.48.42 2.12-.1l.2-.11c.33-.32.64-.85.75-1.38.1-.32.1-.85-.21-1.27l-.43-.64c-.2-.2-.1-.53.11-.74.21-.2.53-.1.74 0 .95.96 2.43 1.06 3.38.21.53-.42.85-1.05.85-1.69 0-.63-.21-1.27-.64-1.8l-6.66-8.36c-.1-.11-.1-.32-.1-.43 0-.1.1-.31.32-.31l3.9-2.12c.85-.43 1.28-.96 1.28-1.7s-.32-1.48-.96-1.9a2.77 2.77 0 0 0-2-.53l-15.97 3.7c-3.9.85-8.77 3.6-10.25 6.46a3.52 3.52 0 0 0-.2 3.07v.1l.84 7.63c.84-.1 2.43-.32 3.8-.32Z"/><path fill="#0F2534" d="M103.27 236.84a.8.8 0 0 1-.42-.2l-6.56-7.2a.51.51 0 0 1 0-.75.51.51 0 0 1 .74 0l6.56 7.2c.2.21.2.53 0 .74-.1.1-.21.22-.32.22ZM97.46 238.96a.8.8 0 0 1-.43-.2l-5.07-5.4a.51.51 0 0 1 0-.75.51.51 0 0 1 .74 0l5.07 5.4c.22.21.22.53 0 .74 0 .21-.2.21-.31.21ZM93.02 241.3c-.1 0-.32 0-.43-.11l-4.01-4.03a.51.51 0 0 1 0-.74.51.51 0 0 1 .74 0l4.01 4.03c.22.2.22.52 0 .74 0 0-.1.1-.31.1ZM101.69 225.41a.8.8 0 0 1-.43-.21l-2.85-3.18a.51.51 0 0 1 0-.74.51.51 0 0 1 .74 0l2.85 3.18c.21.2.21.53 0 .74-.1.1-.21.21-.31.21Z"/><path fill="#0987EE" d="m69.55 190.9-3.7 26.67c0 .11 13.1 1.7 17.44 2.23.1 0 .1.21-.1.53a30.36 30.36 0 0 0-3.28 16.94c.1 1.06.42 2.12.74 3.17l-22.83 1.38A18.4 18.4 0 0 1 41.65 234a19 19 0 0 1-3.17-12.81l7.5-32.3"/><path fill="#0F2534" d="M56.87 242.35a19.22 19.22 0 0 1-15.65-8.05 19.21 19.21 0 0 1-3.27-13.13l7.5-32.29c.1-.31.32-.42.64-.42.31.1.42.32.42.63L39 221.4c-.53 4.34.52 8.68 3.06 12.39 3.38 4.97 9.4 7.83 15.64 7.51l22.1-1.27c-.32-.85-.43-1.8-.53-2.65a31.25 31.25 0 0 1 3.27-17.04c-17.02-2.12-17.02-2.12-17.23-2.33-.1-.1-.1-.21-.1-.43l3.7-26.67c0-.32.31-.53.63-.43.32 0 .53.32.42.64l-3.59 26.25c1.7.21 7.93 1.06 16.91 2.12.21 0 .43.1.43.32.1.32 0 .63-.22 1.06a29.81 29.81 0 0 0-3.27 16.62c.1.95.31 2.01.74 3.07.1.1 0 .32 0 .42-.1.11-.21.22-.43.22l-22.83 1.37c-.2-.21-.53-.21-.84-.21Z"/><path fill="#0F2534" d="M56.87 242.35a19.22 19.22 0 0 1-15.65-8.05 19.21 19.21 0 0 1-3.27-13.13l7.5-32.29c.1-.31.32-.42.64-.42.31.1.42.32.42.63L39 221.4c-.53 4.34.52 8.68 3.06 12.39 3.38 4.97 9.4 7.83 15.64 7.51l22.1-1.27c-.32-.85-.43-1.8-.53-2.65a31.25 31.25 0 0 1 3.27-17.04c-17.02-2.12-17.02-2.12-17.23-2.33-.1-.1-.1-.21-.1-.43l3.7-26.67c0-.32.31-.53.63-.43.32 0 .53.32.42.64l-3.59 26.25c1.7.21 7.93 1.06 16.91 2.12.21 0 .43.1.43.32.1.32 0 .63-.22 1.06a29.81 29.81 0 0 0-3.27 16.62c.1.95.31 2.01.74 3.07.1.1 0 .32 0 .42-.1.11-.21.22-.43.22l-22.83 1.37c-.2-.21-.53-.21-.84-.21Z" opacity=".25"/><path fill="#0F2534" d="M73.25 241.3c-.21 0-.32-.11-.42-.33-.1-.1-1.59-2.96-.74-9.1 0-.32.32-.53.63-.43.32 0 .53.32.43.64-.74 5.82.63 8.47.63 8.47.1.21 0 .53-.21.74h-.32ZM67.23 217.79l-1.38-.1-7.19-.54 7.72-2.86-.53 3.28"/><path fill="#0F2534" d="M67.23 218.32c-.11 0-.11 0 0 0l-8.57-.53c-.2 0-.42-.22-.52-.43 0-.2.1-.53.31-.53l7.72-2.85c.21-.11.42 0 .53.1.1.1.2.32.2.53l-.41 2.75.84.11c.32 0 .53.32.53.53-.21.1-.42.32-.63.32Zm-6.13-1.49 4.22.32.32-2.01-4.54 1.7Z"/></g><defs><linearGradient id="b" x1="89.34" x2="189.34" y1="61.12" y2="61.12" gradientUnits="userSpaceOnUse"><stop stop-color="#fff"/><stop offset=".17" stop-color="#D2ECFE"/><stop offset=".33" stop-color="#D2ECFE"/><stop offset=".5" stop-color="#D2ECFE"/><stop offset=".66" stop-color="#D2ECFE"/><stop offset=".83" stop-color="#D2ECFE"/><stop offset="1" stop-color="#D2ECFE"/></linearGradient><linearGradient id="c" x1="458.53" x2="358.52" y1="61.12" y2="61.12" gradientUnits="userSpaceOnUse"><stop stop-color="#fff"/><stop offset=".17" stop-color="#D2ECFE"/><stop offset=".33" stop-color="#D2ECFE"/><stop offset=".5" stop-color="#D2ECFE"/><stop offset=".66" stop-color="#D2ECFE"/><stop offset=".83" stop-color="#D2ECFE"/><stop offset="1" stop-color="#D2ECFE"/></linearGradient><linearGradient id="d" x1="65.93" x2="113.26" y1="21.8" y2="69.04" gradientUnits="userSpaceOnUse"><stop stop-color="#fff"/><stop offset="1" stop-color="#0F2534"/></linearGradient><linearGradient id="e" x1="102.01" x2="119.93" y1="24.01" y2="24.01" gradientUnits="userSpaceOnUse"><stop stop-color="#fff"/><stop offset=".17" stop-color="#D2ECFE"/><stop offset=".33" stop-color="#D2ECFE"/><stop offset=".5" stop-color="#D2ECFE"/><stop offset=".66" stop-color="#D2ECFE"/><stop offset=".83" stop-color="#D2ECFE"/><stop offset="1" stop-color="#D2ECFE"/></linearGradient><linearGradient id="f" x1="299.72" x2="277.57" y1="13.39" y2="35.51" gradientUnits="userSpaceOnUse"><stop stop-color="#fff"/><stop offset="1" stop-color="#0F2534"/></linearGradient><linearGradient id="g" x1="298.69" x2="298.69" y1="30.31" y2="38.71" gradientUnits="userSpaceOnUse"><stop stop-color="#fff"/><stop offset=".17" stop-color="#D2ECFE"/><stop offset=".33" stop-color="#D2ECFE"/><stop offset=".5" stop-color="#D2ECFE"/><stop offset=".66" stop-color="#D2ECFE"/><stop offset=".83" stop-color="#D2ECFE"/><stop offset="1" stop-color="#D2ECFE"/></linearGradient><linearGradient id="h" x1="198.66" x2="218.22" y1="71.04" y2="71.04" gradientUnits="userSpaceOnUse"><stop stop-color="#fff"/><stop offset="1" stop-color="#0F2534"/></linearGradient><linearGradient id="i" x1="243.59" x2="243.91" y1="78.83" y2="78.83" gradientUnits="userSpaceOnUse"><stop offset=".01" stop-color="#fff"/><stop offset=".17" stop-color="#D2ECFE"/><stop offset=".33" stop-color="#D2ECFE"/><stop offset=".5" stop-color="#D2ECFE"/><stop offset=".66" stop-color="#D2ECFE"/><stop offset=".83" stop-color="#D2ECFE"/><stop offset="1" stop-color="#D2ECFE"/></linearGradient><linearGradient id="j" x1="217.51" x2="243.91" y1="80.16" y2="80.16" gradientUnits="userSpaceOnUse"><stop offset=".01" stop-color="#fff"/><stop offset=".17" stop-color="#D2ECFE"/><stop offset=".33" stop-color="#D2ECFE"/><stop offset=".5" stop-color="#D2ECFE"/><stop offset=".66" stop-color="#D2ECFE"/><stop offset=".83" stop-color="#D2ECFE"/><stop offset="1" stop-color="#D2ECFE"/></linearGradient><linearGradient id="k" x1="443.51" x2="462.95" y1="36.92" y2="39.14" gradientUnits="userSpaceOnUse"><stop stop-color="#fff"/><stop offset="1" stop-color="#0F2534"/></linearGradient><linearGradient id="l" x1="487.27" x2="487.59" y1="49.76" y2="49.8" gradientUnits="userSpaceOnUse"><stop stop-color="#fff"/><stop offset=".17" stop-color="#D2ECFE"/><stop offset=".33" stop-color="#D2ECFE"/><stop offset=".5" stop-color="#D2ECFE"/><stop offset=".66" stop-color="#D2ECFE"/><stop offset=".83" stop-color="#D2ECFE"/><stop offset="1" stop-color="#D2ECFE"/></linearGradient><linearGradient id="m" x1="461.2" x2="487.44" y1="48.12" y2="51.11" gradientUnits="userSpaceOnUse"><stop stop-color="#fff"/><stop offset=".17" stop-color="#D2ECFE"/><stop offset=".33" stop-color="#D2ECFE"/><stop offset=".5" stop-color="#D2ECFE"/><stop offset=".66" stop-color="#D2ECFE"/><stop offset=".83" stop-color="#D2ECFE"/><stop offset="1" stop-color="#D2ECFE"/></linearGradient><linearGradient id="n" x1="144.79" x2="155.37" y1="23.83" y2="23.83" gradientUnits="userSpaceOnUse"><stop stop-color="#fff"/><stop offset="1" stop-color="#0F2534"/></linearGradient><linearGradient id="o" x1="185.34" x2="195.92" y1="23.83" y2="23.83" gradientUnits="userSpaceOnUse"><stop stop-color="#fff"/><stop offset="1"/><stop offset="1" stop-color="#0F2534"/></linearGradient><linearGradient id="p" x1="164.11" x2="174.68" y1="43.18" y2="43.18" gradientUnits="userSpaceOnUse"><stop offset=".01" stop-color="#fff"/><stop offset=".17" stop-color="#D2ECFE"/><stop offset=".33" stop-color="#D2ECFE"/><stop offset=".5" stop-color="#D2ECFE"/><stop offset=".66" stop-color="#D2ECFE"/><stop offset=".83" stop-color="#D2ECFE"/><stop offset="1" stop-color="#D2ECFE"/></linearGradient><linearGradient id="q" x1="210.25" x2="220.82" y1="43.18" y2="43.18" gradientUnits="userSpaceOnUse"><stop offset=".01" stop-color="#fff"/><stop offset=".17" stop-color="#D2ECFE"/><stop offset=".33" stop-color="#D2ECFE"/><stop offset=".5" stop-color="#D2ECFE"/><stop offset=".66" stop-color="#D2ECFE"/><stop offset=".83" stop-color="#D2ECFE"/><stop offset="1" stop-color="#D2ECFE"/></linearGradient><linearGradient id="r" x1="280.28" x2="316.54" y1="48.02" y2="84.95" gradientUnits="userSpaceOnUse"><stop stop-color="#fff"/><stop offset="1" stop-color="#0F2534"/></linearGradient><linearGradient id="s" x1="358.49" x2="380.79" y1="19.22" y2="41.48" gradientUnits="userSpaceOnUse"><stop offset=".01" stop-color="#fff"/><stop offset=".17" stop-color="#D2ECFE"/><stop offset=".33" stop-color="#D2ECFE"/><stop offset=".5" stop-color="#D2ECFE"/><stop offset=".66" stop-color="#D2ECFE"/><stop offset=".83" stop-color="#D2ECFE"/><stop offset="1" stop-color="#D2ECFE"/></linearGradient><linearGradient id="t" x1="375.82" x2="405.14" y1="8.69" y2="37.96" gradientUnits="userSpaceOnUse"><stop stop-color="#fff"/><stop offset="1" stop-color="#0F2534"/></linearGradient><linearGradient id="u" x1="399.43" x2="419.08" y1="23.2" y2="42.81" gradientUnits="userSpaceOnUse"><stop offset=".01" stop-color="#fff"/><stop offset=".17" stop-color="#D2ECFE"/><stop offset=".33" stop-color="#D2ECFE"/><stop offset=".5" stop-color="#D2ECFE"/><stop offset=".66" stop-color="#D2ECFE"/><stop offset=".83" stop-color="#D2ECFE"/><stop offset="1" stop-color="#D2ECFE"/></linearGradient><linearGradient id="v" x1="352.69" x2="176.53" y1="196.95" y2="295.17" gradientUnits="userSpaceOnUse"><stop stop-color="#FEFEFE"/><stop offset=".51" stop-color="#0987EE"/><stop offset="1" stop-color="#0987EE"/></linearGradient><linearGradient id="w" x1="321.53" x2="218.2" y1="209.55" y2="267.15" gradientUnits="userSpaceOnUse"><stop stop-color="#FEFEFE"/><stop offset=".51" stop-color="#0987EE"/><stop offset="1" stop-color="#0987EE"/></linearGradient><linearGradient id="x" x1="175.3" x2="318.34" y1="76.71" y2="219.51" gradientUnits="userSpaceOnUse"><stop stop-color="#fff"/><stop offset=".16" stop-color="#D2ECFE"/><stop offset=".74" stop-color="#D2ECFE"/><stop offset="1" stop-color="#D2ECFE"/></linearGradient><linearGradient id="y" x1="216.86" x2="298.87" y1="138.73" y2="220.6" gradientUnits="userSpaceOnUse"><stop stop-color="#fff"/><stop offset=".16" stop-color="#D2ECFE"/><stop offset=".74" stop-color="#D2ECFE"/><stop offset="1" stop-color="#D2ECFE"/></linearGradient><linearGradient id="z" x1="355.31" x2="247.64" y1="68.86" y2="239.58" gradientUnits="userSpaceOnUse"><stop stop-color="#FEFEFE"/><stop offset=".51" stop-color="#0987EE"/><stop offset="1" stop-color="#0987EE"/></linearGradient><linearGradient id="A" x1="321.09" x2="260.19" y1="135.41" y2="231.97" gradientUnits="userSpaceOnUse"><stop stop-color="#FEFEFE"/><stop offset=".51" stop-color="#0987EE"/><stop offset="1" stop-color="#0987EE"/></linearGradient><linearGradient id="B" x1="104.25" x2="247.44" y1="108.25" y2="251.2" gradientUnits="userSpaceOnUse"><stop stop-color="#fff"/><stop offset=".16" stop-color="#D2ECFE"/><stop offset=".74" stop-color="#D2ECFE"/><stop offset="1" stop-color="#D2ECFE"/></linearGradient><linearGradient id="C" x1="173.56" x2="257.55" y1="157.51" y2="241.37" gradientUnits="userSpaceOnUse"><stop stop-color="#fff"/><stop offset=".16" stop-color="#D2ECFE"/><stop offset=".74" stop-color="#D2ECFE"/><stop offset="1" stop-color="#D2ECFE"/></linearGradient><linearGradient id="D" x1="345.24" x2="397.25" y1="91.4" y2="122.23" gradientUnits="userSpaceOnUse"><stop stop-color="#fff"/><stop offset=".17" stop-color="#D2ECFE"/><stop offset=".33" stop-color="#D2ECFE"/><stop offset=".5" stop-color="#D2ECFE"/><stop offset=".66" stop-color="#D2ECFE"/><stop offset=".83" stop-color="#D2ECFE"/><stop offset="1" stop-color="#D2ECFE"/></linearGradient><linearGradient id="E" x1="357.57" x2="384.9" y1="98.73" y2="114.93" gradientUnits="userSpaceOnUse"><stop offset=".01" stop-color="#fff"/><stop offset=".17" stop-color="#D2ECFE"/><stop offset=".33" stop-color="#D2ECFE"/><stop offset=".5" stop-color="#D2ECFE"/><stop offset=".66" stop-color="#D2ECFE"/><stop offset=".83" stop-color="#D2ECFE"/><stop offset="1" stop-color="#D2ECFE"/></linearGradient><linearGradient id="F" x1="401.86" x2="438.86" y1="200.77" y2="199.78" gradientUnits="userSpaceOnUse"><stop stop-color="#fff"/><stop offset=".16" stop-color="#D2ECFE"/><stop offset=".74" stop-color="#D2ECFE"/><stop offset="1" stop-color="#D2ECFE"/></linearGradient><linearGradient id="G" x1="58.46" x2="137.6" y1="240.99" y2="233.86" gradientUnits="userSpaceOnUse"><stop stop-color="#fff"/><stop offset=".09" stop-color="#D2ECFE"/><stop offset=".52" stop-color="#D2ECFE"/><stop offset=".84" stop-color="#D2ECFE"/><stop offset="1" stop-color="#D2ECFE"/></linearGradient><linearGradient id="H" x1="118.46" x2="232.37" y1="166.76" y2="155.23" gradientUnits="userSpaceOnUse"><stop stop-color="#fff"/><stop offset=".09" stop-color="#D2ECFE"/><stop offset=".52" stop-color="#D2ECFE"/><stop offset=".84" stop-color="#D2ECFE"/><stop offset="1" stop-color="#D2ECFE"/></linearGradient><clipPath id="a"><path fill="#fff" d="M0 0h508v400H0z"/></clipPath></defs></svg>