<svg xmlns="http://www.w3.org/2000/svg" width="25" height="24" fill="none"><g clip-path="url(#a)"><path fill="#0F2534" fill-rule="evenodd" d="M4.5 0a4 4 0 0 0-4 4v16a4 4 0 0 0 4 4h16a4 4 0 0 0 4-4V4a4 4 0 0 0-4-4h-16Zm1.63 12a6.38 6.38 0 0 1 12.75 0v1.06a1.06 1.06 0 1 1-2.13 0V9.34a1.06 1.06 0 0 0-1.77-.79 4.25 4.25 0 1 0 .4 6.57A3.19 3.19 0 0 0 21 13.06V12a8.5 8.5 0 1 0-8.5 8.5 1.06 1.06 0 1 0 0-2.13A6.38 6.38 0 0 1 6.12 12ZM14 10.5a2.13 2.13 0 1 1-3 3 2.13 2.13 0 0 1 3-3Z" clip-rule="evenodd"/></g><defs><clipPath id="a"><path fill="#fff" d="M.5 0h24v24H.5z"/></clipPath></defs></svg>