<svg xmlns="http://www.w3.org/2000/svg" width="126" height="50" fill="none"><path fill="#388E3C" d="M45.56 18.75 32.8 25.82c-.48.26-.78.75-.78 1.28v14.15c0 .52.3 1.01.78 1.28l12.78 7.07c.47.27 1.07.27 1.54 0l12.78-7.07c.47-.27.77-.76.77-1.28V27.1c0-.53-.3-1.02-.77-1.28L47.1 18.75a1.6 1.6 0 0 0-1.55 0m65.75 12.73-2.13 1.18a.24.24 0 0 0-.13.21v2.36c0 .1.05.17.13.22l2.13 1.18c.08.04.18.04.26 0l2.13-1.18a.25.25 0 0 0 .13-.22v-2.36a.25.25 0 0 0-.13-.21l-2.13-1.18a.25.25 0 0 0-.13-.03.25.25 0 0 0-.13.03Z"/><path fill="#37474F" d="M93.86 3.75 87.64.28a.63.63 0 0 0-.94.55V21.8l-5.74-3.17a1.6 1.6 0 0 0-1.54 0L66.64 25.7c-.48.26-.77.75-.77 1.28v14.14c0 .53.3 1.02.77 1.29l12.78 7.07c.48.26 1.07.26 1.55 0l12.77-7.07c.48-.27.77-.76.77-1.29V4.86c0-.46-.25-.88-.65-1.1Zm-7.5 34.1-5.82 3.22a.73.73 0 0 1-.7 0l-5.8-3.22a.66.66 0 0 1-.36-.58v-6.44c0-.23.13-.46.35-.58l5.81-3.21c.11-.06.23-.1.35-.1.12 0 .24.04.35.1l5.8 3.21c.23.12.36.35.36.59v6.43c0 .24-.13.46-.35.58Z"/><path fill="#2E7D32" d="m45.56 18.75-13.55 22.5c0 .52.3 1.01.78 1.28l12.78 7.07c.47.27 1.07.27 1.54 0l13.55-22.5c0-.53-.3-1.02-.77-1.28L47.1 18.75a1.6 1.6 0 0 0-1.55 0"/><path fill="#4CAF50" d="M45.56 18.75 32.8 25.82c-.48.26-.78.75-.78 1.28l13.55 22.5c.48.27 1.07.27 1.55 0l12.78-7.07c.47-.27.77-.76.77-1.28L47.1 18.75a1.6 1.6 0 0 0-1.55 0"/><path fill="#37474F" d="m124.99 25.7-12.78-7.07a1.6 1.6 0 0 0-1.54 0L97.89 25.7a1.5 1.5 0 0 0-.77 1.3v14.1c0 .54.3 1.04.77 1.3l12.78 7.08a1.6 1.6 0 0 0 1.55 0l5.89-3.26a.78.78 0 0 0 0-1.37l-12.83-7a.69.69 0 0 1-.35-.6v-6.41c0-.24.13-.46.34-.58l5.82-3.22c.1-.06.22-.09.35-.09.12 0 .24.04.35.1l5.82 3.21c.2.12.34.34.34.58v5.24a.63.63 0 0 0 .94.54l6.25-3.63c.38-.22.62-.63.62-1.08V27c0-.55-.3-1.05-.77-1.31Zm-96.35 0-12.78-7.07a1.6 1.6 0 0 0-1.55 0L1.54 25.7A1.5 1.5 0 0 0 .76 27v19.45a.63.63 0 0 0 .95.54l6.24-3.63c.39-.22.63-.64.63-1.09V30.83c0-.23.13-.46.33-.57l5.82-3.22a.76.76 0 0 1 .7 0l5.83 3.22c.2.12.34.34.34.58v11.44c0 .45.23.86.62 1.08L28.47 47c.2.11.43.11.63 0 .19-.11.3-.32.3-.54V27c0-.55-.29-1.05-.76-1.31Z"/></svg>