<svg xmlns="http://www.w3.org/2000/svg" width="55" height="100" fill="none"><path fill="#3174B9" fill-rule="evenodd" d="M18.77 53.04s-2.62 1.53 1.87 2.04c5.44.62 8.21.54 14.2-.6 0 0 1.58.99 3.78 1.84-13.43 5.76-30.4-.33-19.85-3.28Zm-1.64-7.5s-2.94 2.17 1.55 2.64c5.81.6 10.4.64 18.33-.88 0 0 1.1 1.1 2.82 1.72-16.23 4.74-34.31.37-22.7-3.48Z" clip-rule="evenodd"/><path fill="#CA3132" fill-rule="evenodd" d="M30.96 32.8c3.31 3.8-.86 7.23-.86 7.23s8.4-4.33 4.54-9.76c-3.6-5.07-6.37-7.58 8.6-16.26 0 0-23.5 5.86-12.28 18.79Z" clip-rule="evenodd"/><path fill="#3174B9" fill-rule="evenodd" d="M48.72 58.6s1.94 1.6-2.13 2.83c-7.75 2.35-32.26 3.06-39.07.1-2.44-1.07 2.14-2.54 3.59-2.86 1.5-.32 2.36-.26 2.36-.26-2.72-1.92-17.59 3.76-7.55 5.4 27.38 4.43 49.9-2 42.8-5.21ZM20.03 37.75s-12.46 2.97-4.41 4.04c3.4.46 10.18.35 16.49-.18 5.16-.43 10.34-1.36 10.34-1.36s-1.82.78-3.14 1.68C26.65 45.26 2.2 43.71 9.24 40.31c5.95-2.88 10.8-2.56 10.8-2.56Zm22.37 12.5c12.87-6.68 6.92-13.1 2.76-12.24-1.01.21-1.47.4-1.47.4s.38-.6 1.1-.85c8.22-2.9 14.53 8.51-2.65 13.03 0 0 .2-.18.26-.34Z" clip-rule="evenodd"/><path fill="#CA3132" fill-rule="evenodd" d="M34.64 0s7.12 7.13-6.76 18.1c-11.14 8.79-2.54 13.8 0 19.53-6.5-5.86-11.27-11.03-8.08-15.83C24.5 14.74 37.51 11.32 34.64 0Z" clip-rule="evenodd"/><path fill="#3174B9" fill-rule="evenodd" d="M21.3 68.38c12.35.79 31.32-.44 31.77-6.29 0 0-.86 2.22-10.2 3.98-10.55 1.98-23.56 1.75-31.27.48 0 0 1.58 1.3 9.7 1.83Z" clip-rule="evenodd"/><path fill="#CA3132" fill-rule="evenodd" d="M52.5 78.86h-.38v-.21h1.02v.2h-.38v1.06h-.26v-1.05Zm2.02.05-.38 1h-.17l-.37-1v1h-.25v-1.26h.36l.35.89.34-.9h.36v1.27h-.24v-1Zm-35.24 11.8c-1.17 1-2.4 1.58-3.5 1.58-1.58 0-2.44-.95-2.44-2.47 0-1.63.92-2.83 4.58-2.83h1.35v3.72Zm3.21 3.62V83.11c0-2.87-1.64-4.77-5.58-4.77-2.3 0-4.32.57-5.96 1.3l.47 1.99c1.3-.48 2.96-.92 4.6-.92 2.28 0 3.25.92 3.25 2.8v1.43h-1.13c-5.52 0-8.01 2.14-8.01 5.36 0 2.77 1.64 4.35 4.73 4.35 1.99 0 3.47-.82 4.86-2.02l.25 1.7h2.52Zm10.73 0h-4l-4.84-15.7h3.5l3 9.65.67 2.9a60.57 60.57 0 0 0 3.12-12.55h3.4a63.7 63.7 0 0 1-4.85 15.7Zm15.38-3.62c-1.16 1-2.4 1.58-3.5 1.58-1.57 0-2.43-.95-2.43-2.47 0-1.63.92-2.83 4.58-2.83h1.35v3.72Zm3.22 3.62V83.11c0-2.87-1.64-4.77-5.58-4.77-2.3 0-4.32.57-5.96 1.3l.47 1.99c1.29-.48 2.96-.92 4.6-.92 2.27 0 3.25.92 3.25 2.8v1.43h-1.13c-5.52 0-8.01 2.14-8.01 5.36 0 2.77 1.64 4.35 4.73 4.35 1.98 0 3.47-.82 4.85-2.02l.26 1.7h2.52ZM6.6 97a8.44 8.44 0 0 1-4.01 3l-1.6-1.87a6.67 6.67 0 0 0 2.8-2.6c.41-.85.6-1.94.6-4.55V73.04h3.4v17.69c0 3.49-.27 4.9-1.19 6.27Z" clip-rule="evenodd"/></svg>