<svg xmlns="http://www.w3.org/2000/svg" width="101" height="52" fill="none"><path fill="#0F2534" d="M8.68 11.45H23.5c4.35.03 7.5 1.29 9.46 3.76 1.95 2.47 2.6 5.85 1.94 10.13a19.42 19.42 0 0 1-1.72 5.75 17.1 17.1 0 0 1-3.54 5.1 12.36 12.36 0 0 1-5.92 3.64c-2.1.52-4.28.78-6.53.78h-6.64l-2.1 10.51H.75l7.92-39.67Zm6.47 6.3-3.32 16.6c.22.04.44.06.66.06h.78c3.54.04 6.5-.31 8.85-1.05 2.36-.77 3.95-3.47 4.76-8.08.67-3.87 0-6.1-1.99-6.7a24.83 24.83 0 0 0-8.63-.77H15.1l.05-.06ZM43.67.88h7.63l-2.15 10.57H56c3.76.07 6.56.85 8.4 2.32 1.9 1.48 2.44 4.28 1.67 8.41l-3.7 18.43h-7.76L58.17 23c.36-1.84.25-3.15-.34-3.93-.59-.77-1.86-1.16-3.81-1.16l-6.15-.05-4.53 22.74H35.7L43.67.88ZM74.28 11.45h14.83c4.35.03 7.5 1.29 9.46 3.76 1.96 2.47 2.6 5.85 1.94 10.13a19.43 19.43 0 0 1-1.72 5.75 17.1 17.1 0 0 1-3.54 5.1 12.36 12.36 0 0 1-5.92 3.64c-2.1.52-4.28.78-6.53.78h-6.64l-2.1 10.51h-7.7l7.92-39.67Zm6.47 6.3-3.32 16.6c.23.04.45.06.67.06h.77c3.54.04 6.5-.31 8.86-1.05 2.36-.77 3.94-3.47 4.76-8.08.66-3.87 0-6.1-2-6.7a24.83 24.83 0 0 0-8.63-.77H80.7l.05-.06Z"/></svg>