<svg xmlns="http://www.w3.org/2000/svg" width="25" height="24" fill="none"><g clip-path="url(#a)"><path fill="#0F2534" fill-rule="evenodd" d="M4.5 0a4 4 0 0 0-4 4v16a4 4 0 0 0 4 4h16a4 4 0 0 0 4-4V4a4 4 0 0 0-4-4h-16Zm3.67 4.04c.6-.16 1.24.15 1.48.73l1.25 3c.22.51.07 1.1-.36 1.45L9 10.48a10.56 10.56 0 0 0 5.02 5.02l1.26-1.54c.35-.43.94-.58 1.45-.36l3 1.25c.58.24.9.87.73 1.48l-.75 2.75c-.15.54-.65.92-1.21.92a14 14 0 0 1-14-14c0-.56.38-1.06.92-1.2l2.75-.76Z" clip-rule="evenodd"/></g><defs><clipPath id="a"><path fill="#fff" d="M.5 0h24v24H.5z"/></clipPath></defs></svg>