<svg xmlns="http://www.w3.org/2000/svg" width="101" height="64" fill="none"><path fill="#621EE5" d="M5.32 33a2.8 2.8 0 0 0-2-.87 2.67 2.67 0 0 0-2 .86c-.27.26-.48.58-.61.92a3.02 3.02 0 0 0 0 2.18c.14.34.35.65.61.92a2.67 2.67 0 0 0 2 .84 2.76 2.76 0 0 0 2-.84 2.8 2.8 0 0 0 0-4Zm33.48-6.5c-.04 1.8.04 3.6.25 5.38h-.1a36.9 36.9 0 0 0-1.47-2.45L19.24.8H13.7v36.55h4.26V10.93c.04-1.68-.03-3.35-.2-5.02h.16c.3.8.7 1.57 1.16 2.29L37.8 37.35h5.24V.8H38.8v25.7Zm33.1 6.83H56.88V20.67h13.16v-3.86H56.87V4.67h14.12V.8H52.5v36.55h19.37l.03-4.02ZM75.17.8v3.87h10.48v32.68h4.26V4.67h10.6V.8H75.16Zm-41.7 45.64a8.03 8.03 0 0 0-2.82 1.9 8.97 8.97 0 0 0-2.43 6.53 8.56 8.56 0 0 0 2.16 6.02 7.44 7.44 0 0 0 5.75 2.3c1.6.06 3.19-.28 4.64-.98l.01-1.87a8.23 8.23 0 0 1-4.37 1.12 5.76 5.76 0 0 1-4.42-1.82 6.98 6.98 0 0 1-1.68-4.91 7.3 7.3 0 0 1 1.8-5.18 6.18 6.18 0 0 1 4.7-2c1.4-.03 2.77.31 4 1v-2.02a9.79 9.79 0 0 0-4-.7 8.67 8.67 0 0 0-3.35.6Zm19.94 5.73a5.37 5.37 0 0 0-4.18-1.67 6.18 6.18 0 0 0-4.46 1.7 6.52 6.52 0 0 0-1.66 4.74 6.28 6.28 0 0 0 1.58 4.47 5.5 5.5 0 0 0 4.26 1.78 5.74 5.74 0 0 0 4.34-1.82 6.45 6.45 0 0 0 1.61-4.6 6.63 6.63 0 0 0-1.5-4.6Zm-1.47 8.21a3.51 3.51 0 0 1-2.85 1.21 3.76 3.76 0 0 1-2.92-1.24 4.9 4.9 0 0 1-1.08-3.37 5.21 5.21 0 0 1 1.08-3.49 3.67 3.67 0 0 1 2.91-1.26 3.54 3.54 0 0 1 2.86 1.25c.73 1 1.08 2.23 1 3.47a5.24 5.24 0 0 1-1 3.43Zm9.27-9a4.21 4.21 0 0 0-1.25 2.01v-2.51h-2V62.9h2v-6.14a5.4 5.4 0 0 1 .81-3.16 2.44 2.44 0 0 1 2-1.16 2.3 2.3 0 0 1 1.46.38v-1.98a3.23 3.23 0 0 0-1.14-.16c-.68-.01-1.35.24-1.88.7Zm14.72 4.97a6.37 6.37 0 0 0-1.28-4.25A4.57 4.57 0 0 0 71 50.57a5.1 5.1 0 0 0-4 1.77 6.57 6.57 0 0 0-1.57 4.57 6.7 6.7 0 0 0 1.45 4.6 5.15 5.15 0 0 0 4 1.66 6.95 6.95 0 0 0 4.18-1.15v-1.8a6 6 0 0 1-3.72 1.34 3.71 3.71 0 0 1-2.84-1.09 4.46 4.46 0 0 1-1.02-3.09h8.46l-.02-1.03Zm-8.45-.56c.1-.95.52-1.85 1.17-2.54a3.09 3.09 0 0 1 2.3-.99 2.72 2.72 0 0 1 2.2.92 4 4 0 0 1 .8 2.59l-6.47.02Z"/></svg>