<svg xmlns="http://www.w3.org/2000/svg" width="90" height="100" fill="none"><path fill="#5C8DBC" d="M89.47 29.4c0-1.68-.36-3.17-1.09-4.44a8.5 8.5 0 0 0-3.22-3.14L49.62 1.35c-3.2-1.85-6.29-1.78-9.46.09-4.71 2.78-28.31 16.3-35.35 20.38a8.22 8.22 0 0 0-4.3 7.58L.5 70.6c0 1.65.34 3.1 1.04 4.36a8.46 8.46 0 0 0 3.27 3.22c7.03 4.08 30.64 17.6 35.35 20.38 3.17 1.87 6.27 1.94 9.46.1C61.46 91.81 73.32 85 85.17 78.17a8.47 8.47 0 0 0 3.26-3.22 8.88 8.88 0 0 0 1.04-4.36V29.4Z"/><path fill="#1A4674" d="M45.12 49.87 1.54 74.96a8.46 8.46 0 0 0 3.27 3.22c7.03 4.08 30.64 17.6 35.35 20.38 3.17 1.87 6.27 1.94 9.46.1C61.46 91.81 73.32 85 85.17 78.17a8.47 8.47 0 0 0 3.26-3.22l-43.3-25.1Z"/><path fill="#1A4674" d="M32.21 57.3a14.7 14.7 0 0 0 25.6-.09l-12.69-7.34-12.9 7.43Z"/><path fill="#1B598E" d="M89.47 29.4c0-1.68-.36-3.17-1.09-4.44l-43.26 24.9 43.31 25.1a8.88 8.88 0 0 0 1.04-4.36V29.4Z"/><path fill="#fff" d="M87.09 51.66H83.7v3.38h-3.38v-3.38h-3.39v-3.38h3.39v-3.39h3.38v3.39h3.39v3.38Zm-12.35 0h-3.39v3.38h-3.38v-3.38h-3.38v-3.38h3.38v-3.39h3.38v3.39h3.39v3.38Z"/><path fill="#fff" d="M57.8 57.21a14.7 14.7 0 1 1-.09-14.6l12.86-7.4A29.54 29.54 0 0 0 15.44 50a29.53 29.53 0 0 0 55.2 14.65l-12.83-7.44Z"/></svg>