<svg xmlns="http://www.w3.org/2000/svg" width="101" height="100" fill="none"><path fill="url(#a)" d="M50.37 0C24.85 0 26.45 11.07 26.45 11.07l.03 11.46h24.35v3.44H16.8S.47 24.12.47 49.87s14.26 24.84 14.26 24.84h8.5V62.76S22.77 48.5 37.26 48.5H61.4s13.57.21 13.57-13.12V13.34S77.04 0 50.38 0ZM36.95 7.71a4.38 4.38 0 1 1 0 8.75 4.38 4.38 0 0 1 0-8.75Z"/><path fill="url(#b)" d="M51.1 100c25.52 0 23.92-11.07 23.92-11.07L75 77.47H50.64v-3.44h34.03S101 75.88 101 50.13 86.74 25.29 86.74 25.29h-8.5v11.95S78.7 51.5 64.2 51.5H40.06s-13.57-.21-13.57 13.12v22.05S24.43 100 51.09 100Zm13.43-7.7a4.38 4.38 0 1 1-.01-8.76 4.38 4.38 0 0 1 0 8.75Z"/><defs><linearGradient id="a" x1="966.5" x2="5948.1" y1="899.44" y2="5831.34" gradientUnits="userSpaceOnUse"><stop stop-color="#387EB8"/><stop offset="1" stop-color="#366994"/></linearGradient><linearGradient id="b" x1="1452.34" x2="6802" y1="1562.76" y2="6619.97" gradientUnits="userSpaceOnUse"><stop stop-color="#FFE052"/><stop offset="1" stop-color="#FFC331"/></linearGradient></defs></svg>