<svg xmlns="http://www.w3.org/2000/svg" width="25" height="24" fill="none"><g clip-path="url(#a)"><path fill="#0F2534" fill-rule="evenodd" d="M4.5 0a4 4 0 0 0-4 4v16a4 4 0 0 0 4 4h16a4 4 0 0 0 4-4V4a4 4 0 0 0-4-4h-16Zm14.76 8.99v-.45A7.49 7.49 0 0 0 21 6.74c-.63.27-1.3.46-2 .54a3.47 3.47 0 0 0 1.53-1.92c-.67.4-1.43.69-2.22.84a3.48 3.48 0 0 0-6.03 2.38c0 .27.04.54.1.8a9.9 9.9 0 0 1-7.2-3.65 3.48 3.48 0 0 0 1.08 4.66 3.51 3.51 0 0 1-1.57-.44V10c0 1.7 1.2 3.1 2.8 3.42a3.68 3.68 0 0 1-1.58.07 3.49 3.49 0 0 0 3.26 2.41A6.98 6.98 0 0 1 4 17.34a9.85 9.85 0 0 0 5.35 1.56c6.4 0 9.91-5.3 9.91-9.91Z" clip-rule="evenodd"/></g><defs><clipPath id="a"><path fill="#fff" d="M.5 0h24v24H.5z"/></clipPath></defs></svg>