<svg xmlns="http://www.w3.org/2000/svg" width="25" height="24" fill="none"><path fill="#0F2534" fill-rule="evenodd" d="M4.5 0a4 4 0 0 0-4 4v16a4 4 0 0 0 4 4h16a4 4 0 0 0 4-4V4a4 4 0 0 0-4-4h-16Zm14.64 6.38c.73.2 1.3.78 1.5 1.51.36 1.34.36 4.12.36 4.12s0 2.79-.36 4.12a2.1 2.1 0 0 1-1.5 1.49c-1.32.36-6.64.36-6.64.36s-5.32 0-6.64-.36a2.1 2.1 0 0 1-1.5-1.49C4 14.8 4 12.01 4 12.01s0-2.78.36-4.12c.2-.73.77-1.31 1.5-1.5 1.32-.37 6.64-.37 6.64-.37s5.32 0 6.64.36Zm-3.94 5.63-4.44-2.53v5.06l4.44-2.53Z" clip-rule="evenodd"/></svg>