<svg xmlns="http://www.w3.org/2000/svg" width="100" height="36" fill="none"><path fill="#0987EE" d="M8.65 27.9V8.1h15.8l1.94 2v5.95l-1.94 1.97 1.94 1.97v5.97l-1.94 1.94H8.65Zm13.83-11.85v-3.98h-9.9v3.98h9.9Zm0 7.88v-3.94h-9.9v3.94h9.9ZM40.69 27.9V8.1h15.8l1.94 2v9.89l-1.94 1.97H44.63v5.91H40.7v.03Zm13.83-9.88v-5.95h-9.89v5.95h9.89ZM72.86 27.9V14.07l5.91-5.97H90.6v19.8h-3.94V22h-9.89v5.91h-3.9Zm13.83-9.88v-5.95h-5.95l-3.94 3.98v1.97h9.89Z"/><path fill="#0987EE" d="M92.8.5H70.47l-3.4 3.4V.5h-35v3.4L28.68.5H0v35h35.03v-3.4l3.4 3.4h22.32l4.9-4.86 4.86 4.86h28.67V6.86L92.8.5ZM32.07 32.54H2.96V3.46h24.47l4.65 4.64v24.44Zm27.43 0H39.67l-4.64-4.64V3.42h29.09V27.9l-4.61 4.64Zm36.68 0H71.72l-4.64-4.64V8.07l4.64-4.65h19.83l4.64 4.65v24.47Z"/></svg>