<svg xmlns="http://www.w3.org/2000/svg">
    <symbol id="minus">
        <path d="M23.5 12c0 .94-.76 1.7-1.7 1.7H3.2a1.7 1.7 0 1 1 0-3.4h18.6c.94 0 1.7.76 1.7 1.7Z" />
    </symbol>

    <symbol id="plus">
        <path
            d="M14.2 2.7a1.69 1.69 0 1 0-3.4 0v7.6H3.2a1.69 1.69 0 1 0 0 3.4h7.6v7.6a1.69 1.69 0 1 0 3.4 0v-7.6h7.6a1.69 1.69 0 1 0 0-3.4h-7.6V2.7Z" />
    </symbol>

    <symbol id="arrow">
        <path
            d="M23.04 13.11c.61-.61.61-1.61 0-2.22l-7.86-7.86a1.57 1.57 0 0 0-2.22 2.22l5.18 5.18H3.07a1.57 1.57 0 1 0 0 3.14h15.06l-5.17 5.18a1.57 1.57 0 0 0 2.23 2.22l7.85-7.86Z" />
    </symbol>

    <symbol id="loop">
        <path
            d="M19.38 9.94c0 1.97-.64 3.79-1.72 5.27l5.44 5.44a1.38 1.38 0 0 1-1.95 1.95l-5.44-5.45a8.94 8.94 0 1 1 3.67-7.22Zm-8.94 6.18a6.19 6.19 0 1 0 0-12.38 6.19 6.19 0 0 0 0 12.38Z" />
    </symbol>

    <symbol id="cross">
        <path
            d="M25 8.5a2.13 2.13 0 0 0-3.01-3l-6.99 7-7-7a2.13 2.13 0 0 0-3 3.01l7 6.99-7 7a2.13 2.13 0 0 0 3.01 3l6.99-7 7 7a2.13 2.13 0 0 0 3-3.01l-7-6.99 7-7Z" />
    </symbol>
</svg>