<svg xmlns="http://www.w3.org/2000/svg">
    <symbol id="linkedin">
        <path fill-rule="evenodd"
            d="M4.5 0a4 4 0 0 0-4 4v16a4 4 0 0 0 4 4h16a4 4 0 0 0 4-4V4a4 4 0 0 0-4-4h-16Zm-.22 20.5h3.53V9.15H4.28V20.5ZM4 5.54c0 1.13.91 2.06 2.04 2.06a2.06 2.06 0 0 0 1.44-3.5A2.04 2.04 0 0 0 4 5.54ZM17.48 20.5H21v-6.23c0-3.06-.66-5.4-4.22-5.4a3.7 3.7 0 0 0-3.34 1.83h-.05V9.15h-3.38V20.5h3.52v-5.62c0-1.48.28-2.91 2.12-2.91 1.8 0 1.83 1.69 1.83 3v5.53Z" />
    </symbol>

    <symbol id="github">
        <path fill-rule="evenodd"
            d="M4.5 0a4 4 0 0 0-4 4v16a4 4 0 0 0 4 4h16a4 4 0 0 0 4-4V4a4 4 0 0 0-4-4h-16Zm5 17.18c.1 0 .19-.05.19-.12 0-.08-.1-.13-.2-.12-.1 0-.17.05-.17.12 0 .08.07.13.19.12Zm-.73-.1c-.1-.03-.17-.1-.15-.18.02-.06.12-.1.21-.07.1.03.17.1.15.17-.02.07-.12.1-.21.07Zm1.2-.07c0-.07.07-.14.17-.16.1-.01.19.03.2.1 0 .06-.06.13-.16.15-.1.03-.2-.02-.2-.09ZM4 12.08a8.22 8.22 0 0 1 8.39-8.37c4.75 0 8.61 3.61 8.61 8.37 0 3.8-2.32 7.05-5.75 8.19-.44.08-.6-.2-.6-.42v-.6l.02-2.26c0-.8-.27-1.32-.59-1.6 1.92-.21 3.94-.47 3.94-3.78 0-.94-.34-1.41-.89-2.02.1-.22.38-1.14-.09-2.33-.71-.22-2.36.93-2.36.93a8.05 8.05 0 0 0-4.3 0S8.72 7.04 8 7.26a3.24 3.24 0 0 0-.09 2.33 2.6 2.6 0 0 0-.8 2.02c0 3.3 1.93 3.57 3.84 3.79-.25.22-.47.6-.55 1.15-.49.23-1.75.6-2.5-.71-.47-.82-1.32-.89-1.32-.89-.84 0-.05.53-.05.53.56.26.95 1.25.95 1.25.5 1.54 2.9 1.02 2.9 1.02v1.59l.01.52c0 .22-.15.5-.6.41a8.6 8.6 0 0 1-5.8-8.2Zm3.36 3.63c-.06-.06-.07-.14-.03-.18.05-.04.12-.02.18.04s.07.14.02.18c-.04.04-.12.02-.17-.04Zm-.32-.32c-.07-.03-.1-.09-.08-.13.03-.04.08-.05.15-.03.07.04.1.1.08.14-.03.04-.1.05-.15.02Zm1.08 1.3c-.08-.07-.1-.17-.05-.21.05-.06.15-.05.22.03.07.07.1.17.05.21-.05.06-.14.05-.22-.03Zm-.44-.52c-.05-.07-.05-.16 0-.2.06-.04.15 0 .2.07.05.08.05.17 0 .21-.05.04-.14 0-.2-.08Z" />
    </symbol>

    <symbol id="instagram">
        <path fill-rule="evenodd"
            d="M4.5 0a4 4 0 0 0-4 4v16a4 4 0 0 0 4 4h16a4 4 0 0 0 4-4V4a4 4 0 0 0-4-4h-16Zm3.64 12a4.35 4.35 0 1 1 8.7-.01 4.35 4.35 0 0 1-8.7.01Zm1.53 0a2.84 2.84 0 1 0 5.68-.01 2.84 2.84 0 0 0-5.68.01Zm7.37-3.52a1.01 1.01 0 1 0 0-2.03 1.02 1.02 0 0 0 0 2.03Zm2.53-3.55c1 1 1.3 2.2 1.37 3.56.08 1.4.08 5.61 0 7.02a5.06 5.06 0 0 1-1.37 3.56c-1 1-2.2 1.3-3.56 1.37-1.4.08-5.61.08-7.02 0a5.07 5.07 0 0 1-3.56-1.37c-1-1-1.3-2.2-1.37-3.56-.08-1.4-.08-5.62 0-7.02a5.05 5.05 0 0 1 1.37-3.56c1-1 2.2-1.3 3.56-1.37 1.4-.08 5.61-.08 7.02 0 1.36.07 2.57.38 3.56 1.37Zm-2.06 13.7c.75-.3 1.32-.88 1.62-1.62.38-.96.36-3.05.34-4.4V11.4c.02-1.36.04-3.45-.34-4.41a2.87 2.87 0 0 0-1.62-1.62c-.96-.38-3.06-.36-4.42-.34a65.31 65.31 0 0 1-1.2 0c-1.35-.02-3.44-.04-4.4.34-.75.3-1.32.88-1.62 1.62-.37.96-.35 3.06-.34 4.42a65.31 65.31 0 0 1 0 1.2c-.01 1.35-.04 3.44.34 4.4.3.75.88 1.32 1.62 1.62.96.38 3.06.36 4.42.34h1.2c1.35.02 3.44.04 4.4-.34Z" />
    </symbol>

    <symbol id="vk">
        <path fill-rule="evenodd"
            d="M4.5 0a4 4 0 0 0-4 4v16a4 4 0 0 0 4 4h16a4 4 0 0 0 4-4V4a4 4 0 0 0-4-4h-16Zm5.1 7.69c-.33-.16-.2-.8 2.52-.8 1.86 0 1.85.84 1.85 2.83v.32c0 1.56.21 1.98.61 1.98.35 0 .77-.49 1.58-2.13l.44-.92c.6-1.27.78-1.63 1.37-1.63l1.13.01 1.37.03c.67 0 .79.1.88.4.1.32-.1.66-1.4 2.56-1.6 2.37-1.67 2.5-.45 3.64 1.32 1.22 1.68 1.87 1.77 2.03 0 .02.01.03.02.03.59.99-.2 1.07-.67 1.07h-2.6c-.58 0-.77-.12-.98-.33l-.02-.02c-1.74-1.75-1.98-2-2.37-2-.37 0-.45.5-.6 1.35l-.06.31c-.06.3-.3.69-.96.69h-.62c-.4 0-2.52.01-4.59-2.09-2.12-2.15-4.14-6.71-4.28-7.05-.11-.27.01-.63.46-.63h2.24c.74 0 .84.18 1.61 1.63l.46.84c1.03 1.88 1.28 2.1 1.77 2.1.47 0 .47-.95.47-2.56v-.1c0-1.1-.53-1.36-.92-1.55L9.6 7.7Z" />
    </symbol>

    <symbol id="telegram">
        <path fill-rule="evenodd"
            d="M4.5 0a4 4 0 0 0-4 4v16a4 4 0 0 0 4 4h16a4 4 0 0 0 4-4V4a4 4 0 0 0-4-4h-16Zm12.8 6.33c-1.2.5-6.87 2.85-11.29 4.8-1.15.5-1.43 1.03-.25 1.43l.1.04c.35.12 1.07.37 1.81.58 1.07.3 1.67.11 2.3-.3.4-.29 3.63-2.43 5.97-3.98.26-.17.54.18.31.4l-4.28 4.1c-.92.9-.25 1.37.29 1.75l.06.05a273 273 0 0 0 3.93 2.63c1.15.75 1.88.55 2.2-1.2.38-2.04.83-4.95 1.14-7.01l.33-2.08c.33-1.99-.33-2.16-2.5-1.26l-.13.05Z" />
    </symbol>

    <symbol id="google">
        <path fill-rule="evenodd"
            d="M4.5 0a4 4 0 0 0-4 4v16a4 4 0 0 0 4 4h16a4 4 0 0 0 4-4V4a4 4 0 0 0-4-4h-16Zm8.13 20c4.62 0 7.74-3.25 7.74-7.81 0-.54-.05-.93-.13-1.34h-7.61v2.75h4.54c-.19 1.18-1.37 3.45-4.54 3.45A5.01 5.01 0 0 1 7.67 12c0-4.5 5.3-6.56 8.15-3.81l2.17-2.1A7.99 7.99 0 1 0 12.63 20Z" />
    </symbol>
</svg>