<svg xmlns="http://www.w3.org/2000/svg" width="668" height="376" fill="none"><path fill="#0F2534" d="M657.2 260.4v-10.6h10.5v10.6h-10.5Zm1.3-9.1v7.7h7.8v-7.7h-7.8Z"/><path fill="#0987EE" d="M541.9 10.5V0h10.5v10.5H542Zm1.4-9v7.7h7.7V1.4h-7.7Z"/><path fill="#0F2534" d="M520.3 20.2h-10.5v10.6h10.5V20.2Z"/><path fill="#0987EE" d="M471 39.4h-10.5v10.5H471V39.4Z"/><path fill="#0F2534" d="M196.5 49V38.5H207V49h-10.5Zm1.3-9.1v7.7h7.8V40h-7.8Z"/><path fill="#0987EE" d="M114.2 125.8v-10.5h10.6v10.5h-10.6Zm1.4-9v7.7h7.8v-7.8h-7.8ZM361 183.5V173h10.5v10.5H361Zm1.3-9.1v7.7h7.8v-7.7h-7.8Z"/><path fill="#0F2534" d="M191.4 174h-10.6v10.5h10.6v-10.6ZM81.4 183.5V173h10.5v10.5H81.4Zm1.3-9.1v7.7h7.8v-7.7h-7.8Z"/><path fill="#0987EE" d="M591.2 222v-10.6h10.6V222h-10.6Zm1.4-9.2v7.7h7.7v-7.7h-7.7Z"/><path fill="#0F2534" d="M459.7 260.4v-10.6h10.5v10.6h-10.5Zm1.3-9.1v7.7h7.8v-7.7H461Z"/><path fill="#0987EE" d="M262.3 260.4v-10.6h10.5v10.6h-10.5Zm1.4-9.1v7.7h7.7v-7.7h-7.7Z"/><path fill="#0F2534" d="M361 279.6v-10.5h10.5v10.5H361Zm1.3-9.2v7.8h7.8v-7.8h-7.8ZM213 279.6v-10.5h10.5v10.5h-10.6Zm1.3-9.2v7.8h7.7v-7.8h-7.7Z"/><path fill="#0987EE" d="M174.9 270h-10.5v10.5h10.5V270Z"/><path fill="#0F2534" d="M229.3 298.8v-10.5H240v10.5h-10.6Zm1.5-9.1v7.7h7.7v-7.7h-7.7ZM509 318v-10.5h10.5V318H509Zm1.4-9v7.7h7.7v-7.8h-7.7Z"/><path fill="#0987EE" d="M438 327.7h-10.5v10.5H438v-10.5ZM290 327.7h-10.5v10.5h10.6v-10.5ZM10.5 194.3H0v10.5h10.5v-10.5Z"/><path fill="#0F2534" d="M295.2 375.7V365h10.5v10.6h-10.5Zm1.3-9.1v7.7h7.8v-7.7h-7.8Z"/></svg>