<svg xmlns="http://www.w3.org/2000/svg" width="668" height="376" fill="none"><path fill="#0F2534" d="M657.4 260.4v-10.6h10.5v10.6h-10.5Zm1.3-9.1v7.7h7.8v-7.7h-7.8Z"/><path fill="#0987EE" d="M542 10.5V0h10.6v10.5H542Zm1.4-9v7.7h7.8V1.4h-7.8Z"/><path fill="#0F2534" d="M520.5 20.2H510v10.6h10.5V20.2Z"/><path fill="#0987EE" d="M471.2 39.4h-10.6v10.5h10.6V39.4Z"/><path fill="#0F2534" d="M196.6 49V38.5h10.6V49h-10.6Zm1.4-9.1v7.7h7.8V40H198Z"/><path fill="#0987EE" d="M114.4 125.8v-10.5H125v10.5h-10.5Zm1.4-9v7.7h7.7v-7.8h-7.7ZM361.2 183.5V173h10.5v10.5h-10.5Zm1.3-9.1v7.7h7.8v-7.7h-7.8Z"/><path fill="#0F2534" d="M191.5 174H181v10.5h10.5v-10.6ZM81.5 183.5V173h10.6v10.5H81.5Zm1.4-9.1v7.7h7.8v-7.7h-7.8Z"/><path fill="#0987EE" d="M591.4 222v-10.6H602V222h-10.5Zm1.4-9.2v7.7h7.7v-7.7h-7.7Z"/><path fill="#0F2534" d="M459.9 260.4v-10.6h10.5v10.6h-10.5Zm1.3-9.1v7.7h7.8v-7.7h-7.8Z"/><path fill="#0987EE" d="M262.5 260.4v-10.6H273v10.6h-10.5Zm1.3-9.1v7.7h7.8v-7.7h-7.8Z"/><path fill="#0F2534" d="M361.2 279.6v-10.5h10.5v10.5h-10.5Zm1.3-9.2v7.8h7.8v-7.8h-7.8ZM213.1 279.6v-10.5h10.5v10.5h-10.5Zm1.4-9.2v7.8h7.7v-7.8h-7.7Z"/><path fill="#0987EE" d="M175 270h-10.4v10.5H175V270Z"/><path fill="#0F2534" d="M229.5 298.8v-10.5H240v10.5h-10.5Zm1.4-9.1v7.7h7.8v-7.7h-7.8ZM509.2 318v-10.5h10.5V318h-10.5Zm1.4-9v7.7h7.7v-7.8h-7.7Z"/><path fill="#0987EE" d="M438.2 327.7h-10.5v10.5h10.5v-10.5ZM290.2 327.7h-10.5v10.5h10.5v-10.5ZM10.7 194.3H.2v10.5h10.5v-10.5Z"/><path fill="#0F2534" d="M295.3 375.7V365H306v10.6h-10.6Zm1.4-9.1v7.7h7.7v-7.7h-7.7Z"/></svg>