<svg xmlns="http://www.w3.org/2000/svg" width="539" height="458" fill="none"><path fill="#0987EE" d="m367.7 277 8.6-6-6-8.6-8.7 6 6.1 8.7ZM226.2 342.2l7 10-9.8 6.8-7-10 9.7-6.9Zm4.8 9.6-5.2-7.4-7.3 5 5.2 7.4 7.3-5Z"/><path fill="#fff" d="m358.3 263.6 8.6-6-6.1-8.7-8.6 6 6 8.7Z"/><path fill="#0F2534" d="m371.7 254.2 8.6-6-6.1-8.7-8.6 6 6.1 8.7ZM455.2 181.8l7 10-9.9 6.9-7-10 9.9-7v.1Zm4.8 9.6L455 184l-7.3 5 5.2 7.5 7.2-5.1Z"/><path fill="#0987EE" d="m107.6 344.9 7 10-9.8 6.9-7-10 9.8-7Zm4.8 9.5-5.2-7.3-7.3 5 5.2 7.4 7.3-5Z"/><path fill="#0F2534" d="m179 274.8 7 10-9.8 6.9-7-10 9.8-7Zm4.8 9.6-5.1-7.4-7.3 5.1 5.2 7.4 7.2-5.1Z"/><path fill="#0987EE" d="m338 177.4 8.6-6-6-8.7-8.6 6 6 8.7Z"/><path fill="#0F2534" d="m277.4 185.8 7 10-9.9 7-7-10.1 9.9-7v.1Zm4.8 9.6-5.2-7.3-7.3 5 5.2 7.4 7.3-5ZM38.9 332.8l7 10-9.9 6.9-7-10 9.9-7Zm4.8 9.5-5.2-7.4-7.3 5.1 5.2 7.4 7.3-5Z"/><path fill="#0987EE" d="m224.8 216.4 8.6-6-6.1-8.6-8.6 6 6.1 8.6Z"/><path fill="#0F2534" d="m94.2 287.9 8.6-6-6.1-8.7-8.6 6 6.1 8.7Z"/><path fill="#0987EE" d="m509.9 136.2 8.6-6-6.1-8.7-8.6 6 6.1 8.7Z"/><path fill="#0F2534" d="m185.7 169.7 7 10-9.8 6.9-7-10 9.8-7Zm4.9 9.5-5.2-7.3-7.3 5 5.2 7.4 7.3-5Z"/></svg>