<svg xmlns="http://www.w3.org/2000/svg" width="356" height="357" fill="none"><path fill="#0F2534" d="M355.8 0h-10.5v10.5h10.5V0Z"/><path fill="#0987EE" d="M142 0h-10.5v10.5H142V0Z"/><path fill="#0F2534" d="M224.2 16.4h-10.5V27h10.5V16.4ZM278.7 77.1V65h12.1V77h-12.1Zm1.6-10.5v9h9v-9h-9ZM76.2 98.7H65.7v10.5h10.5V98.7Z"/><path fill="#0987EE" d="M224.2 115.1h-10.5v10.5h10.5v-10.5Z"/><path fill="#0F2534" d="M213.6 125.8V115h10.7v10.8h-10.7Zm.2-10.6v10.4H224v-10.4h-10.3Z"/><path fill="#0987EE" d="M114.2 142.9v-12.2h12.2V143h-12.2Zm1.6-10.5v9h9v-9h-9Z"/><path fill="#0F2534" d="M262.3 159.3v-12.1h12v12.1h-12Zm1.6-10.5v9h9v-9h-9ZM207.8 164.4h-10.5V175h10.5v-10.6Z"/><path fill="#0987EE" d="M355.8 213.8h-10.5v10.5h10.5v-10.5Z"/><path fill="#0F2534" d="M114.2 241.6v-12.2h12.2v12.2h-12.2Zm1.6-10.6v9h9v-9h-9ZM262.3 258V246h12V258h-12Zm1.6-10.5v9h9v-9h-9ZM213 274.5v-12.1H225v12.1h-12.2Zm1.5-10.6v9h9v-9h-9Z"/><path fill="#0987EE" d="M174.9 263.1h-10.5v10.6h10.5V263ZM290 312.5h-10.5V323h10.6v-10.5ZM10.5 198.3H0v10.5h10.5v-10.5Z"/><path fill="#0F2534" d="M295.2 356.7v-12.1h12.1v12.1h-12.1Zm1.5-10.5v9h9v-9h-9ZM147.1 356.7v-12.1h12.2v12.1H147Zm1.7-10.5v9h9v-9h-9Z"/></svg>