<svg xmlns="http://www.w3.org/2000/svg" width="522" height="193" fill="none"><path fill="#0987EE" d="M313.4 192.3h10.5v-10.5h-10.5v10.5ZM160.2 164.5v12.1h-12v-12.2h12v.1Zm-1.6 10.5v-9h-9v9h9Z"/><path fill="#fff" d="M313.4 175.8h10.5v-10.5h-10.5v10.5Z"/><path fill="#0F2534" d="M329.8 175.8h10.5v-10.5h-10.5v10.5ZM439.8 164.5v12.1h-12.2v-12.2h12.2v.1Zm-1.6 10.5v-9h-9v9h9Z"/><path fill="#0987EE" d="M61.5 98.7v12.1h-12V98.8h12Zm-1.6 10.5v-9h-9v9h9Z"/><path fill="#0F2534" d="M160.2 82.2v12.2h-12V82.2h12Zm-1.6 10.6v-9h-9v9h9Z"/><path fill="#0987EE" d="M346.3 93.6h10.5V83h-10.5v10.5Z"/><path fill="#0F2534" d="M291.8 65.8V78h-12.1V65.8h12.1Zm-1.6 10.5v-9h-9v9h9ZM12.2 49.3v12.2H0V49.3h12.2ZM10.6 60v-9h-9v9h9ZM83.1 44.2h10.6V33.7H83v10.5ZM231.1 44.2h10.5V33.7h-10.5v10.5Z"/><path fill="#0987EE" d="M510.7 158.4h10.5V148h-10.5v10.5Z"/><path fill="#0F2534" d="M226 0v12.2H214V0H226Zm-1.6 10.5v-9h-9v9h9Z"/></svg>