<svg xmlns="http://www.w3.org/2000/svg" width="428" height="194" fill="none"><path fill="#0987EE" d="M275.4 181v12h-12.2v-12h12.2Zm-1.7 10.5v-9h-9v9h9Z"/><path fill="#0F2534" d="M281.4 131.2v12.1h-12.1v-12.1h12.1Zm-1.5 10.6v-9h-9v9h9ZM145.4 85.1v12.1h-12.1V85.1h12.1Zm-1.6 10.6v-9h-9v9h9ZM312.5 71.9h10.6V61.3h-10.6V72Z"/><path fill="#0987EE" d="M171.2 158.6h10.6V148h-10.6v10.6ZM417.1 55.6h10.5V45.1h-10.5v10.5Z"/><path fill="#0F2534" d="M366.1 131.7h10.6v-10.5H366v10.5ZM12.2 33V45H0V32.9h12.2Zm-1.6 10.5v-9h-9v9h9Z"/><path fill="#0987EE" d="M33.7 27.8h10.5V17.3H33.7v10.5Z"/><path fill="#0F2534" d="M83 11.4h10.6V.8H83.1v10.6Z"/><path fill="#0987EE" d="M275.4 0v12.2h-12.2V0h12.2Zm-1.7 10.5v-9h-9v9h9Z"/><path fill="#0F2534" d="M357.6 0v12.2h-12.2V0h12.2ZM356 10.5v-9h-9v9h9ZM182 23.4h-10.6v10.5H182V23.4Z"/></svg>