<svg xmlns="http://www.w3.org/2000/svg" width="542" height="278" fill="none"><path fill="#fff" d="m340.8 192.8 10-2.8-2.8-10.2-10 2.8 2.8 10.2Z"/><path fill="#0F2534" d="m459.5 148 3.2 11.8-11.6 3.2-3.3-11.8 11.6-3.2Zm1.3 10.7-2.4-8.7-8.6 2.4 2.4 8.7 8.6-2.4ZM168 143.5l3.3 11.8-11.5 3.2-3.3-11.8 11.5-3.2Zm1.4 10.7-2.4-8.7-8.6 2.4 2.4 8.7 8.6-2.4ZM310.7 104l3.3 11.7-11.7 3.2-3.2-11.8 11.6-3.2Zm1.3 10.6-2.4-8.7-8.5 2.4 2.4 8.7 8.5-2.4Z"/><path fill="#0987EE" d="m350.5 104.8 10-2.8-2.8-10.2-10 2.8 2.8 10.2Z"/><path fill="#0F2534" d="m16.6 151.4 3.3 11.8-11.7 3.2L5 154.6l11.6-3.2Zm1.3 10.6-2.4-8.7-8.6 2.4 2.5 8.7 8.5-2.4Z"/><path fill="#0987EE" d="m230.7 103.8 10-2.8-2.8-10.2-10 2.8 2.8 10.2Z"/><path fill="#0F2534" d="m83.7 127.5 10.1-2.7-2.8-10.3-10.1 2.8 2.8 10.2Z"/><path fill="#0987EE" d="m526.2 123.3 10-2.8-2.8-10.2-10 2.8 2.8 10.2Z"/></svg>