<svg xmlns="http://www.w3.org/2000/svg" width="330" height="281" fill="none"><path fill="#0987EE" d="m89.3 233 7.5 9.6-9.5 7.4-7.5-9.6 9.5-7.4Zm5.3 9.3-5.5-7.1-7 5.5 5.4 7 7-5.4Z"/><path fill="#0F2534" d="m157 159.3 7.5 9.5-9.6 7.5-7.4-9.6 9.5-7.4Zm5.3 9.3-5.6-7-7 5.4 5.5 7 7-5.4ZM273.6 68.1l7.5 9.6-9.6 7.5-7.4-9.6 9.5-7.5Zm5.3 9.3-5.5-7-7 5.5 5.5 7 7-5.5Z"/><path fill="#0987EE" d="m310.6 53.7 8.3-6.5-6.5-8.3-8.3 6.5 6.5 8.3Z"/><path fill="#0F2534" d="m20 224.5 7.6 9.6-9.6 7.5-7.5-9.6 9.6-7.5Zm5.3 9.2-5.5-7-7 5.5 5.5 7 7-5.5Z"/><path fill="#0987EE" d="m199.6 98.6 8.3-6.5-6.5-8.3-8.3 6.5 6.5 8.3Z"/><path fill="#0F2534" d="m72.9 176.8 8.3-6.5-6.5-8.3-8.3 6.5 6.5 8.3Z"/></svg>