<svg xmlns="http://www.w3.org/2000/svg" width="357" height="357" fill="none"><path fill="#0F2534" d="M356.5 0h-10.6v10.5h10.6V0Z"/><path fill="#0987EE" d="M142.7 0H132v10.5h10.6V0Z"/><path fill="#0F2534" d="M224.9 16.4h-10.5V27h10.5V16.4ZM279.3 77.1V65h12.2V77h-12.2Zm1.7-10.5v9h9v-9h-9ZM76.9 98.7H66.3v10.5H77V98.7Z"/><path fill="#0987EE" d="M224.9 115.1h-10.5v10.5h10.5v-10.5Z"/><path fill="#0F2534" d="M214.2 125.8V115H225v10.8h-10.8Zm.2-10.6v10.4h10.4v-10.4h-10.4Z"/><path fill="#0987EE" d="M114.9 142.9v-12.2H127V143h-12.2Zm1.6-10.5v9h9v-9h-9Z"/><path fill="#0F2534" d="M263 159.3v-12.1h12v12.1h-12Zm1.5-10.5v9h9v-9h-9ZM208.4 164.4H198V175h10.5v-10.6Z"/><path fill="#0987EE" d="M356.5 213.8h-10.6v10.5h10.6v-10.5Z"/><path fill="#0F2534" d="M114.9 241.6v-12.2H127v12.2h-12.2Zm1.6-10.6v9h9v-9h-9ZM263 258V246h12V258h-12Zm1.5-10.5v9h9v-9h-9ZM213.6 274.5v-12.1h12.1v12.1h-12.1Zm1.6-10.6v9h9v-9h-9Z"/><path fill="#0987EE" d="M175.5 263.1H165v10.6h10.5V263ZM290.7 312.5h-10.5V323h10.5v-10.5ZM11.2 198.3H.6v10.5h10.6v-10.5Z"/><path fill="#0F2534" d="M295.8 356.7v-12.1H308v12.1h-12.2Zm1.6-10.5v9h9v-9h-9ZM147.8 356.7v-12.1h12.1v12.1h-12.1Zm1.6-10.5v9h9v-9h-9Z"/></svg>