<svg xmlns="http://www.w3.org/2000/svg" width="268" height="238" fill="none"><path fill="#0987EE" d="m161.5 169.8 8.6-6-6.1-8.7-8.6 6 6.1 8.7ZM87.7 186.5l7 10-9.8 6.9-7-10 9.7-7v.1Zm4.8 9.6-5.2-7.4-7.3 5.1 5.2 7.4 7.3-5Z"/><path fill="#0F2534" d="m260 89.4 7 10-10 6.9-7-10 9.9-7v.1Zm4.7 9.6-5.1-7.4-7.3 5 5.2 7.5 7.2-5.1ZM28.7 157l7 10-9.8 7-7-10 9.8-7Zm4.8 9.7-5.1-7.4-7.3 5 5.2 7.4 7.2-5Z"/><path fill="#0987EE" d="m166.3 118.1 8.6-6-6-8.6-8.7 6 6.1 8.6Z"/><path fill="#0F2534" d="m56.3 112.2 8.5-6-6-8.6-8.6 6 6 8.6Z"/></svg>